<?xml version="1.0" encoding="UTF-8"?>
<svg xmlns="http://www.w3.org/2000/svg" id="a" width="865.76" height="682.89" viewBox="0 0 865.76 682.89">
  <g>
    <rect x="418.48" y="426.56" width="11.5" height="17" fill="#040200"></rect>
    <path d="M430.07,443.64h-11.67v-17.17h11.67v17.17Zm-11.5-.17h11.33v-16.83h-11.33v16.83Z"></path>
  </g>
  <g>
    <polygon points="648.66 654.34 650.46 658.75 704.21 636.76 700.61 627.95 687.47 620.98 654.78 646.69 648.66 654.34" fill="#ece7e1"></polygon>
    <path d="M650.18,659.4l-2.1-5.14,6.39-7.96,32.94-25.91,13.58,7.21,3.86,9.44-54.68,22.37Zm-.95-4.97l1.5,3.67,52.83-21.61-3.35-8.18-12.69-6.73-32.38,25.48-5.91,7.38Z"></path>
  </g>
  <g>
    <path d="M667,626.27s-1.92-12.44,5.43-14.49c0,0,10.31,2.47,17.92-1.45,0,0,6.81,6.69,10.25,17.63,0,0-7.93,3.24-6.65,8.89l-45.3,17.5s-13.7-10.85,18.35-28.08Z" fill="#f4f3ee"></path>
    <path d="M648.57,654.91l-.22-.18c-.14-.11-3.5-2.83-3.06-7.73,.59-6.66,7.72-13.73,21.17-21.02-.27-2.12-1.22-12.73,5.84-14.7l.12-.04,.13,.03c.1,.02,10.22,2.38,17.57-1.41l.32-.17,.26,.25c.07,.07,6.94,6.91,10.38,17.83l.14,.44-.43,.17c-.08,.03-7.52,3.15-6.35,8.32l.1,.42-45.97,17.76Zm23.88-42.62c-6.69,2.01-4.97,13.78-4.95,13.9l.05,.35-.31,.17c-16.62,8.93-20.57,16.02-20.96,20.39-.33,3.69,1.8,6.02,2.48,6.67l44.63-17.24c-.79-5.02,4.95-8.08,6.6-8.85-3.03-9.27-8.52-15.44-9.75-16.74-7.26,3.54-16.54,1.64-17.8,1.36Z" fill="#070707"></path>
  </g>
  <g>
    <path d="M686.22,597.09l7,17s-2.2,7.57-12.1,7.79l-3.9-11.79,9-13Z" fill="#f2b3c1"></path>
    <path d="M680.76,622.39l-4.09-12.37,9.67-13.96,7.42,18.01-.05,.17c-.02,.08-2.42,7.93-12.57,8.15h-.37Zm-2.99-12.21l3.7,11.2c8.42-.35,10.84-6.18,11.21-7.25l-6.58-15.98-8.33,12.04Z" fill="#040200"></path>
  </g>
  <g>
    <path d="M617.22,522.09s37,74,45,80v24s7,5,17,7l12-57s9.37-28.56,6.18-42.78l-38.18-30.22-1-4-41,23Z" fill="#f2b3c1"></path>
    <path d="M679.6,633.68l-.49-.1c-9.99-2-17.12-7.03-17.19-7.08l-.21-.15v-24.02c-8.38-6.99-43.45-77.02-44.95-80.02l-.21-.43,41.99-23.55,1.12,4.47,38.19,30.22,.04,.17c3.18,14.19-5.81,41.87-6.2,43.04l-12.09,57.43Zm-16.89-7.85c1.21,.81,7.53,4.86,16.11,6.67l11.9-56.51c.11-.34,9.22-28.41,6.22-42.4l-38.18-30.21-.88-3.53-40.01,22.45c3.04,6.05,37.14,73.77,44.64,79.4l.2,.15v23.99Z" fill="#040200"></path>
  </g>
  <path d="M662.22,602.59h0c-.28,0-.5-.22-.5-.5l.04-68.49c0-.28,.22-.5,.5-.5h0c.28,0,.5,.22,.5,.5l-.04,68.49c0,.28-.22,.5-.5,.5Z"></path>
  <g>
    <path d="M622.22,317.09s3,4,10,5l60,4s6,0,7-4l1-8-10-10-43-4-22,1s-6,12-3,16Z" fill="#040200"></path>
    <path d="M692.22,326.59l-60.03-4c-7.16-1.02-10.24-5.03-10.37-5.2-3.15-4.2,2.7-16.02,2.95-16.52l.13-.26,22.29-1.01,43.25,4.02,10.3,10.3-1.03,8.24c-1.09,4.39-7.24,4.44-7.5,4.44Zm-69.6-9.8s2.99,3.85,9.67,4.81l59.96,4s5.59-.05,6.48-3.62l.96-7.7-9.7-9.7-42.82-3.98-21.64,.99c-1.69,3.46-5.17,12.21-2.92,15.21Z"></path>
  </g>
  <g>
    <path d="M631.99,312.94l.09,4.83c.09,4.86-.54,9.7-1.88,14.37l-25.99,90.96s-12,42-5,62l14,39,44-8s3,10,1,17c0,1,27,2,44-1,0,0,0-11-5-31,0,0-4-20,0-44,0,0,19-54,6-99,0,0-8-25-9-40,0,0-16-5-53-5l-9.22-.15Z" fill="#ece7e1"></path>
    <path d="M673.55,534.62c-8.37,0-14.88-.46-15.61-1.08l-.18-.15-.04-.37,.02-.07c1.7-5.97-.34-14.31-.88-16.29l-43.97,7.99-14.14-39.4c-6.97-19.92,4.5-60.58,4.99-62.31l25.99-90.96c1.32-4.62,1.95-9.41,1.86-14.22l-.1-5.34,9.74,.16c36.64,0,52.98,4.97,53.14,5.02l.33,.1,.02,.34c.98,14.77,8.9,39.63,8.98,39.88,12.9,44.65-5.81,98.78-6,99.32-3.92,23.54-.02,43.54,.02,43.74,4.95,19.81,5.01,30.99,5.01,31.1v.42l-.41,.07c-8.45,1.49-19.69,2.04-28.75,2.04Zm-14.75-1.78c3.03,.78,27.06,1.54,42.91-1.17-.06-2.19-.59-12.9-4.98-30.46-.04-.22-3.98-20.39,0-44.2,.21-.62,18.82-54.45,6.01-98.78-.08-.23-7.9-24.83-8.99-39.76-2.46-.69-18.87-4.88-52.53-4.88l-8.71-.14,.08,4.31c.09,4.91-.55,9.79-1.9,14.51l-25.99,90.96c-.12,.42-11.88,42.08-5.01,61.7l13.86,38.6,44.02-8,.13,.43c.12,.41,2.92,9.87,1.11,16.9Z"></path>
  </g>
  <g>
    <path d="M673.22,170.09s12,15,6,23c0,0-5,5-13,7l-2-19,9-11Z" fill="#040200"></path>
    <path d="M665.78,200.72l-2.08-19.78,.13-.16,9.39-11.48,.39,.48c.5,.62,12.17,15.4,6.01,23.61-.25,.26-5.24,5.17-13.28,7.19l-.56,.14Zm-1.04-19.47l1.92,18.21c7.45-2.03,12.16-6.67,12.21-6.72,5.07-6.76-3.69-19.21-5.66-21.84l-8.47,10.35Z"></path>
  </g>
  <g>
    <path d="M677.22,213.09c-14,10-26,32-26,32-12-8-12-30-12-30l5-6-.05-15.85,10.05-13.15,13,7v15l10,11Z" fill="#f2b3c1"></path>
    <path d="M651.39,245.81l-.46-.3c-12.08-8.06-12.22-29.51-12.22-30.42v-.18l5-6-.05-15.84,10.41-13.62,13.64,7.34v15.11l10.25,11.27-.46,.33c-13.74,9.82-25.73,31.61-25.85,31.83l-.26,.48Zm-11.68-30.54c.04,2.07,.69,21.49,11.33,29.1,1.84-3.26,12.83-22.1,25.42-31.35l-9.75-10.73v-14.89l-12.36-6.66-9.69,12.68,.05,15.86-5,6Z" fill="#040200"></path>
  </g>
  <g>
    <path d="M632.22,175.59s-19,26.5,12,27.5v-14l-12-13.5Z" fill="#040200"></path>
    <path d="M644.72,203.61l-.52-.02c-9.08-.29-14.84-2.8-17.13-7.45-4.11-8.33,4.38-20.33,4.75-20.84l.36-.51,12.54,14.11v14.71Zm-12.45-27.2c-1.57,2.39-7.69,12.44-4.31,19.29,2.08,4.21,7.38,6.52,15.75,6.87v-13.29l-11.45-12.88Z"></path>
  </g>
  <g>
    <rect x="668.22" y="161.09" width="9" height="13" rx="4.5" ry="4.5" transform="translate(94.81 -215.37) rotate(19.54)" fill="#f2b3c1"></rect>
    <path d="M672.04,174.48c-.55,0-1.12-.09-1.67-.29h0c-1.26-.45-2.27-1.36-2.84-2.56s-.64-2.56-.2-3.82l1.34-3.77c.92-2.6,3.79-3.96,6.38-3.04,2.6,.92,3.96,3.79,3.04,6.38l-1.34,3.77c-.73,2.05-2.66,3.33-4.72,3.33Zm-1.33-1.23c2.08,.73,4.37-.35,5.11-2.43l1.34-3.77c.74-2.08-.35-4.37-2.43-5.11-2.08-.74-4.37,.35-5.11,2.43l-1.34,3.77c-.36,1.01-.3,2.09,.16,3.06,.46,.96,1.27,1.69,2.27,2.05h0Z" fill="#040200"></path>
  </g>
  <g>
    <rect x="627.22" y="163.09" width="9" height="13" rx="4.5" ry="4.5" transform="translate(-17.47 249.46) rotate(-22.04)" fill="#f2b3c1"></rect>
    <path d="M632.47,176.45c-.66,0-1.32-.13-1.95-.4-1.23-.52-2.18-1.49-2.68-2.73l-1.5-3.71c-1.03-2.56,.2-5.48,2.76-6.51,2.55-1.03,5.48,.2,6.51,2.76l1.5,3.71c1.03,2.56-.2,5.48-2.76,6.51h0c-.61,.25-1.24,.37-1.88,.37Zm-1.5-12.71c-.51,0-1.02,.1-1.5,.29-.99,.4-1.77,1.16-2.18,2.15-.42,.98-.43,2.07-.02,3.06l1.5,3.71c.4,.99,1.16,1.77,2.15,2.18,.98,.42,2.07,.43,3.06,.02h0c.99-.4,1.77-1.16,2.18-2.15,.42-.98,.43-2.07,.02-3.06l-1.5-3.71c-.4-.99-1.16-1.77-2.15-2.18-.5-.21-1.03-.32-1.56-.32Z" fill="#040200"></path>
  </g>
  <g>
    <circle cx="651.22" cy="152.09" r="25" fill="#040200"></circle>
    <path d="M651.22,177.59c-14.06,0-25.5-11.44-25.5-25.5s11.44-25.5,25.5-25.5,25.5,11.44,25.5,25.5-11.44,25.5-25.5,25.5Zm0-50c-13.51,0-24.5,10.99-24.5,24.5s10.99,24.5,24.5,24.5,24.5-10.99,24.5-24.5-10.99-24.5-24.5-24.5Z"></path>
  </g>
  <g>
    <rect x="632.22" y="140.09" width="39" height="55" rx="19.5" ry="19.5" fill="#f2b3c1"></rect>
    <path d="M651.72,195.59c-11.03,0-20-8.97-20-20v-16c0-11.03,8.97-20,20-20s20,8.97,20,20v16c0,11.03-8.97,20-20,20Zm0-55c-10.48,0-19,8.52-19,19v16c0,10.48,8.52,19,19,19s19-8.52,19-19v-16c0-10.48-8.52-19-19-19Z" fill="#040200"></path>
  </g>
  <g>
    <path d="M631.22,165.09s2-17,17-17c0,0,7,0,10,8,0,0,5,9,15,8v-17l-8.1-15.34-13.9,1.34h-12l-9,17,1,15Z" fill="#040200"></path>
    <path d="M631.71,165.15l-1-.03-1.01-15.14,.07-.13,9.14-17.27h12.3l14.19-1.37,8.31,15.75v17.58l-.45,.04c-10.21,1.02-15.44-8.16-15.49-8.25-2.87-7.63-9.29-7.74-9.56-7.74-14.37,0-16.42,15.88-16.5,16.56Zm16.5-17.56c.07,0,7.38,.1,10.47,8.32,.02,.02,4.77,8.38,14.03,7.72v-16.42l-7.88-14.94-13.57,1.31h-11.75s-8.79,16.61-8.79,16.61l.76,11.43c1.51-5.08,5.73-14.04,16.73-14.04Z"></path>
  </g>
  <g>
    <path d="M752.22,286.09l-7,16c-2.55,6.06-5.61,10.18-8.59,12.99-9.04,8.52-24.04,4.88-27.88-6.93-.41-1.25-.53-2.06-.53-2.06-2.08-14.56-5.12-19.03-6.79-20.39-.6-.49-1.47-.53-2.09-.06-6.5,4.93,.88,22.45,.88,22.45,4,12-1,14-1,14-2-9-58-9-58-9-20-1-19,4-19,4-2,5-7,6-7,6h-11c2-22-9-27-9-27,2-5,6-3,6-3-2-3,3-9,3-9-4-2,3-9,3-9l2-28c1-13,30-32,30-32,0,0,0,22,12,30,0,0,12-22,26-32,35,4,39,31,39,31,3,13,13,22,13,22l3-7c6,18,20,27,20,27Z" fill="#f4f3ee"></path>
    <path d="M604.22,323.59h-.55l.05-.55c1.94-21.33-8.6-26.45-8.71-26.5l-.43-.2,.18-.44c.71-1.77,1.74-2.93,3.07-3.43,.94-.36,1.85-.31,2.52-.18-.64-2.83,2.12-6.75,3.13-8.07-.53-.4-.85-.93-.96-1.59-.45-2.77,3.42-6.94,4.21-7.76l1.99-27.82c1.01-13.1,29.03-31.6,30.22-32.38l.77-.51v.93c0,.21,.14,21.27,11.33,29.28,1.87-3.3,13.1-22.56,25.88-31.68l.16-.11,.19,.02c34.98,4,39.4,31.15,39.44,31.42,2.54,10.99,10.27,19.18,12.33,21.21l3.23-7.55,.42,1.25c5.87,17.61,19.66,26.65,19.8,26.74l.36,.23-7.17,16.39c-2.29,5.45-5.22,9.88-8.71,13.16-4.42,4.17-10.59,5.75-16.51,4.24-5.8-1.48-10.36-5.74-12.19-11.38-.41-1.27-.54-2.11-.55-2.14-2.06-14.45-5.03-18.79-6.62-20.08-.43-.35-1.04-.37-1.47-.05-6.11,4.64,.97,21.69,1.04,21.86,4.12,12.34-1.05,14.57-1.28,14.66l-.55,.22-.13-.57c-1.57-7.06-42.05-8.61-57.51-8.61-13.1-.66-16.94,1.27-18.06,2.47-.5,.53-.45,.93-.45,.95l.02,.13-.04,.14c-2.08,5.19-7.15,6.26-7.37,6.3h-11.1Zm.54-.99h10.46c-.05,0,4.59-.99,6.49-5.58,0-.29,.06-.87,.63-1.53,1.45-1.68,5.89-3.54,18.9-2.89h.02c5.7,0,53.96,.26,58.21,8.74,1.03-.88,3.3-3.99,.27-13.08-.29-.69-7.44-17.9-.71-23.01,.79-.6,1.93-.57,2.71,.07,1.7,1.39,4.86,5.93,6.97,20.71,0,0,.12,.79,.51,1.98,1.73,5.31,6.02,9.32,11.49,10.72,5.57,1.42,11.4-.07,15.57-4,3.38-3.19,6.23-7.5,8.47-12.82l6.84-15.63c-2.17-1.52-13.79-10.21-19.42-25.8l-2.77,6.46-.52-.47c-.1-.09-10.15-9.26-13.15-22.26-.05-.3-4.37-26.61-38.38-30.59-13.68,9.87-25.58,31.5-25.7,31.72l-.26,.48-.46-.3c-10.82-7.21-12.06-25.15-12.2-29.49-4.56,3.1-28.14,19.67-29.02,31.11l-2.01,28.18-.13,.13c-1.25,1.25-4.4,4.94-4.06,7.03,.08,.52,.39,.9,.93,1.17l.56,.28-.4,.48c-1.32,1.59-4.44,6.2-2.97,8.4l1.03,1.54-1.67-.82s-1.4-.67-2.83-.13c-.95,.37-1.73,1.19-2.31,2.45,2.07,1.19,10.5,7.29,8.9,26.73Z" fill="#070707"></path>
  </g>
  <path d="M619.22,313.59c-.07,0-.14-.01-.2-.04-.25-.11-.37-.41-.25-.66,7.78-17.51,1.15-25.39,1.08-25.47-9.8-14.7-1.66-26.73-1.06-27.58,5.83-12.67,3.96-23.55,3.94-23.66-.05-.27,.13-.53,.4-.58,.27-.05,.53,.13,.58,.4,.02,.11,1.96,11.31-4.04,24.3-.01,.03-.03,.06-.05,.09-.09,.12-8.66,11.91,1.02,26.42,.25,.28,7.08,8.4-.96,26.48-.08,.19-.27,.3-.46,.3Zm0-53.5h0Z"></path>
  <path d="M616.22,303.59c-.1,0-.19-.03-.28-.08l-15-10c-.23-.15-.29-.46-.14-.69,.15-.23,.46-.29,.69-.14l15,10c.23,.15,.29,.46,.14,.69-.1,.14-.25,.22-.42,.22Z"></path>
  <path d="M700.22,285.59c-.15,0-.29-.06-.39-.19-4.52-5.65-12.11-15.29-12.11-16.31,0-.28,.22-.5,.5-.5,.26,0,.47,.2,.5,.45,.35,1.08,7.47,10.21,11.89,15.74,.17,.22,.14,.53-.08,.7-.09,.07-.2,.11-.31,.11Zm-11.5-16.5h0Z"></path>
  <path d="M693.22,259.59s-.02,0-.02,0c-.28-.01-.49-.25-.48-.52,1-21.06,17.28-28.99,17.45-29.07,.25-.12,.55-.01,.67,.24,.12,.25,.01,.55-.24,.67-.16,.08-15.9,7.78-16.88,28.22-.01,.27-.23,.48-.5,.48Z"></path>
  <path d="M712.22,293.59c-.09,0-.18-.02-.27-.08-.23-.15-.3-.46-.16-.69l17-27c.15-.23,.46-.3,.69-.16,.23,.15,.3,.46,.16,.69l-17,27c-.09,.15-.26,.23-.42,.23Z"></path>
  <g>
    <path d="M761.22,226.09s2,5-1,8l-14.76,46.43s-9.24-9.43-13.24-21.43l10-25s-6-10,0-19c0,0,3-6,3-11,0,0,3-1,3,4v4l.03-.02c.58-.27,8.05-3.79,9.97,1.02,0,0,5,3,3,6,0,0,3,3,0,7Z" fill="#f2b3c1"></path>
    <path d="M745.68,281.46l-.58-.59c-.09-.1-9.37-9.65-13.36-21.62l-.06-.17,.07-.17,9.91-24.78c-.84-1.55-5.47-10.9,.14-19.31,0,0,2.92-5.9,2.92-10.72v-.36l.34-.11s1.19-.38,2.21,.35c.96,.69,1.45,2.08,1.45,4.12v3.23c1.68-.7,5.09-1.84,7.56-.86,1.07,.43,1.86,1.2,2.34,2.29,.62,.4,3.02,2.06,3.49,4.14,.17,.75,.07,1.47-.28,2.15,.69,.9,2.38,3.68-.05,7.13,.38,1.11,1.59,5.36-1.12,8.19l-14.98,47.11Zm-12.93-22.36c3.37,9.95,10.43,18.19,12.49,20.45l14.54-45.73,.09-.09c2.73-2.73,.91-7.41,.89-7.46l-.1-.26,.17-.22c2.71-3.61,.16-6.24,.05-6.35l-.29-.29,.23-.34c.36-.54,.47-1.09,.33-1.7-.43-1.93-3.15-3.58-3.17-3.6l-.14-.09-.06-.16c-.37-.92-.97-1.54-1.84-1.89-2-.79-5.15,.06-7.44,1.13l-.78,.51,.02-.94v-4c0-1.67-.35-2.81-1.02-3.3-.35-.25-.72-.29-.99-.28-.15,4.96-2.92,10.56-3.05,10.8-5.79,8.69-.08,18.42-.02,18.52l.13,.21-.09,.23-9.93,24.83Z" fill="#040200"></path>
  </g>
  <g>
    <path d="M748.6,269.88s9.62,14.21,3.62,16.21c0,0-5.52-4.13-6.76-5.57l3.14-10.64Z" fill="#040200"></path>
    <path d="M752.13,286.65l-.21-.16c-.23-.17-5.58-4.18-6.84-5.64l-.18-.21,3.52-11.92,.59,.88c.29,.42,6.98,10.39,5.44,14.93-.34,1-1.04,1.69-2.08,2.03l-.25,.08Zm-6.11-6.25c1.3,1.35,5.3,4.39,6.28,5.13,.6-.26,1-.69,1.21-1.32,1.13-3.34-3.13-10.6-4.73-13.14l-2.76,9.33Z"></path>
  </g>
  <g>
    <path d="M595.22,296.09l-46,1s-9-8-22-5l-11.24,1.73c-1.01,.16-1.76,1.02-1.76,2.05h0c0,1.2,1.02,2.15,2.22,2.07l11.78-.84s-9,10,2,15c0,0,1.92,.96,1.05-1.83-.01-.04,.03-.09,.07-.06,.57,.52,3,2.53,3.88-.11,0,0,1.72-3.45,6.77-.74,.88,.47,1.82,.8,2.81,.9l59.48,5.91s.93-14.07-9.07-20.07Z" fill="#f2b3c1"></path>
    <path d="M604.75,316.71l-60-5.96c-1-.1-2.01-.42-3-.95-1.7-.91-3.17-1.19-4.36-.82-1.22,.38-1.71,1.31-1.73,1.35-.27,.83-.77,1.37-1.45,1.55-.76,.2-1.58-.13-2.22-.53,.02,.53-.11,.92-.4,1.17-.6,.51-1.5,.09-1.6,.04-3.18-1.44-5.07-3.46-5.59-5.99-.75-3.61,1.49-7.23,2.71-8.88l-10.64,.76c-.7,.05-1.41-.2-1.93-.68-.52-.48-.82-1.17-.82-1.88,0-1.28,.92-2.35,2.18-2.54l11.24-1.73c12.14-2.8,20.99,3.95,22.25,4.99l45.96-1,.12,.07c10.14,6.09,9.32,20.39,9.31,20.53l-.03,.52Zm-66.27-8.9c1.13,0,2.38,.37,3.75,1.1,.88,.47,1.76,.75,2.63,.84l58.95,5.86c.04-2.55-.29-13.85-8.72-19.02l-46.05,1-.15-.13c-.09-.08-8.98-7.79-21.56-4.89l-11.28,1.74c-.77,.12-1.33,.77-1.33,1.55,0,.44,.18,.85,.5,1.15,.32,.3,.75,.45,1.18,.42l13.02-.93-.83,.92s-4.11,4.63-3.21,8.92c.46,2.19,2.16,3.97,5.04,5.29,.21,.1,.47,.14,.52,.1,0,0,.19-.24-.15-1.33l-.11-.37,.67-.47,.33,.27c.65,.59,1.65,1.23,2.29,1.06,.33-.09,.6-.41,.78-.96,.05-.12,.71-1.4,2.33-1.91,.44-.14,.92-.21,1.41-.21Z" fill="#040200"></path>
  </g>
  <path d="M536.22,309.59c-.18,0-4.44-.02-6.01-2.04-.55-.71-.72-1.56-.49-2.54,.02-.28,.16-1.29,1.15-2.17,1.44-1.27,3.93-1.69,7.41-1.26,2.09,0,8-.51,9.52-2.78,.15-.23,.46-.29,.69-.14,.23,.15,.29,.46,.14,.69-2.12,3.19-10.08,3.22-10.42,3.22-3.99-.49-5.82,.26-6.65,.99-.82,.71-.84,1.49-.85,1.52,0,.04,0,.08-.01,.12-.17,.69-.08,1.25,.29,1.73,1.05,1.35,4.13,1.65,5.22,1.65,.28,0,.5,.22,.5,.5s-.22,.5-.5,.5Z"></path>
  <g>
    <path d="M594.22,315.09s5,10,10,8l.07-6.93-10.07-1.07Z" fill="#040200"></path>
    <path d="M602.85,323.86c-4.75,0-8.89-8.16-9.08-8.54l-.41-.82,11.43,1.22-.08,7.72-.31,.12c-.52,.21-1.04,.3-1.55,.3Zm-7.74-8.17c1.26,2.22,4.99,8.08,8.61,7.04l.06-6.12-8.67-.92Z"></path>
  </g>
  <path d="M748.22,302.59c-.28,0-.5-.22-.5-.5V123.09c0-.28,.22-.5,.5-.5s.5,.22,.5,.5v179c0,.28-.22,.5-.5,.5Z"></path>
  <g>
    <path d="M761.22,226.09s2,5-1,8c-9,1-8-6-8-6-4,0-3-4-3-4-5,1-4-5-4-5-3-2,3-7,3-7l.03-.02c.58-.27,8.05-3.79,9.97,1.02,0,0,5,3,3,6,0,0,3,3,0,7Z" fill="#f2b3c1"></path>
    <path d="M758.54,234.69c-2.34,0-4.12-.62-5.31-1.84-1.41-1.46-1.57-3.36-1.55-4.28-1.05-.1-1.86-.49-2.39-1.17-.68-.87-.73-2-.67-2.71-1.16,.1-2.11-.18-2.8-.84-1.35-1.31-1.24-3.68-1.14-4.52-.49-.42-.77-.96-.8-1.59-.13-2.49,3.59-5.67,4.02-6.02l.14-.09c1.21-.57,5.36-2.3,8.24-1.16,1.07,.43,1.86,1.2,2.34,2.29,.62,.4,3.02,2.06,3.49,4.14,.17,.75,.07,1.47-.28,2.15,.69,.9,2.38,3.68-.05,7.13,.39,1.12,1.62,5.45-1.21,8.27l-.12,.12-.17,.02c-.61,.07-1.18,.1-1.73,.1Zm-8.65-11.24l-.19,.76s-.38,1.6,.38,2.57c.42,.53,1.14,.81,2.13,.81h.57l-.08,.57s-.31,2.4,1.25,4c1.21,1.25,3.25,1.74,6.02,1.46,2.56-2.75,.79-7.29,.77-7.34l-.1-.26,.17-.22c2.69-3.59,.16-6.24,.05-6.35l-.29-.29,.22-.34c.36-.54,.47-1.09,.33-1.7-.43-1.93-3.15-3.58-3.17-3.6l-.15-.09-.06-.16c-.37-.92-.97-1.54-1.84-1.89-2-.79-5.15,.06-7.44,1.13-.98,.83-3.68,3.47-3.59,5.16,.02,.42,.22,.73,.62,1l.27,.18-.05,.32s-.43,2.74,.82,3.95c.57,.55,1.44,.71,2.59,.48l.77-.15Z" fill="#040200"></path>
  </g>
  <path d="M657.22,516.59c-.16,0-.32-.08-.42-.22-.18-.27-18.07-27.6-16.08-67.3l16-104.05c.04-.27,.3-.46,.57-.42,.27,.04,.46,.3,.42,.57l-16,104c-1.96,39.31,15.74,66.38,15.92,66.65,.15,.23,.09,.54-.14,.69-.08,.06-.18,.08-.28,.08Z"></path>
  <g>
    <polygon points="622.22 654.09 622.22 659.09 683.22 659.09 683.22 649.09 673.22 637.09 631.22 649.09 622.22 654.09" fill="#ece7e1"></polygon>
    <path d="M683.72,659.59h-62v-5.79l9.36-5.19,42.31-12.09,10.32,12.39v10.68Zm-61-1h60v-9.32l-9.68-11.61-41.63,11.89-8.69,4.83v4.21Z"></path>
  </g>
  <g>
    <path d="M651.22,634.09s3.08-12.86,11.04-11.93c0,0,9.04,6.5,18,5.71,0,0,3.96,9.21,2.96,21.21,0,0-9,0-10,6l-51-1s-9-16,29-20Z" fill="#f4f3ee"></path>
    <path d="M673.64,655.6l-51.72-1.01-.14-.25c-.09-.17-2.27-4.13,.1-8.71,3.22-6.24,12.96-10.27,28.94-12,.57-2.12,3.87-12.85,11.5-11.96l.13,.02,.11,.08c.09,.06,9.02,6.38,17.66,5.62l.36-.03,.14,.33c.04,.09,4,9.47,3,21.45l-.04,.46h-.46c-.09,0-8.59,.07-9.51,5.58l-.07,.43Zm-51.11-2l50.28,.99c1.22-5.21,8.07-5.89,9.95-5.98,.75-10.27-2.16-18.48-2.82-20.2-8.49,.56-16.76-4.99-17.85-5.76-7.3-.71-10.34,11.44-10.37,11.56l-.08,.34-.35,.04c-19.7,2.07-26.37,7.39-28.49,11.48-1.81,3.48-.65,6.63-.24,7.53Zm28.68-19.51h0Z" fill="#070707"></path>
  </g>
  <g>
    <g>
      <path d="M188.22,620.09c-5,0-8,5-8,5-4,7-10,3-10,3l-5-3v-8.96c0-2.01-.36-4.01-1.06-5.9l-23.94-64.15c-12,17-23,51-23,51-5-3-11,0-11,0-10,2-6-15-6-15,11-17,12-39,12-39,4-52,16-67,16-67-5-13-9-33-9-33l35-20h26l-2,17-14,36,15.42,116.98c1.05,7.97,3.31,15.73,6.71,23.01l1.87,4.01Z" fill="#f2b3c1"></path>
      <path d="M174.12,629.73c-2.31,0-4.09-1.16-4.18-1.22l-5.22-3.13v-9.24c0-1.96-.35-3.88-1.03-5.72l-23.6-63.25c-11.61,16.99-22.28,49.75-22.39,50.08l-.19,.6-.54-.32c-4.71-2.83-10.46,0-10.52,.02l-.13,.04c-2.26,.45-4.04,.02-5.3-1.28-3.7-3.83-1.38-13.9-1.28-14.32l.07-.16c10.8-16.69,11.91-38.53,11.92-38.75,3.75-48.78,14.37-64.93,15.93-67.06-4.91-12.9-8.88-32.62-8.92-32.82l-.07-.35,35.43-20.24h26.7l-2.1,17.68-13.95,35.88,15.4,116.85c1.04,7.93,3.29,15.62,6.67,22.87l2.2,4.72h-.79c-4.66,0-7.54,4.71-7.57,4.76-1.32,2.32-3.01,3.73-5.02,4.21-.52,.12-1.03,.17-1.51,.17Zm-8.4-4.92l4.76,2.85s2.35,1.53,4.93,.92c1.72-.41,3.19-1.67,4.38-3.74,.13-.21,2.91-4.76,7.67-5.22l-1.56-3.33c-3.42-7.34-5.7-15.13-6.76-23.16l-15.43-117.1,.05-.12,13.98-35.94,1.93-16.38h-25.3l-34.57,19.75c.56,2.73,4.34,20.7,8.9,32.57l.1,.27-.18,.22c-.12,.15-11.96,15.56-15.89,66.73,0,.21-1.13,22.25-12.03,39.16-.21,.96-2.11,10.05,1.05,13.32,1.01,1.04,2.42,1.38,4.32,1.01,.68-.32,6.05-2.74,10.88-.25,1.52-4.56,11.83-34.91,22.88-50.56l.55-.77,24.27,65.04c.73,1.95,1.09,3.99,1.09,6.07v8.67Z" fill="#040200"></path>
    </g>
    <path d="M164.21,476.59c-.25,0-.47-.19-.5-.44l-3.57-31.71c-.03-.27,.17-.52,.44-.55,.26-.03,.52,.17,.55,.44l3.57,31.71c.03,.27-.17,.52-.44,.55-.02,0-.04,0-.06,0Z"></path>
    <path d="M140.22,546.59c-.19,0-.37-.11-.45-.29-.11-.24-11.03-24.44-9.04-52.24,.02-.28,.28-.49,.53-.46,.28,.02,.48,.26,.46,.53-1.97,27.55,8.85,51.52,8.96,51.76,.12,.25,0,.55-.25,.66-.07,.03-.14,.05-.21,.05Z"></path>
    <g>
      <path d="M151.22,203.09c-18-2-36-21-36-21l7.85-7.85c.74-.74,1.16-1.74,1.16-2.78l.16-21.45-3.17-6.92,12,4,14,12v12c0,8,13,17,13,17,4,15-9,15-9,15Z" fill="#f2b3c1"></path>
      <path d="M151.22,203.59h-.06c-17.97-2-36.13-20.96-36.31-21.16l-.33-.35,8.19-8.19c.65-.65,1.01-1.51,1.02-2.43l.16-21.34-3.6-7.87,13.26,4.46,14.17,12.15v12.23c0,7.65,12.66,16.5,12.78,16.59l.15,.1,.05,.18c1.34,5.04,.95,9-1.16,11.75-2.95,3.83-8.1,3.88-8.32,3.88Zm-35.3-21.5c2.56,2.58,19.06,18.67,35.32,20.5,.38,0,4.97-.18,7.51-3.49,1.89-2.46,2.23-6.06,1.03-10.7-1.54-1.09-13.06-9.52-13.06-17.3v-11.77l-13.75-11.79-10.82-3.6,2.74,5.97-.16,21.56c0,1.18-.47,2.29-1.31,3.13l-7.5,7.5Z" fill="#040200"></path>
    </g>
    <g>
      <path d="M163.76,223.09c-2.55,3.83-7.55,5.17-11.84,3.52-29.46-11.33-35.76-39.36-36.59-43.9-.04-.19,.2-.31,.33-.17,2.86,2.89,19.21,18.73,35.56,20.55,0,0,13,0,9-15,8.4,19.95,6.88,29.98,3.54,35Z" fill="#f4f3ee"></path>
      <path d="M155.63,227.8c-1.3,0-2.62-.23-3.89-.72-29.44-11.33-35.91-38.87-36.91-44.27-.06-.3,.09-.6,.36-.75,.27-.14,.6-.09,.82,.13,3.06,3.09,19.15,18.61,35.26,20.4,0,0,4.84-.05,7.48-3.5,1.91-2.49,2.24-6.15,.98-10.88l.94-.32c8.68,20.61,6.69,30.67,3.5,35.47h0c-1.89,2.83-5.14,4.43-8.54,4.43Zm-39.62-44.21c1.49,7.05,8.61,31.98,36.09,42.55,4.17,1.6,8.89,.2,11.24-3.33h0c2.84-4.26,4.64-12.93-1.88-30.25,.14,2.9-.5,5.3-1.92,7.15-2.95,3.83-8.1,3.88-8.32,3.88-15.5-1.72-30.83-15.71-35.21-19.99Zm47.75,39.49h0Z" fill="#070707"></path>
    </g>
    <g>
      <path d="M207.77,302.98c4.09-1.17,6.88-4.99,6.93-9.24,.05-4.3-.96-11.29-6.48-18.65,0,0-7-8-13-35,0,0-12-45-35-52,4,15-9,15-9,15-18-2-36-21-36-21l-25,17s-14,10-17,34c-.12,.99-5,20-8,43-.53,4.09-10,35,21,28l20-5s-30,99-29,135c0,0,8,11,44,11,.8,0,26.18,.65,36.09,.9,2.15,.05,3.91-1.67,3.91-3.82v-1.08s0-4,11-1c0,0,27,3,41-2l-32-137s16.64,4.75,26.55,1.89Zm-113.34-27.96h0c-1.88-1.13-2.72-3.41-2.03-5.48l7.81-23.44c6,12,9,26,9,26l-11.01,3.39c-1.27,.39-2.64,.22-3.78-.46Z" fill="#ece7e1"></path>
      <path d="M157.41,446.49s-.08,0-.11,0c-8.26-.21-35.26-.9-36.08-.9-35.84,0-44.07-10.75-44.4-11.21l-.09-.12v-.16c-.95-33.9,25.85-124.58,28.76-134.32l-19.15,4.79c-8.87,2-15.32,1.1-19.18-2.69-6.46-6.34-3.88-18.78-2.78-24.09,.16-.79,.29-1.41,.34-1.77,2.47-18.93,6.15-34.88,7.53-40.88,.25-1.1,.45-1.96,.47-2.11,2.99-23.94,17.06-34.25,17.21-34.35l25.36-17.25,.29,.31c.18,.19,18.08,18.89,35.69,20.85,0,0,4.84-.05,7.48-3.5,1.91-2.49,2.24-6.15,.98-10.88l-.23-.87,.86,.26c23,7,34.84,50.5,35.34,52.35,5.89,26.52,12.82,34.72,12.89,34.8,5.56,7.41,6.66,14.41,6.6,18.98-.05,4.51-3.05,8.5-7.29,9.71h0c-8.8,2.54-22.51-.75-26.01-1.67l31.91,136.62-.42,.15c-13.95,4.98-40.95,2.06-41.22,2.03-6.58-1.79-8.98-1.02-9.83-.4-.59,.43-.61,.89-.62,.91v1.07c0,1.18-.46,2.28-1.3,3.1-.81,.79-1.87,1.22-3,1.22Zm-79.7-12.59c.99,1.15,10.23,10.68,43.5,10.68,.81,0,25.52,.63,36.1,.9,.93,.03,1.75-.31,2.39-.94,.65-.63,1-1.48,1-2.38v-1.08c0-.09,.03-.95,.97-1.67,1.74-1.33,5.33-1.27,10.66,.18,.19,.02,26.43,2.86,40.28-1.84l-32.09-137.39,.82,.23c.16,.05,16.62,4.68,26.27,1.89h0c3.82-1.09,6.52-4.7,6.57-8.77,.05-4.42-1.01-11.19-6.38-18.34-.27-.3-7.13-8.38-13.09-35.19-.11-.42-11.88-43.67-33.81-51.35,1.07,4.62,.61,8.28-1.38,10.87-2.95,3.83-8.1,3.88-8.32,3.88-16.76-1.86-33.63-18.39-36.07-20.85l-24.65,16.76c-.13,.09-13.85,10.17-16.79,33.65-.02,.19-.16,.78-.49,2.22-1.38,5.99-5.05,21.91-7.51,40.79-.05,.4-.18,1.04-.35,1.85-1.07,5.15-3.57,17.21,2.5,23.17,3.59,3.53,9.73,4.35,18.24,2.43l20.84-5.21-.26,.84c-.3,.99-29.87,99.02-28.98,134.67Zm19.12-157.72c-.93,0-1.85-.25-2.66-.74h0c-2.09-1.26-3.02-3.75-2.25-6.07l8.2-24.59,.54,1.08c5.96,11.92,9.01,25.98,9.04,26.12l.1,.45-11.45,3.52c-.5,.15-1.01,.23-1.52,.23Zm3.47-28.78l-7.43,22.29c-.62,1.87,.12,3.88,1.81,4.9h0c1.01,.61,2.24,.76,3.37,.41l10.57-3.25c-.55-2.4-3.35-13.99-8.32-24.34Z"></path>
    </g>
    <path d="M100.01,247.61c-.06,0-.11,0-.17-.03-.26-.09-.39-.38-.3-.64l6.2-17.01c.09-.26,.38-.39,.64-.3,.26,.09,.39,.38,.3,.64l-6.2,17.01c-.07,.2-.27,.33-.47,.33Z"></path>
    <path d="M115.22,269.59s-.05,0-.07,0c-.27-.04-.46-.29-.43-.56,0-.07,.83-7.11-7.95-23.7-.13-.24-.04-.55,.21-.68,.24-.13,.55-.04,.68,.21,8.97,16.95,8.1,24.01,8.05,24.3-.04,.25-.25,.43-.49,.43Z"></path>
    <path d="M76.22,285.59c-.13,0-.26-.05-.35-.15-.2-.2-.2-.51,0-.71,8.01-8.01,17.4-10.39,17.5-10.41,.27-.07,.54,.1,.6,.37s-.1,.54-.37,.6c-.09,.02-9.23,2.35-17.03,10.15-.1,.1-.23,.15-.35,.15Z"></path>
    <g>
      <path d="M180.22,292.09l-7-7s-18,10-21,1c0,0-8.14,1.78-8.57-5.61l8.3-21.51,10.5-.69s3.77-.18,7.77,6.82l10,4s2,12,0,23Z" fill="#f2b3c1"></path>
      <path d="M180.54,293.12l-7.41-7.41c-2.02,1.08-12.33,6.32-18.05,4.1-1.51-.59-2.58-1.65-3.19-3.15-1.13,.17-4.21,.43-6.42-1.24-1.41-1.07-2.2-2.72-2.32-4.9v-.11s8.44-21.91,8.44-21.91l10.82-.72c.18-.01,4.08-.11,8.15,6.91l10.1,4.04,.05,.28c.02,.12,1.99,12.21,0,23.17l-.17,.94Zm-7.23-8.65l6.58,6.58c1.54-9.6,.15-19.81-.12-21.6l-9.9-3.96-.09-.15c-3.7-6.48-7.17-6.56-7.32-6.56h0l-10.17,.67-8.14,21.11c.13,1.82,.77,3.19,1.92,4.06,2.32,1.77,6,1,6.04,.99l.44-.09,.14,.43c.48,1.44,1.38,2.41,2.75,2.94,5.77,2.25,17.41-4.15,17.53-4.22l.33-.18Z" fill="#040200"></path>
    </g>
    <g>
      <path d="M180.22,292.09s-.73,6.61-3.46,8.5c-.88,.61-2.13,.31-2.69-.6-1-1.6-2.1-5.5-.85-14.88,0-.01,.01-.02,.02,0l6.98,6.98Z" fill="#040200"></path>
      <path d="M175.73,301.41c-.17,0-.33-.02-.5-.05-.66-.14-1.24-.54-1.59-1.1-1.11-1.78-2.17-5.86-.92-15.21l.04-.31,.62-.21,.23,.25,7.13,7.13-.03,.24c-.03,.28-.79,6.86-3.68,8.86-.39,.27-.84,.41-1.31,.41Zm-2.14-15.24c-1.06,8.81,.1,12.27,.9,13.56,.21,.33,.55,.57,.94,.65,.37,.08,.74,0,1.04-.2,2.24-1.55,3.06-6.74,3.22-7.91l-6.1-6.1Z"></path>
    </g>
    <path d="M211.22,286.59c-.21,0-.4-.13-.47-.34-2.88-8.64-13.55-11.65-13.66-11.68l-17.01-5c-.27-.08-.42-.36-.34-.62,.08-.27,.36-.42,.62-.34l17,5c.45,.12,11.28,3.17,14.33,12.32,.09,.26-.05,.55-.32,.63-.05,.02-.11,.03-.16,.03Z"></path>
    <path d="M178.83,269.15c-.26,0-.48-.2-.5-.46-.39-5.51,3.27-13.47,3.43-13.8,7.8-18.54-1.88-35.37-1.98-35.54-.14-.24-.06-.54,.18-.68,.24-.14,.54-.06,.68,.18,.1,.17,10.04,17.44,2.03,36.45-.04,.1-3.72,8.08-3.35,13.33,.02,.28-.19,.51-.46,.53-.01,0-.02,0-.04,0Z"></path>
    <path d="M161.22,441.59s-.01,0-.02,0c-.28,0-.49-.24-.48-.52l4-110c0-.28,.19-.5,.52-.48,.28,0,.49,.24,.48,.52l-4,110c0,.27-.23,.48-.5,.48Z"></path>
    <g>
      <path d="M125,646.94c-.65,1.38-1.78,1.15-1.78,1.15-12,1-22-19-22-19-3.21-4.5-3.95-12.72-4.06-18.02-.09-3.87-.46-7.73-1.17-11.54l-1.77-9.44,6-8s-4,17,6,15c0,0,6-3,11,0,2-1,3,4,3,4l-1,18,4,15c2.62,7.87,2.49,11.33,1.78,12.85Z" fill="#ece7e1"></path>
      <path d="M122.33,648.63c-11.77,0-21.16-18.5-21.56-19.31-3.17-4.44-3.99-12.37-4.11-18.23-.09-3.96-.48-7.82-1.16-11.46l-1.81-9.66,7.57-10.09-.55,2.32c-.02,.1-2.29,9.96,1.03,13.4,1.01,1.04,2.42,1.38,4.32,1.01,.69-.33,6.29-2.85,11.2-.08,.39-.13,.79-.1,1.16,.08,1.52,.75,2.21,4,2.29,4.37v.06s0,.06,0,.06l-1,17.92,3.98,14.92c2.18,6.55,2.77,11,1.75,13.19h0c-.62,1.31-1.7,1.51-2.25,1.44-.29,.02-.58,.03-.86,.03Zm-27.58-58.41l1.73,9.22c.69,3.7,1.08,7.61,1.18,11.62,.1,4.69,.74,13.22,3.97,17.74,.14,.26,10.06,19.74,21.55,18.79h.07s.07,0,.07,0c.08,0,.77,.1,1.23-.87,.63-1.34,.82-4.6-1.8-12.48l-4.03-15.11v-.08s1-17.94,1-17.94c-.25-1.21-.93-3.22-1.74-3.61-.17-.08-.34-.08-.54,.02l-.25,.12-.24-.14c-4.7-2.82-10.46,0-10.52,.02l-.13,.04c-2.26,.45-4.04,.02-5.3-1.28-2.7-2.8-2.2-8.92-1.69-12.19l-4.58,6.1Zm30.25,56.73h0Z"></path>
    </g>
    <g>
      <path d="M125.08,647.09c-5.15,12-17.86-2-17.86-2-11.92-12.72-18.16-32.39-20.22-39.92-.52-1.92-.18-3.98,.92-5.64l6.3-9.44,1.77,9.44c.71,3.81,1.08,7.67,1.17,11.54,.11,5.3,.85,13.52,4.06,18.02,0,0,10,20,22,19,0,0,1.13,.23,1.78-1.15l.08,.15Z" fill="#040200"></path>
      <path d="M118.95,652.45c-5.65,0-11.82-6.72-12.1-7.02-11.93-12.73-18.19-32.3-20.33-40.12-.56-2.06-.2-4.26,.99-6.05l6.98-10.46,2,10.65c.69,3.7,1.08,7.61,1.18,11.62,.1,4.69,.74,13.22,3.97,17.74,.14,.26,10.06,19.74,21.55,18.79h.07s.07,0,.07,0c.08,0,.77,.1,1.23-.87l.42-.9,.66,1.24-.1,.22c-1.27,2.97-3.12,4.68-5.49,5.07-.36,.06-.73,.09-1.1,.09Zm-25-61.06l-5.62,8.42c-1.02,1.55-1.34,3.45-.85,5.23,2.12,7.75,8.32,27.14,20.1,39.71,.07,.08,6.9,7.52,12.3,6.63,1.54-.26,2.83-1.2,3.86-2.8-.21,.04-.39,.04-.54,.02-.29,.02-.58,.03-.86,.03-11.77,0-21.16-18.5-21.56-19.31-3.17-4.44-3.99-12.37-4.11-18.23-.09-3.96-.48-7.82-1.16-11.46l-1.54-8.23Z"></path>
    </g>
    <g>
      <path d="M231.43,646.09h-39.66c-8.11,0-9.92-2-9.92-2-7.21-5-13.52-5-13.52-5h-8.11c0-9,4.51-14,4.51-14l4.51,3s5.41,4,9.01-3c0,0,2.7-5,7.21-5,5.41-3,13.52,12,13.52,12l16.23,7c18.03,0,16.23,7,16.23,7Z" fill="#ece7e1"></path>
      <path d="M231.82,646.59h-40.05c-7.62,0-9.87-1.77-10.23-2.11-6.97-4.82-13.14-4.89-13.2-4.89h-8.61v-.5c0-9.09,4.45-14.12,4.64-14.33l.29-.32,4.87,3.24s2.03,1.46,4.26,.94c1.58-.37,2.94-1.63,4.03-3.75,.12-.22,2.86-5.18,7.53-5.27,.88-.45,1.85-.52,2.91-.21,4.93,1.44,10.33,10.94,11.09,12.32l15.97,6.89c10.23,.02,14.18,2.33,15.68,4.27,1.33,1.71,.94,3.29,.92,3.36l-.1,.38Zm-71.1-8h7.61c.26,0,6.55,.06,13.81,5.09l.09,.08s1.88,1.83,9.54,1.83h39.22c0-.46-.11-1.27-.81-2.15-1.39-1.76-5.11-3.85-14.97-3.85l-.2-.04-16.39-7.07-.08-.15c-.06-.11-5.77-10.58-10.58-11.99-.85-.25-1.59-.19-2.26,.19l-.11,.06h-.13c-4.16,0-6.75,4.69-6.77,4.74-1.23,2.38-2.81,3.82-4.69,4.26-2.69,.63-4.96-1.02-5.06-1.09l-4.11-2.73c-.93,1.22-3.97,5.71-4.1,12.83Z"></path>
    </g>
    <g>
      <path d="M231.43,646.09v1.03c0,1.64-1.2,2.97-2.68,2.97h-65.22c-1.83,0-3.32-1.65-3.32-3.68v-7.32h8.11s6.31,0,13.52,5c0,0,1.8,2,9.92,2h39.66Z" fill="#040200"></path>
      <path d="M228.75,650.59h-65.22c-2.11,0-3.82-1.88-3.82-4.18v-7.82h8.61c.26,0,6.55,.06,13.81,5.09l.09,.08s1.88,1.83,9.54,1.83h40.16v1.53c0,1.91-1.42,3.47-3.18,3.47Zm-68.04-11v6.82c0,1.76,1.27,3.18,2.82,3.18h65.22c1.2,0,2.18-1.11,2.18-2.47v-.53h-39.16c-7.62,0-9.87-1.77-10.23-2.11-6.97-4.82-13.14-4.89-13.2-4.89h-7.61Z"></path>
    </g>
    <path d="M152.48,279.56c-.08,0-.16-.02-.23-.06-.25-.13-.34-.43-.21-.67L232.04,123.83c.13-.25,.43-.34,.67-.21,.25,.13,.34,.43,.21,.67l-80,155c-.09,.17-.26,.27-.44,.27Z"></path>
    <g>
      <rect x="124.49" y="114.83" width="34.9" height="48.53" rx="17.45" ry="17.45" transform="translate(-35.71 50.02) rotate(-17.79)" fill="#f2b3c1"></rect>
      <path d="M144,163.54c-2.82,0-5.61-.67-8.19-2-4.26-2.19-7.42-5.91-8.88-10.48l-4.16-12.98c-3.02-9.43,2.18-19.55,11.61-22.58,4.57-1.46,9.43-1.06,13.69,1.13,4.26,2.19,7.42,5.91,8.88,10.48l4.16,12.98c1.46,4.57,1.06,9.43-1.13,13.69-2.19,4.26-5.92,7.42-10.48,8.88h0c-1.81,.58-3.66,.87-5.5,.87Zm-4.13-47.9c-1.74,0-3.49,.27-5.2,.82-8.9,2.86-13.82,12.42-10.96,21.32l4.16,12.98c1.38,4.31,4.36,7.83,8.39,9.9,4.03,2.07,8.62,2.45,12.93,1.07,4.31-1.38,7.83-4.36,9.9-8.39s2.45-8.62,1.06-12.93l-4.16-12.98c-1.38-4.31-4.36-7.83-8.39-9.9-2.43-1.25-5.07-1.88-7.73-1.88Z" fill="#040200"></path>
    </g>
    <g>
      <path d="M122.6,162.38c-3.93-2.63-12.61-9.72-13.38-21.29,0,0-8,4-10-5,0,0-6,2-9-3,0,0-3-4,1-9,0,0-10,0-8-10,0,0,0-5,7-6,0,0-6-7,2-11,0,0,2-8,10-5,0,0-3-6,3-10,0,0,9-5,13,4,0,0,4-5,11-1,0,0,3,2,2,6,0,0,4-2,9,2,0,0,4,3,1,8,0,0,20.95,5.67,14.98,25.33,0,0-2.23-6.59-8.6-9.46,0,0-7.38,8.13-22.38,13.13l-.89,11.15,.06,8.77,.11,11.35c0,.98-1.08,1.56-1.89,1.02Z" fill="#040200"></path>
      <path d="M123.28,163.09c-.33,0-.67-.1-.96-.29h0c-3.75-2.52-12.46-9.53-13.55-20.98-1.21,.46-3.83,1.19-6.2,.06-1.8-.86-3.05-2.6-3.72-5.18-1.6,.36-6.43,1.03-9.06-3.36,0,0-2.86-3.92,.48-8.82-1.49-.17-4.38-.79-6.21-3.02-1.51-1.85-1.96-4.37-1.34-7.51h0s.1-4.94,6.6-6.26c-.8-1.16-2.18-3.62-1.65-6.21,.39-1.95,1.78-3.56,4.12-4.78,.25-.83,1.29-3.69,3.94-5.08,1.62-.85,3.52-.98,5.66-.37-.6-1.98-1.23-6.43,3.55-9.62,.21-.12,4.39-2.4,8.46-1.04,2.1,.7,3.77,2.25,4.97,4.6,1.37-1.24,5.29-3.9,11.1-.58,.06,.04,2.87,1.96,2.4,5.68,1.51-.4,4.8-.72,8.66,2.37,.03,.02,4.01,3.09,1.43,8.09,2.23,.72,9.88,3.62,13.68,10.49,2.43,4.39,2.78,9.54,1.03,15.29l-.45,1.49-.5-1.47c-.02-.06-2.16-6.2-8.01-9.02-1.43,1.45-8.79,8.41-22.02,12.89l-.87,10.82,.17,20.08c0,.64-.34,1.22-.9,1.53-.26,.14-.54,.21-.81,.21Zm-.4-1.12c.23,.15,.5,.17,.74,.04,.24-.13,.38-.37,.38-.64l-.17-20.13,.92-11.52,.31-.1c14.69-4.9,22.09-12.91,22.16-12.99l.24-.27,.33,.15c4.78,2.15,7.27,6.26,8.3,8.4,1.22-4.93,.77-9.34-1.33-13.14-4.18-7.55-13.58-10.17-13.68-10.2l-.64-.17,.34-.57c2.74-4.56-.72-7.23-.87-7.34-4.68-3.75-8.33-2.03-8.48-1.95l-.97,.47,.26-1.04c.9-3.59-1.68-5.39-1.79-5.46-6.5-3.71-10.18,.71-10.33,.9l-.51,.64-.33-.75c-1.09-2.45-2.66-4.03-4.67-4.71-3.65-1.22-7.59,.92-7.63,.94-5.51,3.68-2.91,9.11-2.79,9.34l.56,1.13-1.19-.44c-2.26-.85-4.23-.85-5.84-.01-2.64,1.38-3.49,4.63-3.5,4.67l-.06,.22-.21,.1c-2.17,1.09-3.45,2.49-3.79,4.18-.61,3.01,1.92,6.02,1.94,6.05l.59,.69-.9,.13c-6.46,.92-6.57,5.32-6.57,5.51-.58,2.92-.2,5.17,1.12,6.77,2.2,2.69,6.34,2.73,6.39,2.73h1.04s-.65,.81-.65,.81c-3.7,4.62-1.1,8.24-.99,8.39,2.79,4.65,8.38,2.84,8.44,2.82l.53-.18,.12,.54c.57,2.54,1.67,4.22,3.3,5,2.69,1.28,5.96-.32,5.99-.34l.67-.34,.05,.75c.76,11.42,9.46,18.43,13.16,20.91h0Z"></path>
    </g>
    <g>
      <rect x="116.22" y="138.09" width="9" height="13" rx="4.5" ry="4.5" transform="translate(-40.45 47.1) rotate(-18.97)" fill="#f2b3c1"></rect>
      <path d="M121.37,151.48c-2.08,0-4.02-1.3-4.73-3.37l-1.3-3.78c-.43-1.26-.35-2.62,.24-3.82,.59-1.2,1.6-2.1,2.87-2.53,1.26-.43,2.62-.35,3.82,.23,1.2,.59,2.1,1.6,2.53,2.87l1.3,3.78c.43,1.26,.35,2.62-.24,3.82-.59,1.2-1.6,2.1-2.87,2.53h0c-.54,.18-1.08,.27-1.62,.27Zm-1.31-12.78c-.43,0-.87,.07-1.3,.22-1.01,.35-1.82,1.07-2.29,2.03-.47,.96-.54,2.05-.19,3.06l1.3,3.78c.72,2.08,2.99,3.2,5.08,2.48h0c1.01-.35,1.83-1.07,2.29-2.03s.54-2.05,.19-3.06l-1.3-3.78c-.57-1.66-2.12-2.7-3.79-2.7Z" fill="#040200"></path>
    </g>
    <path d="M107.98,299.06c-.19,0-.37-.11-.46-.29-.11-.25,0-.55,.25-.66l22-10c.25-.11,.55,0,.66,.25,.11,.25,0,.55-.25,.66l-22,10c-.07,.03-.14,.04-.21,.04Z"></path>
    <path d="M109.22,272.59c-.2,0-.38-.12-.46-.31-.1-.26,.02-.55,.27-.65l15.26-6.25c.25-.1,.55,.02,.65,.27,.1,.26-.02,.55-.27,.65l-15.26,6.25c-.06,.03-.13,.04-.19,.04Z"></path>
    <g>
      <path d="M124.48,265.84l6,22,11.74-7.75s17,3,18-4c0,0,5-3,3-8,0,0,3.15-2.52,2.95-6.57-.1-1.92-1.8-3.37-3.72-3.25l-12.23,.82s-3-1,0-4c0,0,3.94-3.28,4.37-7.19,.13-1.2-1.23-2-2.19-1.26-1.73,1.34-4.6,3.25-8.18,4.45,0,0-9,3-12,12l-7.74,2.75Z" fill="#f2b3c1"></path>
      <path d="M130.18,288.64l-6.3-23.11,7.95-2.82c3.12-8.95,11.86-11.96,12.24-12.08,3.49-1.16,6.3-3.02,8.04-4.37,.6-.46,1.38-.52,2.03-.15,.67,.38,1.04,1.09,.96,1.86-.45,4.06-4.38,7.38-4.55,7.52-.86,.86-1.26,1.64-1.13,2.21,.12,.52,.68,.81,.89,.9l12.11-.81c1.07-.07,2.14,.3,2.95,1.01,.79,.7,1.26,1.67,1.31,2.71,.18,3.57-2.06,5.99-2.86,6.74,1.58,4.54-2.2,7.5-3.13,8.15-.22,1.16-.86,2.12-1.9,2.88-4.4,3.19-14.83,1.62-16.45,1.35l-12.15,8.02Zm-5.09-22.48l5.7,20.89,11.33-7.48,.2,.03c.12,.02,11.56,1.99,15.88-1.15,.89-.65,1.39-1.44,1.53-2.43l.03-.23,.2-.12c.19-.11,4.61-2.85,2.79-7.39l-.14-.34,.29-.23s2.95-2.42,2.76-6.15c-.04-.77-.39-1.49-.97-2.01-.6-.54-1.39-.81-2.22-.76l-12.32,.82-.09-.03c-.05-.02-1.34-.46-1.62-1.65-.22-.94,.26-2.01,1.43-3.18,.07-.06,3.82-3.23,4.23-6.89,.05-.43-.2-.74-.45-.88-.31-.17-.66-.15-.93,.07-1.8,1.4-4.71,3.32-8.33,4.52-.09,.03-8.8,3.04-11.68,11.68l-.08,.23-7.53,2.67Z" fill="#040200"></path>
    </g>
    <path d="M163.22,268.59s-.03,0-.04,0l-12-1c-.27-.02-.48-.26-.46-.54,.02-.28,.28-.48,.54-.46l12,1c.27,.02,.48,.26,.46,.54-.02,.26-.24,.46-.5,.46Z"></path>
    <path d="M160.22,276.59s-.03,0-.05,0l-10-1c-.27-.03-.48-.27-.45-.55,.03-.27,.28-.47,.55-.45l10,1c.27,.03,.48,.27,.45,.55-.03,.26-.24,.45-.5,.45Z"></path>
  </g>
  <g>
    <g>
      <path d="M472.3,597.93l-6.43,15.49c-1.75-4.68-5.84-3.8-5.84-3.8l-7.01,2.34c-6.32,2.59-4.17,9.13-4.09,9.35h0s-10.25,10.69-10.25,10.69l.21-30.99-1.65-1.9,17.83-20.75,4.68,.29c2.92,4.97,12.57,19.29,12.57,19.29Z" fill="#f2b3c1"></path>
      <path d="M438.17,633.24l.22-32.06-1.81-2.08,18.27-21.26,5.19,.32,.13,.23c2.88,4.9,12.45,19.12,12.55,19.26l.15,.22-7.02,16.9-.44-1.19c-1.58-4.2-5.12-3.52-5.27-3.48l-6.96,2.32c-5.87,2.4-3.87,8.45-3.78,8.71l.16,.31-.27,.2-11.12,11.59Zm-.27-34.15l1.49,1.72-.2,29.92,9.18-9.57c-.77-2.66-.7-7.56,4.46-9.68l7.04-2.35c.09-.02,3.91-.79,5.98,3.02l5.89-14.18c-1.22-1.81-9.46-14.1-12.3-18.86l-4.16-.26-17.38,20.23Z" fill="#040200"></path>
    </g>
    <g>
      <path d="M472.88,515.81s8.47,42.66-13.15,62.83l-20.75,22.21-.29,37.11s-11.4,11.69-45.59,14.32c0,0-41.79,9.06-31.85-21.92,0,0-43.54,30.1-59.32,14.32,0,0-16.66-11.4,3.8-56.69l48.51-73.35s59.54,16.5,118.64,1.17Z" fill="#ece7e1"></path>
      <path d="M380.71,654.04c-6.52,0-14-1.18-18.21-5.83-3.46-3.81-4.17-9.41-2.13-16.65-7.21,4.78-44.17,28.09-58.79,13.47-.62-.42-16.7-12.09,3.7-57.25l48.75-73.72,.35,.1c.59,.16,60.09,16.29,118.38,1.17l.51-.13,.1,.52c.09,.43,8.28,43.17-13.3,63.29l-20.59,22.04-.29,37.12-.14,.14c-.47,.48-11.92,11.85-45.91,14.47-.42,.09-5.95,1.26-12.43,1.26Zm-18.53-24.92l-.45,1.4c-2.42,7.53-1.91,13.26,1.51,17.02,8.02,8.84,29.55,4.3,29.76,4.25,31.65-2.44,43.78-12.75,45.19-14.05l.29-37.09,20.88-22.35c19.91-18.57,13.98-56.94,13.12-61.87-56.04,14.36-113.01,.1-118.03-1.21l-48.31,73.05c-19.96,44.22-4.09,55.89-3.93,56,15.38,15.36,58.32-14.02,58.75-14.32l1.21-.84Z"></path>
    </g>
    <g>
      <path d="M457.09,343.21l2.35,13.93,9.35,6.14-14.9,11.98s-4.68,4.38-12.86,1.17l-9.35-19.58-1.17-8.18,18.12-10.23,7.89,2.34,.58,2.43Z" fill="#f2b3c1"></path>
      <path d="M446.87,378.12c-1.73,0-3.74-.33-6.02-1.22l-.18-.07-9.48-19.9-1.22-8.52,18.6-10.5,8.37,2.48,.65,2.75,2.31,13.72,9.74,6.39-15.44,12.41c-.12,.12-2.7,2.47-7.33,2.47Zm-5.48-2.08c7.65,2.92,11.97-.97,12.15-1.14l14.4-11.57-8.96-5.88-2.38-14.13-.5-2.14-7.41-2.2-17.64,9.96,1.11,7.77,9.23,19.33Z" fill="#040200"></path>
    </g>
    <g>
      <rect x="416.7" y="288.59" width="42.99" height="68.21" rx="21.49" ry="21.49" transform="translate(220.06 -175.86) rotate(30)" fill="#f2b3c1"></rect>
      <path d="M431.85,355.63c-3.81,0-7.57-1-10.96-2.96h0c-10.5-6.06-14.11-19.54-8.05-30.04l12.61-21.85c2.94-5.09,7.68-8.73,13.35-10.25,5.67-1.52,11.6-.74,16.69,2.2s8.73,7.68,10.25,13.35c1.52,5.67,.74,11.6-2.2,16.69l-12.61,21.85c-2.94,5.09-7.68,8.73-13.35,10.25-1.89,.51-3.82,.76-5.73,.76Zm-10.46-3.82c4.86,2.8,10.51,3.55,15.93,2.1,5.42-1.45,9.94-4.93,12.75-9.78l12.61-21.85c2.8-4.86,3.55-10.51,2.1-15.93-1.45-5.42-4.92-9.94-9.78-12.75-4.86-2.8-10.51-3.55-15.93-2.1-5.42,1.45-9.94,4.93-12.75,9.78l-12.61,21.85c-2.8,4.86-3.55,10.51-2.1,15.93,1.45,5.42,4.92,9.94,9.78,12.75h0Z" fill="#040200"></path>
    </g>
    <g>
      <path d="M423.21,305.42s-7.6-32.73,13.15-20.75c0,0,7.89-24.25,24.55,1.75,0,0,10.52-9.35,14.9,16.95,0,0,11.4,1.46,3.51,14.9,0,0,12.27,13.44-18.12,28.64h-5.26l-8.18-6.43,7.01-8.77,1.75-11.98s0-4.09-4.09-5.55c0,0-3.51-1.75-2.63-4.09,0,0,2.92-11.98-10.81-11.69,0,0-4.97-8.47-12.57,2.92l-3.21,4.09Z" fill="#040200"></path>
      <path d="M461.31,347.41h-5.55l-8.71-6.85,7.24-9.05,1.73-11.85c0-.08-.07-3.69-3.76-5.01-.21-.1-3.95-2.01-2.93-4.74h0s1.09-4.7-1.5-7.92c-1.72-2.14-4.72-3.18-8.84-3.1h-.29s-.15-.25-.15-.25c-.02-.03-1.63-2.71-4.29-2.78-2.38-.08-4.85,1.86-7.43,5.73l-3.88,4.94-.24-1.02c-.17-.74-4.13-18.16,2.2-22.85,2.52-1.87,6.28-1.45,11.16,1.26,.8-2.11,3.89-9.26,9.6-9.99,4.71-.6,9.87,3.35,15.34,11.74,.97-.68,3.35-2.02,6.11-1.05,4.22,1.49,7.28,7.65,9.1,18.29,1.08,.22,4.24,1.09,5.66,3.99,1.37,2.8,.71,6.6-1.98,11.29,.77,.98,3.05,4.4,2.13,9.31-1.29,6.95-8.23,13.62-20.63,19.82l-.11,.05Zm-5.21-1h4.97c11.86-5.95,18.77-12.53,19.99-19.04,.99-5.26-2.09-8.73-2.12-8.77l-.25-.27,.18-.32c2.65-4.52,3.37-8.1,2.13-10.64-1.46-2.98-5.23-3.51-5.27-3.51l-.37-.05-.06-.37c-2.17-13.04-5.82-16.91-8.5-17.86-2.97-1.05-5.55,1.18-5.58,1.2l-.44,.39-.32-.49c-5.35-8.36-10.28-12.31-14.67-11.75-5.95,.76-8.95,9.79-8.98,9.88l-.19,.59-.53-.31c-4.76-2.75-8.33-3.3-10.59-1.62-4.98,3.69-2.79,16.95-2.04,20.78l2.55-3.25c2.76-4.14,5.58-6.22,8.28-6.14,2.71,.08,4.43,2.27,4.95,3.02,4.33-.03,7.47,1.13,9.36,3.48,2.9,3.61,1.72,8.62,1.67,8.83-.73,1.94,2.34,3.51,2.37,3.53,4.32,1.54,4.37,5.95,4.37,6l-1.78,12.19-6.78,8.48,7.65,6.01Z"></path>
    </g>
    <path d="M468.79,363.87l-9.8-6.43-1.35-7.93h.58c3.63-.09,21.63-.28,23.27,3.25,.11,.12,.21,.31,.22,.55,.08,1.65-4.18,5.15-12.65,10.4l-.27,.17Zm-8.89-7.03l8.9,5.84c10.77-6.71,11.8-8.85,11.89-9.26l-.04-.02-.07-.2c-.75-2.25-13.52-2.85-21.77-2.72l1.08,6.36Zm20.81-3.5h0Z" fill="#ed1c24"></path>
    <g>
      <path d="M457.7,346.91s19.43-1.04,27.08,3.25c1.18,.66,2.01,1.81,2.17,3.15,.15,1.27-.06,3.09-1.28,5.53-.31,.62-.4,1.32-.25,2,.44,1.99,1.36,6.67,1.79,12.97,0,0,14.03,5.26,9.35,33.02l-7.6,46.17s-3.8,13.44-20.46,18.41l5.53,15.44c1.29,3.6,2.05,7.38,2.21,11.2,.21,5.3-.23,12.51-3.35,17.78,0,0-46.75,14.61-92.34,3.51l34.48-28.64s10.52-8.47,14.03-15.49c0,0,7.01,11.1,15.49-1.17l6.14-11.1-30.1-21.04s17.83-10.52,26.01-27.18c0,0,1.17-3.21-1.46-4.38,0,0,2.05-.88,1.75-2.05l1.75-3.21s2.63-1.17,1.17-2.63c0,0,2.05-2.63,.29-5.26,0,0-2.63-2.92-4.97-2.34,0,0-1.46-1.46-3.8-1.17l-1.46-10.52s2.05-2.34,.58-4.09l.58-2.63s6.72,3.51,12.86-1.17l14.9-11.98-9.35-6.14-1.75-10.23Z" fill="#463f3a"></path>
      <path d="M417.29,523.95c-11.74,0-24.37-1.1-36.87-4.15l-.97-.24,35.25-29.27c.11-.09,10.48-8.49,13.9-15.33l.4-.79,.47,.75s2.77,4.3,6.71,4.37c2.71,.04,5.36-1.82,7.94-5.56l5.89-10.67-30.37-21.23,.67-.4c.18-.1,17.79-10.64,25.81-26.97,.02-.06,.95-2.74-1.21-3.71l-1.04-.46,1.05-.45c.54-.23,1.61-.9,1.47-1.46l-.05-.19,1.93-3.53,.15-.07c.46-.21,1.22-.71,1.31-1.19,.01-.07,.05-.29-.29-.63l-.31-.31,.27-.35c.07-.1,1.8-2.39,.27-4.68h0s-2.43-2.63-4.43-2.13l-.27,.07-.2-.2c-.05-.05-1.32-1.28-3.38-1.03l-.49,.06-1.56-11.23,.15-.17s1.75-2.04,.58-3.44l-.16-.19,.78-3.5,.58,.3c.06,.03,6.52,3.3,12.32-1.12l14.36-11.54-8.96-5.88-1.88-11,.56-.03c.8-.04,19.66-.99,27.35,3.31,1.35,.75,2.25,2.07,2.42,3.53,.2,1.7-.25,3.65-1.33,5.81-.26,.52-.33,1.11-.21,1.67,.48,2.16,1.35,6.67,1.78,12.73,2.11,.96,13.73,7.53,9.37,33.44l-7.6,46.17c-.05,.19-4,13.54-20.3,18.65l5.35,14.95c1.33,3.71,2.08,7.52,2.23,11.35,.21,5.25-.21,12.64-3.42,18.05l-.1,.16-.18,.06c-.34,.11-25.01,7.66-55.74,7.66Zm-35.66-4.89c43.2,10.17,87.7-2.71,90.92-3.67,3-5.19,3.39-12.28,3.18-17.34-.15-3.72-.88-7.44-2.18-11.05l-5.71-15.94,.51-.15c16.18-4.83,20.08-17.94,20.12-18.07l7.59-46.11c4.54-26.97-8.9-32.42-9.04-32.47l-.3-.11-.02-.32c-.44-6.39-1.39-11.14-1.78-12.89-.17-.78-.07-1.61,.29-2.33,.99-1.98,1.4-3.74,1.23-5.25-.13-1.14-.84-2.17-1.91-2.77-6.72-3.76-23.01-3.34-26.25-3.21l1.61,9.46,9.74,6.39-15.44,12.41c-5.27,4.01-11,2.22-12.82,1.48l-.4,1.81c1.21,1.73-.13,3.74-.6,4.35l1.37,9.84c1.8-.06,3.04,.78,3.51,1.17,2.51-.4,5.08,2.42,5.2,2.54,1.58,2.36,.48,4.7-.04,5.56,.33,.47,.35,.91,.29,1.21-.18,.97-1.29,1.62-1.72,1.84l-1.59,2.92c.09,.89-.65,1.57-1.28,1.98,1.56,1.25,1.33,3.43,.93,4.53-7.28,14.83-22.26,24.93-25.57,27.03l29.85,20.86-6.35,11.5c-2.81,4.08-5.75,6.1-8.82,6.03-3.48-.07-6.03-2.84-7.04-4.16-3.82,6.86-13.36,14.59-13.78,14.93l-33.71,27.99Z"></path>
    </g>
    <path d="M446.29,388.61c-.23,0-.44-.16-.49-.4-.05-.27,.12-.53,.39-.59,.09-.02,8.75-1.86,18.73-12.13,.55-.5,13.06-11.83,18.42-12.42,.27-.03,.52,.17,.55,.44,.03,.27-.17,.52-.44,.55-5.04,.56-17.71,12.03-17.84,12.15-10.2,10.49-18.87,12.32-19.23,12.39-.03,0-.07,0-.1,0Z"></path>
    <path d="M487.2,374.3s-.02,0-.03,0l-18.58-.96c-.28-.01-.49-.25-.47-.53,.01-.27,.2-.49,.52-.47l18.58,.96c.28,.01,.49,.25,.47,.53-.01,.27-.23,.47-.5,.47Z"></path>
    <path d="M480.19,428.65c-.08,0-.16-.02-.24-.06l-30.98-16.66c-.24-.13-.33-.43-.2-.68,.13-.24,.44-.33,.68-.2l30.98,16.66c.24,.13,.33,.43,.2,.68-.09,.17-.26,.26-.44,.26Z"></path>
    <path d="M453.56,414.28c-.1,0-.2-.03-.29-.09-.23-.16-.28-.47-.12-.7l16.4-23.33c.16-.23,.47-.28,.7-.12,.23,.16,.28,.47,.12,.7l-16.4,23.33c-.1,.14-.25,.21-.41,.21Z"></path>
    <g>
      <path d="M454.99,414.55s13.22-13.58,19.35-7.44c0,0,5.26,1.17,2.92,8.77,0,0-1.54,4.26-5.74,7.54l-16.54-8.86Z" fill="#f4f3ee"></path>
      <path d="M471.58,424l-17.41-9.33,.46-.48c.36-.37,8.97-9.14,15.67-9.18,1.65-.01,3.15,.54,4.3,1.64,.48,.14,1.99,.71,2.95,2.36,1.02,1.75,1.08,4.11,.19,7-.07,.2-1.65,4.45-5.91,7.78l-.26,.2Zm-15.75-9.58l15.65,8.38c3.83-3.12,5.31-7.07,5.32-7.11,.8-2.59,.76-4.68-.11-6.18-.91-1.57-2.44-1.92-2.45-1.93l-.14-.03-.1-.1c-.98-.98-2.2-1.45-3.68-1.45-5.43,.04-12.59,6.58-14.49,8.41Z" fill="#070707"></path>
    </g>
    <g>
      <path d="M461.78,418.21s2.05-3.21,4.68-2.63c0,0,1.58-1.58,3.65-1.61,1.33-.02,2.35,1.12,2.18,2.44-.07,.52-.23,1.12-.57,1.8,0,0,2.25,2.5-.19,5.2l-9.75-5.2Z" fill="#040200"></path>
      <path d="M471.64,424.03l-10.57-5.63,.29-.46c.09-.14,2.14-3.3,4.94-2.9,.51-.45,1.97-1.55,3.8-1.57h.04c.76,0,1.49,.32,1.99,.89,.51,.57,.75,1.35,.65,2.12-.07,.54-.23,1.1-.48,1.66,.82,1.12,1.59,3.4-.4,5.6l-.26,.29Zm-9.11-5.99l8.88,4.74c1.7-2.2,.01-4.15-.06-4.23l-.22-.25,.15-.3c.28-.56,.46-1.11,.52-1.64,.06-.49-.08-.96-.4-1.33s-.78-.57-1.27-.55c-1.84,.03-3.29,1.45-3.31,1.46l-.19,.19-.27-.06c-1.7-.38-3.19,1.18-3.82,1.97Z"></path>
    </g>
    <g>
      <ellipse cx="467.48" cy="411.64" rx="1.61" ry="2.19" fill="#040200"></ellipse>
      <path d="M467.48,414.33c-1.16,0-2.11-1.21-2.11-2.69s.95-2.69,2.11-2.69,2.11,1.21,2.11,2.69-.95,2.69-2.11,2.69Zm0-4.38c-.6,0-1.11,.77-1.11,1.69s.51,1.69,1.11,1.69,1.11-.77,1.11-1.69-.51-1.69-1.11-1.69Z"></path>
    </g>
    <g>
      <ellipse cx="472.15" cy="410.47" rx="2.19" ry="1.61" transform="translate(-98.97 665.88) rotate(-65.1)" fill="#040200"></ellipse>
      <path d="M471.75,413.07c-.25,0-.5-.05-.73-.16-.53-.25-.91-.76-1.04-1.42-.12-.61-.03-1.29,.26-1.91,.62-1.35,1.99-2.04,3.04-1.55,1.05,.49,1.4,1.98,.78,3.33h0c-.29,.63-.75,1.14-1.29,1.44-.33,.18-.69,.28-1.02,.28Zm.81-4.2c-.5,0-1.09,.45-1.41,1.13-.2,.43-.27,.9-.19,1.29,.04,.2,.16,.55,.48,.71,.33,.15,.67,0,.85-.09,.35-.19,.67-.55,.87-.98h0c.39-.83,.25-1.75-.29-2-.1-.05-.2-.07-.31-.07Z"></path>
    </g>
    <g>
      <ellipse cx="475.66" cy="413.68" rx="2.19" ry="1.61" transform="translate(-19.3 23.3) rotate(-2.75)" fill="#040200"></ellipse>
      <path d="M475.59,415.79c-1.43,0-2.56-.85-2.61-1.98-.03-.58,.25-1.16,.77-1.58,.48-.39,1.13-.62,1.82-.66,.7-.03,1.35,.14,1.87,.48,.56,.37,.89,.91,.92,1.5,.03,.58-.25,1.16-.77,1.58-.48,.39-1.13,.62-1.82,.66-.06,0-.12,0-.18,0Zm.14-3.22s-.08,0-.12,0c-.47,.02-.92,.18-1.24,.43-.16,.13-.42,.4-.4,.75,.03,.6,.84,1.07,1.74,1.02,.47-.02,.92-.18,1.23-.43,.16-.13,.42-.4,.4-.75-.02-.36-.3-.6-.47-.71-.31-.2-.72-.32-1.15-.32Z"></path>
    </g>
    <g>
      <ellipse cx="474.78" cy="418.07" rx="2.19" ry="1.61" transform="translate(-19.51 23.26) rotate(-2.75)" fill="#040200"></ellipse>
      <path d="M474.72,420.18c-1.41,0-2.57-.86-2.62-1.98-.06-1.18,1.08-2.16,2.59-2.23,1.54-.07,2.73,.8,2.79,1.98,.06,1.18-1.08,2.16-2.59,2.23-.06,0-.11,0-.17,0Zm.13-3.22s-.08,0-.12,0c-.92,.04-1.67,.59-1.64,1.19,.03,.6,.83,1.07,1.74,1.02,.92-.04,1.67-.59,1.64-1.19-.03-.57-.76-1.03-1.62-1.03Z"></path>
    </g>
    <path d="M469.13,471.87s-.01,0-.02,0c-9.34-.32-17.5-5.68-17.84-5.9-.23-.15-.29-.46-.14-.69,.15-.23,.46-.29,.69-.14,.08,.05,8.27,5.43,17.32,5.74,.28,0,.49,.24,.48,.52,0,.27-.23,.48-.5,.48Z"></path>
    <g>
      <path d="M419.7,495.65s7.01,2.92,22.5-2.92c0,0,10.81-4.38,19.29,.58,0,0,7.01,3.51,9.35-1.17" fill="#463f3a"></path>
      <path d="M425.14,496.89c-3.67,0-5.49-.72-5.63-.78-.25-.11-.37-.4-.27-.65,.1-.25,.4-.37,.65-.27,.07,.03,7.07,2.76,22.13-2.93,.44-.18,11.13-4.41,19.72,.62,.04,.02,6.57,3.21,8.65-.96,.12-.25,.42-.34,.67-.22,.25,.12,.35,.42,.22,.67-1.06,2.12-3.17,3.02-6.07,2.61-2.1-.3-3.88-1.18-3.95-1.22-8.19-4.8-18.77-.61-18.88-.57-7.83,2.95-13.5,3.7-17.25,3.7Z"></path>
    </g>
    <path d="M330.57,629.98s-.02,0-.03,0c-.28-.02-.48-.25-.47-.53,.01-.21,.4-5.28,8.11-9.16,1.13-.96,22.71-19.49,40.19-45.16,.82-1.26,20.43-31.17,35.63-35.56,.26-.08,.54,.08,.62,.34,.08,.27-.08,.54-.34,.62-14.84,4.28-34.88,34.84-35.08,35.15-17.95,26.35-40.2,45.22-40.42,45.4-.03,.03-.06,.05-.1,.06-7.21,3.6-7.61,8.3-7.61,8.35-.02,.26-.24,.47-.5,.47Z"></path>
    <path d="M461.78,557.22c-.08,0-.17-.02-.24-.06-12.11-6.79-11.37-22.8-11.36-22.96,.02-.27,.27-.48,.53-.47,.28,.02,.49,.25,.47,.53,0,.15-.71,15.55,10.85,22.04,.24,.14,.33,.44,.19,.68-.09,.16-.26,.26-.44,.26Z"></path>
    <path d="M419.7,605.73c-.18,0-.35-.1-.44-.27-.13-.24-.04-.55,.21-.68,27.01-14.37,43.17-43.63,43.33-43.92,.13-.24,.44-.33,.68-.2,.24,.13,.33,.44,.2,.68-.16,.3-16.46,29.81-43.75,44.33-.07,.04-.15,.06-.23,.06Z"></path>
    <path d="M393.99,636.71s-.09,0-.13-.02c-.27-.07-.42-.35-.35-.62,1.49-5.38,9.79-10.87,10.14-11.1l35.05-24.54c.23-.16,.54-.1,.7,.12,.16,.23,.1,.54-.12,.7l-35.07,24.55c-.1,.06-8.35,5.52-9.74,10.54-.06,.22-.26,.37-.48,.37Z"></path>
    <g>
      <path d="M467.52,647.52c-3.5,1.02-8.88,1.88-15.96,.96,0,0-7.42-1.39-5.12-6.65,1.04-2.39,1.84-4.87,2.2-7.46,.6-4.26,1.14-10.01,.28-13.07h0c-.07-.22-2.23-6.76,4.09-9.35l7.01-2.34s4.09-.88,5.84,3.8l6.43-15.49s-9.64-14.32-12.57-19.29c0,0,1.38-1.08,4.2-4.78,0,0,10.71-5.45,12.46,6.24,1.6,10.64,1.74,45.2-2.42,60.77-.85,3.19-3.28,5.73-6.46,6.65Z" fill="#463f3a"></path>
      <path d="M457.43,649.37c-1.82,0-3.8-.12-5.94-.4-.2-.04-4.17-.81-5.54-3.39-.62-1.17-.61-2.5,.03-3.95,1.13-2.58,1.84-4.98,2.17-7.32,.59-4.23,1.12-9.89,.3-12.87-.85-2.46-1.03-7.74,4.38-9.95l7.04-2.35c.09-.02,3.91-.79,5.98,3.02l5.89-14.18c-1.24-1.84-9.74-14.5-12.43-19.09l-.22-.37,.34-.27s1.38-1.12,4.11-4.69l.17-.14c.21-.1,5.09-2.54,8.96-.54,2.26,1.16,3.68,3.57,4.22,7.15,1.68,11.22,1.63,45.78-2.43,60.97-.9,3.36-3.5,6.04-6.8,7h0c-2.36,.69-5.81,1.37-10.23,1.37Zm3.4-39.33c-.4,0-.66,.05-.7,.06l-6.96,2.32c-5.87,2.4-3.87,8.45-3.78,8.71,.89,3.18,.35,8.99-.26,13.31-.34,2.44-1.08,4.92-2.24,7.59-.51,1.16-.53,2.2-.06,3.08,1.14,2.16,4.78,2.87,4.82,2.88,7.12,.93,12.49,0,15.73-.95h0c2.96-.86,5.31-3.28,6.11-6.3,4.03-15.08,4.08-49.41,2.41-60.57-.49-3.24-1.73-5.4-3.68-6.41-3.15-1.62-7.27,.17-7.96,.49-2.03,2.66-3.32,3.96-3.88,4.48,3.11,5.19,12.24,18.77,12.34,18.91l.15,.22-7.02,16.9-.44-1.19c-1.17-3.12-3.43-3.54-4.57-3.54Zm6.69,37.48h0Z"></path>
    </g>
    <g>
      <path d="M450.68,462.92l-6.14,11.1c-8.47,12.27-15.49,1.17-15.49,1.17-2.63,5.84-14.03,15.49-14.03,15.49l-34.48,28.64-17.24,14.9,5.26,21.92c3.51,11.69,4.09,20.75,4.09,20.75,.58,9.06-8.47,27.47-8.47,27.47-4.38,16.66,3.8,32.14,3.8,32.14,3.62-.66,5.38,.53,6.24,1.7,.49,.66,.75,1.46,.82,2.28l.54,6.54c.29,6.14-4.38,6.14-4.38,6.14h-11.1c-4.68-.58-5.26-7.01-5.26-7.01-2.34-12.86-7.89-20.16-7.89-20.16-3.8-1.75-2.63-6.14-2.63-6.14l2.92-12.86c0-7.89-3.51-9.94-9.06-11.1s-7.6-6.14-7.6-6.14l-3.51-11.98c-3.8,7.01-20.75,30.1-20.75,30.1-8.18,10.81-4.38,26.88-4.38,26.88h1.36c2,0,3.61,1.62,3.61,3.61v9.14c0,2-1.62,3.61-3.61,3.61h-11.88c-4.68-.29-3.21-5.84-3.21-5.84l.88-24.25c-2.63,6.14-7.01,11.69-7.01,11.69-17.24,24.55-26.3,16.36-26.3,16.36,9.06-11.4,14.03-26.88,14.03-26.88l.96-7.13,1.96-14.49c2.05-30.39,10.23-53.18,10.23-53.18,7.6-21.33,14.61-35.94,14.61-35.94,7.01-22.5,23.67-32.73,23.67-32.73l11.98-11.69,26.01-31.27,16.19-20.39c-.23,2.35,.57,3.47,3.39,1.68,0,0-1.46,11.4,4.38,8.77,0,0,2.63,1.17,5.26-3.21,0,0,1.46-3.8,3.8-4.38,0,0,0,1.46-.88,2.92,0,0-2.05,4.97,3.21,1.75l10.52-6.14,16.13,15.09s0,.01-.02,.04c-4,8.63-.63,10.01-.63,10.01l30.1,21.04Z" fill="#f4f3ee"></path>
      <path d="M371.19,653.65h-11.1c-5.08-.63-5.73-7.19-5.76-7.47-2.14-11.76-7.08-18.91-7.72-19.81-3.99-1.94-2.8-6.62-2.78-6.66l2.91-12.78c-.02-7.35-3.06-9.38-8.66-10.56-5.75-1.21-7.87-6.22-7.96-6.44l-3.19-10.9c-4.67,7.95-20.03,28.9-20.2,29.12-7.26,9.59-4.88,23.6-4.38,26.09h.95c2.27,0,4.11,1.84,4.11,4.11v9.14c0,2.27-1.84,4.11-4.11,4.11h-11.88c-1.41-.09-2.44-.6-3.11-1.52-1.28-1.78-.71-4.46-.6-4.89l.79-21.74c-2.6,5.19-5.99,9.5-6.03,9.55-9.71,13.82-16.91,17.31-21.24,17.8-3.76,.42-5.7-1.3-5.78-1.37l-.35-.31,.29-.37c8.9-11.2,13.89-26.57,13.94-26.73l2.9-21.54c2.02-30.08,10.17-53.06,10.25-53.29,7.52-21.11,14.56-35.84,14.63-35.99,6.77-21.75,22.79-32.26,23.81-32.91l11.94-11.65,25.97-31.23,17.23-21.7-.16,1.68c-.1,1.03,.03,1.74,.35,1.94,.17,.1,.74,.25,2.28-.73l.9-.57-.13,1.05c-.24,1.86-.46,6.97,1.31,8.28,.58,.43,1.36,.42,2.37-.04l.2-.09,.2,.09c.09,.04,2.28,.89,4.63-3.01,.03-.09,1.55-3.97,4.11-4.61l.62-.16v.64c0,.07-.01,1.62-.95,3.18-.29,.72-.46,1.77-.18,2.01,.05,.04,.55,.38,2.71-.94l10.85-6.33,16.68,15.6-.17,.33c-2.18,4.71-2.12,7.12-1.68,8.32,.3,.81,.76,1.03,.78,1.04l.09,.05,30.47,21.3-6.35,11.5c-2.81,4.08-5.75,6.1-8.82,6.03-3.47-.07-6-2.81-7.03-4.14-3.18,5.89-13.33,14.52-13.78,14.9l-34.49,28.64-17,14.7,5.19,21.62c3.48,11.58,4.1,20.74,4.1,20.83,.59,9.09-8.15,26.96-8.52,27.72-3.91,14.88,2.52,29.08,3.63,31.37,3.65-.56,5.47,.75,6.36,1.96,.52,.7,.83,1.58,.91,2.53l.54,6.54c.11,2.26-.41,4-1.53,5.17-1.42,1.49-3.27,1.5-3.35,1.5Zm-40.14-64.05s2.01,4.69,7.22,5.79c5.99,1.26,9.46,3.56,9.46,11.59v.11s-2.93,12.86-2.93,12.86c-.05,.18-1.01,4.02,2.35,5.57l.11,.05,.08,.1c.06,.07,5.65,7.55,7.98,20.38,.01,.1,.61,6.08,4.83,6.61h11.04s1.52-.03,2.64-1.21c.92-.97,1.34-2.46,1.25-4.41l-.54-6.52c-.07-.77-.32-1.47-.72-2.02-1.08-1.47-3.06-1.99-5.74-1.51l-.36,.07-.17-.32c-.08-.16-8.22-15.85-3.84-32.5,.12-.28,9.03-18.49,8.46-27.31,0-.09-.62-9.14-4.07-20.64l-5.34-22.24,17.47-15.1,34.49-28.64c.11-.09,11.34-9.63,13.89-15.31l.38-.85,.5,.78s2.77,4.3,6.71,4.37c2.71,.04,5.36-1.82,7.94-5.56l5.89-10.67-29.7-20.76c-.21-.1-.84-.49-1.24-1.5-.76-1.94-.25-4.92,1.53-8.85l-15.6-14.59-10.2,5.95c-1.93,1.18-3.16,1.45-3.87,.84-.97-.83-.22-2.82-.06-3.21,.43-.72,.64-1.42,.74-1.94-1.65,1.01-2.72,3.74-2.73,3.77-2.45,4.09-4.95,3.78-5.7,3.57-1.27,.53-2.35,.48-3.19-.15-2.08-1.54-1.97-6.15-1.81-8.24-1.06,.53-1.88,.61-2.48,.24-.44-.27-.7-.74-.81-1.42l-15.31,19.28-26.01,31.28-12.1,11.79c-.17,.1-16.58,10.4-23.45,32.45-.1,.21-7.12,14.9-14.62,35.96-.08,.23-8.18,23.08-10.2,53.05l-2.93,21.66c-.07,.24-5,15.42-13.81,26.72,.67,.42,2.23,1.13,4.67,.84,4.12-.49,11.02-3.9,20.5-17.4,.06-.08,4.39-5.6,6.96-11.6l1.06-2.46-.99,27.04s-.66,2.6,.43,4.11c.48,.67,1.27,1.04,2.33,1.11h11.84c1.72,0,3.11-1.4,3.11-3.11v-9.14c0-1.72-1.4-3.11-3.11-3.11h-1.75l-.09-.38c-.04-.16-3.76-16.43,4.47-27.3,.17-.22,16.97-23.13,20.71-30.03l.58-1.07,3.85,13.15h0Z" fill="#070707"></path>
    </g>
    <g>
      <path d="M421.22,431.84s0,.01-.02,.04c-.17,.34-1.54,3.16-2.09,5.62l-16.95,20.16s-9.94,9.64-18.7,0l-27.76,22.79s-14.03,10.23-19.87,29.51c0,0-5.26,32.73-13.15,47.92,0,0-10.52,28.05-23.67,20.75,0,0-2.34,19.58-5.26,22.5,0,0-5.55,0-4.97,9.06,0,0,.88,5.84,.29,10.81l-1.37,2.69s-2.72,1.11-2.43-2.69c0,0,.58-5.84-3.51-2.63,0,0-2.63,4.97-4.97-1.17,0,0-2.59-7.03-5.97-2.05l-.08-.11,1.96-14.49c2.05-30.39,10.23-53.18,10.23-53.18,7.6-21.33,14.61-35.94,14.61-35.94,7.01-22.5,23.67-32.73,23.67-32.73l11.98-11.69,26.01-31.27,16.19-20.39c-.23,2.35,.57,3.47,3.39,1.68,0,0-1.46,11.4,4.38,8.77,0,0,2.63,1.17,5.26-3.21,0,0,1.46-3.8,3.8-4.38,0,0,0,1.46-.88,2.92,0,0-2.05,4.97,3.21,1.75l10.52-6.14,16.13,15.09Z" fill="#ece7e1"></path>
      <path d="M286.89,624.35c-.38,0-.81-.08-1.2-.36-.72-.52-1.02-1.54-.91-3.01,.08-.82,.03-2.61-.65-2.98-.38-.21-1.08,.04-1.97,.72-.27,.47-1.38,2.14-2.83,2.06-1.18-.07-2.16-1.18-3-3.39-.34-.92-1.52-3.33-2.9-3.5-.7-.09-1.43,.44-2.19,1.55l-.4,.59-.61-.86,.03-.2,1.96-14.49c2.02-30.08,10.17-53.06,10.25-53.29,7.52-21.11,14.56-35.84,14.63-35.99,6.77-21.75,22.79-32.26,23.81-32.91l11.94-11.65,25.97-31.23,17.23-21.7-.16,1.68c-.1,1.03,.03,1.74,.35,1.94,.17,.1,.74,.25,2.28-.73l.9-.57-.13,1.05c-.24,1.86-.46,6.97,1.31,8.28,.58,.43,1.36,.42,2.37-.04l.2-.09,.2,.09c.09,.04,2.28,.89,4.63-3.01,.03-.09,1.55-3.97,4.11-4.61l.62-.16v.64c0,.07-.01,1.62-.95,3.18-.29,.72-.46,1.77-.18,2.01,.05,.04,.55,.38,2.71-.94l10.85-6.33,16.68,15.6-.19,.37c-.15,.3-1.51,3.1-2.05,5.5l-.03,.12-17.03,20.26c-.23,.23-4.84,4.64-10.69,4.46-3.09-.1-5.93-1.47-8.44-4.1l-27.4,22.49c-.16,.12-13.99,10.38-19.71,29.27-.04,.26-5.35,32.92-13.18,48.01-.25,.69-6.89,18.12-16.41,21.62-2.47,.91-4.92,.79-7.3-.34-.46,3.62-2.59,19.36-5.31,22.08l-.15,.15h-.21c-.06,0-1.51,.03-2.75,1.37-1.35,1.46-1.93,3.87-1.72,7.16,.03,.2,.88,5.93,.29,10.9l-.05,.17-1.45,2.85-.17,.07s-.47,.19-1.01,.19Zm-3.07-7.44c.29,0,.55,.07,.79,.2,1.44,.79,1.2,3.63,1.17,3.95-.08,1.08,.09,1.81,.5,2.11,.35,.25,.83,.18,1.08,.11l1.23-2.42c.55-4.83-.29-10.53-.3-10.59-.24-3.63,.44-6.3,2-7.97,1.24-1.33,2.67-1.6,3.23-1.65,2.25-2.67,4.36-16.77,5-22.07l.09-.74,.65,.36c2.32,1.29,4.71,1.49,7.12,.61,9.09-3.34,15.77-20.92,15.84-21.09,7.79-15.01,13.07-47.5,13.12-47.83,5.84-19.29,19.93-29.74,20.07-29.84l28.11-23.08,.32,.35c2.4,2.64,5.11,4.02,8.05,4.12,5.36,.18,9.89-4.1,9.93-4.14l16.84-20.03c.49-2.12,1.53-4.42,1.96-5.31l-15.59-14.58-10.2,5.95c-1.93,1.18-3.16,1.45-3.87,.84-.97-.83-.22-2.82-.06-3.21,.43-.72,.64-1.42,.74-1.94-1.65,1.01-2.72,3.74-2.73,3.77-2.45,4.09-4.95,3.78-5.7,3.57-1.27,.53-2.35,.48-3.19-.15-2.08-1.54-1.97-6.15-1.81-8.24-1.06,.53-1.88,.61-2.48,.24-.44-.27-.7-.74-.81-1.42l-15.31,19.28-26.01,31.28-12.1,11.79c-.17,.1-16.58,10.4-23.45,32.45-.1,.21-7.12,14.9-14.62,35.96-.08,.23-8.18,23.08-10.2,53.05l-1.77,13.09c.68-.61,1.39-.87,2.12-.78,2.22,.27,3.57,3.75,3.71,4.14,.66,1.72,1.41,2.69,2.12,2.74,.02,0,.04,0,.05,0,.83,0,1.64-1.17,1.88-1.63l.13-.16c.92-.72,1.69-1.08,2.35-1.08Z"></path>
    </g>
    <path d="M383.47,458.16c-.19,0-.37-.11-.46-.29l-9.06-19.87c-.1-.28-1.86-5.69,1.05-7.64,.23-.15,.54-.09,.69,.14,.15,.23,.09,.54-.14,.69-2.28,1.52-.7,6.39-.68,6.44l9.04,19.82c.11,.25,0,.55-.25,.66-.07,.03-.14,.04-.21,.04Z"></path>
    <path d="M394.57,435.95c-.12,0-.25-.05-.34-.14-.2-.19-.21-.51-.02-.71l14.53-15.25c.19-.2,.51-.21,.71-.02,.2,.19,.21,.51,.02,.71l-14.53,15.25c-.1,.1-.23,.16-.36,.16Z"></path>
    <g>
      <path d="M384.05,374.96s1,14.11,10.87,17.43l-11.75,5.07-7.91,18.35-16.05,19.93,14.32,14.9s-6.72-2.92-14.61,7.01c0,0-13.73,14.32-11.1,21.62,0,0-41.2-31.56-32.44-52.01,0,0,2.34-10.23,22.21-20.75l46.46-31.56Z" fill="#463f3a"></path>
      <path d="M348.86,480.72l-1.35-1.03c-1.7-1.3-41.41-32.03-32.59-52.61,.07-.34,2.59-10.49,22.43-20.99l47.13-32.02,.06,.87c0,.14,1.1,13.82,10.54,16.99l1.24,.42-12.77,5.51-7.9,18.28-15.78,19.59,15.74,16.39-2.29-1c-.26-.11-6.49-2.62-14.02,6.87-.17,.18-13.52,14.21-11.02,21.14l.58,1.6Zm34.78-104.87l-45.77,31.09c-19.43,10.29-21.98,20.35-22,20.45-7.74,18.08,24.7,45.43,31.16,50.64-.81-7.73,11-20.15,11.53-20.7,5.73-7.21,10.88-7.82,13.45-7.53l-13.46-14.01,16.28-20.22,7.96-18.47,10.82-4.67c-7.79-3.47-9.6-13.54-9.97-16.57Z"></path>
    </g>
    <g>
      <path d="M349.57,470.52l8.77,6.43s-7.89,5.55-10.52,2.34c0,0-1.17-2.34,1.75-8.77Z" fill="#040200"></path>
      <path d="M350.22,480.78c-1.11,0-2.09-.33-2.79-1.18l-.06-.09c-.05-.1-1.24-2.63,1.75-9.2l.25-.56,9.82,7.2-.57,.4c-.26,.18-4.91,3.42-8.4,3.42Zm-1.97-1.75c1.8,2.05,6.8-.53,9.22-2.09l-7.69-5.64c-2.24,5.17-1.64,7.4-1.52,7.73Z"></path>
    </g>
    <g>
      <path d="M373.53,450.65l19.39,22.39c.88,1.02,2.07,1.73,3.38,2.02l10.8,2.42c.98,.22,1.88,.7,2.61,1.4l5.32,5.08s1.46,4.09-4.09,3.51l-4.38-1.75s-1.17,.29-.58,2.63c0,0,1.17,5.84,6.14,9.35,0,0,7.01,5.84,3.8,7.6,0,0-3.21,.88-6.72,.88,0,0-1.17,3.21-9.06,2.34,0,0-1.46,4.68-8.18,2.63,0,0-4.97-.88-7.01-5.26l-9.94-16.66-25.42-18.7s2.34-5.84,9.35-12.86c0,0,7.01-9.35,14.61-7.01Z" fill="#f2b3c1"></path>
      <path d="M395.06,512.15c-.93,0-2.02-.16-3.27-.54-.15-.02-5.19-.96-7.32-5.53l-9.86-16.52-25.65-18.87,.14-.36c.1-.24,2.46-6.02,9.46-13.03,.25-.34,7.26-9.55,15.11-7.14l.14,.04,19.48,22.5c.81,.93,1.91,1.59,3.11,1.86l10.8,2.42c1.07,.24,2.05,.77,2.84,1.52l5.4,5.16,.04,.11c.03,.07,.62,1.79-.37,3.05-.76,.96-2.19,1.34-4.25,1.12l-.13-.03-4.17-1.67c-.21,.19-.42,.75-.12,1.96,.02,.08,1.2,5.72,5.94,9.06,.55,.46,5.09,4.32,4.84,6.88-.07,.67-.44,1.21-1.09,1.56l-.11,.04c-.13,.04-3.14,.85-6.55,.89-.54,.85-2.56,3-9.04,2.38-.44,.91-1.88,3.11-5.38,3.11Zm-44.87-41.8l25.18,18.52,9.99,16.74c1.93,4.13,6.62,5.02,6.67,5.02,6.19,1.88,7.56-2.12,7.62-2.29l.12-.39,.41,.04c7.31,.81,8.53-1.99,8.54-2.02l.13-.31h.34c3.14,0,6.08-.74,6.53-.85,.33-.19,.5-.43,.53-.76,.17-1.72-3.16-4.91-4.46-5.99-5.04-3.56-6.26-9.39-6.31-9.64-.69-2.77,.89-3.2,.95-3.21l.16-.04,4.47,1.79c1.64,.16,2.77-.1,3.29-.75,.53-.68,.33-1.67,.24-1.99l-5.22-4.99c-.66-.63-1.48-1.07-2.37-1.27l-10.8-2.42c-1.41-.32-2.7-1.09-3.65-2.18l-19.29-22.28c-7.13-2.06-13.86,6.79-13.93,6.88-5.92,5.93-8.51,11.04-9.13,12.39Z" fill="#040200"></path>
    </g>
    <path d="M359.21,436.25c-.15,0-.31-.07-.4-.21l-12.57-17.24c-.16-.22-.11-.54,.11-.7,.22-.16,.54-.11,.7,.11l12.57,17.24c.16,.22,.11,.54-.11,.7-.09,.06-.19,.1-.29,.1Z"></path>
    <path d="M299.01,579.14c-.05,0-.11,0-.16-.03-.26-.09-.4-.37-.32-.63,1.4-4.18-2.59-17.68-2.63-17.82-3.03-10.61-2.01-22.07-1.76-23.33,.05-.27,.32-.45,.59-.39,.27,.05,.45,.32,.39,.59-.23,1.17-1.19,12.6,1.74,22.85,.17,.56,4.12,13.93,2.62,18.41-.07,.21-.27,.34-.47,.34Z"></path>
    <path d="M327.07,578.26c-.11,0-.22-.03-.31-.11-.22-.17-.25-.48-.08-.7,.14-.17,13.59-17.77,11.58-49.04-.03-.19-3.38-23.46,10.71-34.33,.22-.17,.53-.13,.7,.09,.17,.22,.13,.53-.09,.7-13.63,10.5-10.37,33.2-10.33,33.43,2.04,31.72-11.65,49.59-11.79,49.77-.1,.13-.25,.19-.39,.19Z"></path>
    <g>
      <rect x="453.89" y="327.19" width="12.12" height="18.42" rx="6.06" ry="6.06" transform="translate(688.32 -185.67) rotate(77.44)" fill="#f2b3c1"></rect>
      <path d="M456.86,343.65c-3,0-5.72-2.08-6.4-5.13-.38-1.71-.07-3.47,.87-4.94,.94-1.48,2.4-2.5,4.11-2.88l6.16-1.37c3.52-.78,7.04,1.45,7.83,4.98s-1.45,7.04-4.98,7.83l-6.16,1.37c-.48,.11-.96,.16-1.43,.16Zm6.16-13.49c-.4,0-.8,.04-1.21,.13l-6.16,1.37c-1.45,.32-2.68,1.19-3.48,2.44s-1.06,2.74-.73,4.19c.67,2.99,3.65,4.88,6.63,4.22l6.16-1.37c2.99-.67,4.88-3.64,4.22-6.63-.58-2.59-2.88-4.35-5.42-4.35Z" fill="#040200"></path>
    </g>
    <g>
      <path d="M446.58,414.71c-5.26,11.98-19.31,22.51-19.31,22.51l-22.19-20.46-10.52,6.14c-5.26,3.21-3.21-1.75-3.21-1.75,.88-1.46,.88-2.92,.88-2.92-2.34,.58-3.8,4.38-3.8,4.38-2.63,4.38-5.26,3.21-5.26,3.21-5.84,2.63-4.38-8.77-4.38-8.77-2.83,1.79-3.62,.66-3.39-1.68,.47-4.93,5.44-15.27,5.44-15.27-4.97-6.14-.88-7.01-.88-7.01,2.92,.88,13.44-.58,13.44-.58,8.18-1.46,16.07,2.63,16.07,2.63l35.65,15.2c2.63,1.17,1.46,4.38,1.46,4.38Z" fill="#f2b3c1"></path>
      <path d="M427.24,437.86l-22.22-20.49-10.2,5.95c-1.93,1.18-3.16,1.45-3.87,.84-.97-.83-.22-2.82-.06-3.21,.43-.72,.64-1.42,.74-1.94-1.65,1.01-2.72,3.74-2.73,3.77-2.45,4.09-4.95,3.78-5.7,3.57-1.27,.53-2.35,.48-3.19-.15-2.08-1.54-1.97-6.15-1.81-8.24-1.06,.53-1.88,.61-2.48,.24-.7-.43-.96-1.37-.82-2.89,.44-4.56,4.53-13.42,5.35-15.15-1.98-2.51-2.73-4.52-2.22-5.95,.46-1.31,1.77-1.6,1.83-1.62l.12-.03,.12,.04c2.79,.84,13.13-.59,13.23-.6,8.22-1.47,16.04,2.51,16.37,2.68l35.62,15.18c2.42,1.08,2.19,3.75,1.73,5.01v.03c-5.26,11.96-19.34,22.6-19.48,22.71l-.33,.25Zm-22.08-21.73l22.15,20.43c2.14-1.67,14.11-11.34,18.82-22.04,.08-.24,.91-2.8-1.2-3.74l-35.64-15.19c-.11-.06-7.87-4.01-15.79-2.6-.45,.06-10.36,1.43-13.53,.61-.23,.08-.78,.33-.99,.95-.27,.78-.1,2.32,2.26,5.23l.2,.25-.14,.29c-.05,.1-4.93,10.31-5.39,15.1-.1,1.03,.03,1.74,.35,1.94,.17,.1,.74,.25,2.28-.73l.9-.57-.13,1.05c-.24,1.86-.46,6.97,1.31,8.28,.58,.43,1.36,.42,2.37-.04l.2-.09,.2,.09c.09,.04,2.28,.89,4.63-3.01,.03-.09,1.55-3.97,4.11-4.61l.62-.16v.64c0,.07-.01,1.62-.95,3.18-.29,.72-.46,1.77-.18,2.01,.05,.04,.55,.38,2.71-.94l10.85-6.33Z" fill="#040200"></path>
    </g>
    <path d="M383.17,426.31s-.03,0-.05,0c-.28-.03-.48-.27-.45-.55,.04-.38,.94-9.26,5.06-15.14,.16-.23,.47-.28,.7-.12,.23,.16,.28,.47,.12,.7-3.97,5.67-4.87,14.58-4.88,14.66-.03,.26-.24,.45-.5,.45Z"></path>
    <path d="M378.79,417.54s-.07,0-.11-.01c-.27-.06-.44-.33-.38-.6,.01-.06,1.51-6.55,4.42-12.67,.12-.25,.42-.35,.67-.24,.25,.12,.36,.42,.24,.67-2.86,6.01-4.33,12.4-4.35,12.46-.05,.23-.26,.39-.49,.39Z"></path>
    <g>
      <path d="M394.92,392.39s-9.12-1.94-10.87-17.43v-3.21s-5.84-1.46-12.86-12.27c0,0-9.64-11.98-7.89-15.49,0,0,1.46-1.46,14.61,4.97,0,0,7.89,.29,12.27,2.05,0,0,5.84-7.01,12.57-6.43,0,0,2.63,.88,4.97-.58,0,0,9.94-6.43,21.92,1.75,0,0,16.16-10.04,22.43-11.07,1.07-.18,1.93,.88,1.57,1.9-1.44,4.09-5.74,15.12-13.18,24.66l1.46,7.6s-.29,7.01-1.46,10.23c0,0,1.46,1.46-.58,4.09l1.46,10.52s2.05-.29,3.8,1.17c0,0,2.05-.88,4.97,2.34,0,0,1.75,1.75-.29,5.26,0,0,1.46,1.17-1.17,2.63l-1.75,3.21s.29,.88-1.75,2.05l-35.65-15.2s-8.64-4.01-14.55-2.73Z" fill="#f4f3ee"></path>
      <path d="M445.16,410.88l-35.88-15.29c-.1-.05-8.58-3.93-14.25-2.71l-.1,.02-.11-.02c-.39-.08-9.49-2.2-11.27-17.86v-2.91c-1.43-.51-6.67-2.94-12.78-12.37-.98-1.21-9.76-12.3-7.92-15.98l.09-.13c.4-.4,2.67-1.23,15.09,4.83,.97,.04,7.78,.38,12,1.95,1.19-1.33,6.55-6.87,12.76-6.33l.11,.02s2.44,.78,4.55-.53c.09-.06,10.2-6.41,22.19,1.58,2.23-1.37,16.42-10,22.33-10.97,.67-.11,1.34,.14,1.78,.66,.45,.53,.58,1.24,.35,1.9-1.5,4.25-5.76,15.12-13.12,24.62l1.43,7.43v.06c-.01,.28-.3,6.78-1.4,10.12,.38,.58,1.02,2.09-.62,4.32l1.37,9.86h.02c.74,0,2.15,.15,3.46,1.14,.74-.15,2.72-.2,5.23,2.55,.06,.06,1.88,1.94-.05,5.53,.17,.23,.33,.59,.29,1.04-.06,.73-.63,1.41-1.7,2.02l-1.61,2.95c.01,.45-.23,1.36-2.02,2.38l-.22,.12Zm-47.66-19.24c5.58,0,11.88,2.89,12.19,3.03l35.4,15.09c1.11-.68,1.32-1.22,1.3-1.37l-.07-.21,.12-.15,1.82-3.34,.13-.07c1.1-.61,1.3-1.08,1.32-1.31,.02-.29-.21-.49-.22-.5l-.34-.27,.22-.37c1.8-3.09,.43-4.6,.37-4.66-2.62-2.88-4.41-2.23-4.42-2.22l-.28,.11-.23-.19c-1.56-1.3-3.39-1.06-3.41-1.06l-.5,.07-1.56-11.23,.13-.17c1.73-2.22,.67-3.39,.62-3.44l-.21-.22,.1-.3c1.07-2.95,1.4-9.35,1.43-10.02l-1.49-7.76,.14-.18c7.36-9.43,11.62-20.29,13.11-24.52,.11-.32,.05-.66-.17-.92-.21-.25-.53-.37-.85-.32-6.1,1-22.08,10.9-22.24,11l-.28,.17-.27-.18c-11.55-7.89-21.27-1.81-21.36-1.75-2.34,1.46-4.9,.79-5.34,.66-6.36-.52-12.03,6.19-12.08,6.26l-.23,.28-.34-.13c-4.25-1.7-12.03-2.01-12.11-2.01l-.2-.05c-10.73-5.25-13.48-5.14-14.01-5.03-1,2.83,5.32,11.59,7.9,14.79,6.82,10.51,12.53,12.09,12.59,12.1l.38,.1v3.6c1.59,14.01,9.44,16.65,10.39,16.92,.82-.17,1.68-.24,2.56-.24Z" fill="#070707"></path>
    </g>
    <path d="M413.96,393.17c-2.09,0-3.35-.17-3.39-.18-.27-.04-.46-.29-.42-.57,.04-.27,.28-.46,.57-.42,.16,.02,15.72,2.16,28.82-9.23,.21-.18,.52-.16,.71,.05,.18,.21,.16,.52-.05,.71-9.73,8.46-20.79,9.65-26.23,9.65Z"></path>
    <path d="M401.92,382.43c-.08,0-.17,0-.25,0-2.27-.14-3.65-2.12-3.71-2.2-.16-.23-.1-.54,.13-.69s.54-.1,.7,.13c.01,.02,1.18,1.67,2.96,1.77,1.26,.08,2.56-.64,3.86-2.11,.05-.06,5.32-5.77,15.17-1.89,0,0,1.64,.59,2.93-.21,.92-.58,1.47-1.74,1.65-3.46,.03-.27,.28-.47,.55-.45,.27,.03,.48,.27,.45,.55-.2,2.05-.92,3.47-2.12,4.22-1.71,1.06-3.73,.32-3.81,.29-9.19-3.62-13.87,1.4-14.06,1.62-1.44,1.63-2.92,2.45-4.42,2.45Z"></path>
    <g>
      <path d="M405.75,380.05s3.14,.18,5.19,3.1c0,0,1.46,5.26,4.97,4.38s4.15-5.55,.76-10.66c0,0-7.91-1.38-10.91,3.18Z" fill="#ece7e1"></path>
      <path d="M415.14,388.13c-2.58,0-4.14-2.96-4.66-4.76-1.87-2.61-4.73-2.82-4.76-2.82l-.86-.05,.47-.72c3.14-4.78,11.08-3.46,11.41-3.4l.21,.04,.12,.18c2.11,3.19,2.83,6.47,1.94,8.79-.52,1.35-1.58,2.28-2.99,2.63-.31,.08-.6,.11-.88,.11Zm-8.49-8.44c1.15,.27,3.19,1.02,4.69,3.17l.07,.15s1.35,4.78,4.37,4.03c1.1-.27,1.89-.98,2.3-2.03,.77-1.97,.12-4.83-1.72-7.69-1.17-.16-6.94-.76-9.71,2.36Z"></path>
    </g>
    <g>
      <path d="M412.01,370.73c-.64,.64-1.59,.88-2.45,.6-3.43-1.13-11.81-4.29-7.1-6.88,0,0,8.49-4.51,12.83-1.9,.44,.26,.68,.75,.65,1.26-.08,1.21-.7,3.67-3.93,6.92Z" fill="#040200"></path>
      <path d="M410.31,371.94c-.3,0-.6-.05-.9-.15-3.92-1.29-8.64-3.29-8.84-5.51-.08-.87,.48-1.63,1.65-2.28,.36-.19,8.8-4.62,13.33-1.89,.59,.36,.93,1.02,.89,1.72-.08,1.25-.72,3.86-4.07,7.24h0c-.56,.56-1.3,.87-2.06,.87Zm1.58-9.72c-4.12,0-9.13,2.63-9.19,2.66-.79,.44-1.17,.88-1.13,1.31,.12,1.25,3.24,3.03,8.16,4.65,.68,.22,1.42,.04,1.94-.48h0c3.12-3.15,3.71-5.49,3.78-6.6,.02-.33-.13-.64-.41-.8-.89-.54-1.98-.75-3.15-.75Z"></path>
    </g>
    <path d="M398.95,363.48c-.16,0-.32-.08-.41-.22-.15-.23-.1-.54,.13-.69,.35-.24,8.72-5.8,21.12-3.59,.27,.05,.45,.31,.4,.58-.05,.27-.32,.45-.58,.4-12-2.14-20.3,3.37-20.38,3.43-.09,.06-.18,.09-.28,.09Z"></path>
    <g>
      <ellipse cx="396.18" cy="360.21" rx="2.78" ry="2.19" transform="translate(-113.86 523.2) rotate(-60)" fill="#040200"></ellipse>
      <path d="M395.7,363.35c-.41,0-.81-.1-1.16-.31-.64-.37-1.06-1.02-1.18-1.84-.11-.77,.06-1.6,.49-2.34,.9-1.56,2.68-2.23,3.97-1.49,1.29,.74,1.6,2.62,.69,4.18h0c-.43,.74-1.06,1.31-1.79,1.59-.34,.14-.69,.2-1.02,.2Zm.95-5.29c-.7,0-1.47,.49-1.94,1.3-.31,.54-.44,1.15-.36,1.7,.07,.51,.32,.9,.69,1.12,.37,.21,.84,.23,1.31,.04,.52-.21,.97-.62,1.29-1.16,.63-1.09,.48-2.35-.33-2.82-.2-.12-.43-.17-.67-.17Z"></path>
    </g>
    <g>
      <ellipse cx="424.23" cy="353.78" rx="2.19" ry="2.78" transform="translate(-125.91 403.6) rotate(-45)" fill="#040200"></ellipse>
      <path d="M424.81,356.78c-.85,0-1.77-.37-2.49-1.09-1.28-1.28-1.46-3.17-.41-4.22,1.05-1.05,2.94-.86,4.22,.41h0c.6,.6,.99,1.36,1.08,2.14,.1,.82-.14,1.56-.66,2.08-.46,.46-1.08,.68-1.73,.68Zm-1.17-5c-.4,0-.76,.13-1.03,.4-.66,.66-.47,1.92,.41,2.81,.89,.89,2.15,1.07,2.81,.41,.3-.3,.44-.75,.38-1.26-.06-.55-.35-1.1-.79-1.55h0c-.53-.53-1.19-.81-1.78-.81Z"></path>
    </g>
    <path d="M440.16,360.27c-.2,0-.39-.12-.47-.33-.03-.08-2.93-7.86-5.77-11.56-.09-.11-.12-.25-.1-.39,.02-.14,.11-.26,.23-.34l14.51-9.17c.23-.15,.54-.08,.69,.16,.15,.23,.08,.54-.16,.69l-14.05,8.88c2.82,3.94,5.47,11.07,5.59,11.38,.1,.26-.04,.55-.29,.64-.06,.02-.12,.03-.17,.03Z"></path>
    <path d="M384.05,372.25c-.23,0-.43-.16-.49-.39-2.95-12.71,6.2-21.15,6.29-21.23,.21-.18,.52-.17,.71,.04,.18,.2,.17,.52-.04,.71-.09,.08-8.8,8.15-5.98,20.26,.06,.27-.11,.54-.37,.6-.04,0-.08,.01-.11,.01Z"></path>
    <path d="M400.12,509.01c-.08,0-.17-.02-.25-.06l-8.54-4.83c-.07-.04-.13-.09-.17-.16l-4.97-7.6c-.15-.23-.09-.54,.15-.69,.23-.15,.54-.09,.69,.15l4.9,7.5,8.44,4.77c.24,.14,.33,.44,.19,.68-.09,.16-.26,.25-.44,.25Z"></path>
    <path d="M409.18,506.67c-.09,0-.18-.02-.27-.08l-9.13-5.71c-.06-.04-.11-.09-.15-.15l-4.68-7.01c-.15-.23-.09-.54,.14-.69,.23-.15,.54-.09,.69,.14l4.62,6.92,9.04,5.65c.23,.15,.3,.46,.16,.69-.09,.15-.26,.23-.42,.23Z"></path>
    <g>
      <path d="M433.07,405.2s2.41-3.93,5.04-3.35c0,0,1.58-1.58,3.65-1.61,1.33-.02,2.35,1.12,2.18,2.44-.07,.52-.23,1.12-.57,1.8,0,0,2.25,2.5-.19,5.2l-10.11-4.48Z" fill="#040200"></path>
      <path d="M443.31,410.28l-10.96-4.85,.3-.49c.1-.17,2.49-3.98,5.31-3.62,.51-.45,1.97-1.55,3.8-1.58,.74,.01,1.52,.31,2.03,.88,.51,.57,.75,1.35,.65,2.12-.07,.55-.23,1.1-.48,1.66,.82,1.12,1.59,3.4-.4,5.6l-.24,.27Zm-9.49-5.29l9.22,4.08c1.73-2.21,.03-4.17-.04-4.26l-.22-.25,.15-.3c.28-.56,.45-1.11,.52-1.64,.06-.49-.08-.97-.4-1.33-.32-.36-.76-.54-1.27-.55-1.84,.03-3.29,1.45-3.31,1.46l-.19,.19-.27-.06c-1.75-.39-3.48,1.68-4.18,2.65Z"></path>
    </g>
    <g>
      <ellipse cx="439.13" cy="397.9" rx="1.61" ry="2.19" fill="#040200"></ellipse>
      <path d="M439.13,400.6c-1.16,0-2.11-1.21-2.11-2.69s.95-2.69,2.11-2.69,2.11,1.21,2.11,2.69-.95,2.69-2.11,2.69Zm0-4.38c-.6,0-1.11,.77-1.11,1.69s.51,1.69,1.11,1.69,1.11-.77,1.11-1.69-.51-1.69-1.11-1.69Z"></path>
    </g>
    <g>
      <ellipse cx="443.81" cy="396.73" rx="2.19" ry="1.61" transform="translate(-102.92 632.22) rotate(-65.1)" fill="#040200"></ellipse>
      <path d="M443.39,399.33c-.25,0-.49-.05-.72-.16-.53-.25-.91-.76-1.04-1.42-.12-.61-.03-1.29,.26-1.91,.29-.63,.75-1.14,1.29-1.44,.58-.32,1.22-.37,1.75-.12,.53,.25,.91,.76,1.04,1.42,.12,.61,.03,1.29-.26,1.91h0c-.49,1.05-1.43,1.71-2.33,1.71Zm.82-4.2c-.22,0-.42,.09-.54,.15-.35,.19-.67,.55-.87,.98s-.27,.9-.19,1.29c.04,.2,.16,.55,.48,.71,.55,.26,1.33-.24,1.72-1.07h0c.2-.43,.27-.9,.19-1.3-.04-.2-.16-.55-.48-.71-.1-.05-.21-.07-.31-.07Z"></path>
    </g>
    <g>
      <ellipse cx="447.31" cy="399.95" rx="2.19" ry="1.61" transform="translate(-18.68 21.93) rotate(-2.75)" fill="#040200"></ellipse>
      <path d="M447.25,402.06c-.63,0-1.23-.17-1.7-.48-.56-.37-.89-.91-.92-1.5-.03-.58,.25-1.16,.77-1.58,.48-.39,1.13-.62,1.82-.66,1.54-.06,2.73,.81,2.79,1.98,.03,.58-.25,1.16-.77,1.58-.48,.39-1.13,.62-1.82,.66-.06,0-.11,0-.17,0Zm.13-3.22s-.08,0-.12,0c-.47,.02-.92,.18-1.23,.43-.16,.13-.42,.4-.4,.75,.02,.36,.3,.6,.47,.71,.33,.22,.81,.34,1.27,.31,.47-.02,.92-.18,1.24-.43,.16-.13,.42-.4,.4-.75-.03-.57-.76-1.03-1.62-1.03Z"></path>
    </g>
    <g>
      <ellipse cx="446.44" cy="404.33" rx="2.19" ry="1.61" transform="translate(-18.89 21.89) rotate(-2.75)" fill="#040200"></ellipse>
      <path d="M446.36,406.44c-1.43,0-2.56-.85-2.61-1.98-.03-.58,.25-1.16,.77-1.58,.48-.39,1.13-.62,1.82-.66,.69-.03,1.35,.14,1.87,.48,.56,.37,.89,.91,.92,1.5,.03,.58-.25,1.16-.77,1.58-.48,.39-1.13,.62-1.82,.66-.06,0-.12,0-.17,0Zm.14-3.22s-.08,0-.12,0c-.47,.02-.92,.18-1.24,.43-.16,.13-.42,.4-.4,.75,.03,.6,.85,1.07,1.74,1.02h0c.47-.02,.92-.18,1.23-.43,.16-.13,.42-.4,.4-.75-.02-.36-.3-.6-.47-.71-.31-.2-.72-.32-1.15-.32Z"></path>
    </g>
  </g>
  <g>
    <rect x="688.98" y="38.56" width="118" height="100" fill="#ece7e1"></rect>
    <path d="M807.48,139.06h-119V38.06h119v101Zm-118-1h117V39.06h-117v99Z"></path>
  </g>
  <g>
    <path d="M748.22,49.06c-20.99,0-38,17.01-38,38s17.01,38,38,38,38-17.01,38-38-17.01-38-38-38Zm-31,38c0-6.54,2.03-12.61,5.49-17.61l43.12,43.12c-5,3.46-11.07,5.49-17.61,5.49-17.12,0-31-13.88-31-31Zm54.56,20.14l-43.7-43.7c5.42-4.64,12.45-7.44,20.14-7.44,17.12,0,31,13.88,31,31,0,7.69-2.81,14.72-7.44,20.14Z" fill="#f4f3ee"></path>
    <path d="M748.22,125.56c-21.23,0-38.5-17.27-38.5-38.5s17.27-38.5,38.5-38.5,38.5,17.27,38.5,38.5-17.27,38.5-38.5,38.5Zm0-76c-20.68,0-37.5,16.82-37.5,37.5s16.82,37.5,37.5,37.5,37.5-16.82,37.5-37.5-16.82-37.5-37.5-37.5Zm0,69c-17.37,0-31.5-14.13-31.5-31.5,0-6.43,1.93-12.62,5.58-17.9l.34-.49,43.97,43.97-.49,.34c-5.28,3.65-11.47,5.58-17.9,5.58Zm-25.43-48.33c-3.32,5-5.07,10.81-5.07,16.83,0,16.82,13.68,30.5,30.5,30.5,6.03,0,11.83-1.75,16.83-5.07l-42.26-42.26Zm49.02,37.71l-44.46-44.46,.41-.35c5.7-4.88,12.97-7.56,20.46-7.56,17.37,0,31.5,14.13,31.5,31.5,0,7.5-2.69,14.76-7.56,20.46l-.35,.41Zm-42.98-44.4l42.92,42.92c4.5-5.45,6.97-12.32,6.97-19.4,0-16.82-13.68-30.5-30.5-30.5-7.08,0-13.94,2.47-19.4,6.97Z" fill="#070707"></path>
  </g>
  <g>
    <rect x="196.98" y="43.56" width="118" height="100" transform="translate(80.91 -115.32) rotate(29.95)" fill="#ece7e1"></rect>
    <path d="M282.32,167.02l-103.1-59.42,.25-.43L229.64,20.09l.43,.25,102.67,59.17-.25,.43-50.18,87.08Zm-101.74-59.79l101.37,58.42,49.43-85.78L230.01,21.46l-49.43,85.78Z"></path>
  </g>
  <g>
    <g>
      <path d="M266.23,100.57c-.2-4.4-1.92-8.13-3.89-11-3.51-5.12-9.38-8-15.57-7.57-4.69,.32-10.65,1.95-16.75,6.84-2.66,2.13-4.51,5.2-4.89,8.58-.51,4.63,1.51,10,14.82,7.93,.72-.11,1.44,.21,1.81,.84,1.71,2.97,7.25,11.03,15.67,8.09,5.66-1.98,9.07-7.72,8.8-13.71Z" fill="#040200"></path>
      <path d="M253.85,115.19c-6.66,0-11.03-6.56-12.35-8.86-.3-.52-.9-.8-1.52-.7-6.43,1-10.9,.36-13.26-1.91-1.55-1.48-2.18-3.62-1.88-6.34,.37-3.33,2.19-6.53,4.99-8.78,5.21-4.17,10.9-6.49,16.91-6.9,6.32-.43,12.23,2.44,15.83,7.7,2.44,3.57,3.77,7.32,3.94,11.15,.28,6.29-3.42,12.04-9,13.99-1.29,.45-2.51,.65-3.66,.65Zm-13.62-10.16c.73,0,1.4,.37,1.76,1.01,1.92,3.33,7.25,10.78,15.33,7.96,5.34-1.87,8.88-7.39,8.61-13.43h0c-.17-3.73-1.46-7.38-3.84-10.85-3.48-5.08-9.2-7.87-15.32-7.45-5.9,.41-11.48,2.69-16.6,6.78-2.69,2.15-4.43,5.21-4.78,8.39-.28,2.54,.29,4.51,1.71,5.86,2.23,2.14,6.53,2.73,12.78,1.75,.11-.02,.22-.03,.33-.03Z"></path>
    </g>
    <g>
      <path d="M278.67,73.13s-5.41-10.25-15.2,2.82c0,0-1.12,1.27-1.96,2.99-1.55,3.19,.89,6.88,4.43,6.85,6.28-.05,17.64-1.6,12.73-12.66Z" fill="#040200"></path>
      <path d="M265.9,86.08c-1.78,0-3.41-.9-4.37-2.41-.93-1.48-1.04-3.29-.28-4.85,.85-1.73,1.96-3,2.01-3.05,3.52-4.7,6.91-6.97,10.06-6.72,3.63,.29,5.53,3.81,5.61,3.95v.02c1.55,3.48,1.63,6.33,.25,8.48-2.39,3.71-8.51,4.54-13.23,4.58h-.05Zm6.95-16.48c-2.83,0-5.9,2.19-9.15,6.53-.03,.03-1.12,1.28-1.93,2.94-.67,1.38-.58,2.98,.25,4.29,.85,1.35,2.3,2.15,3.88,2.15,.01,0,.03,0,.04,0,3.75-.03,10.38-.64,12.75-4.31,1.27-1.98,1.18-4.65-.28-7.93-.1-.18-1.91-3.39-5.15-3.64-.14-.01-.28-.02-.42-.02Z"></path>
    </g>
    <g>
      <path d="M252.78,58.82s-11.5-1.4-6.36,14.1c0,0,.4,1.65,1.33,3.32,1.73,3.1,6.16,3.2,8.16,.27,3.54-5.19,8.75-15.4-3.13-17.68Z" fill="#040200"></path>
      <path d="M251.88,78.91c-.08,0-.16,0-.24,0-1.75-.08-3.3-1.03-4.14-2.54-.94-1.68-1.34-3.32-1.36-3.39-1.85-5.57-1.78-9.65,.22-12.1,2.31-2.82,6.28-2.37,6.45-2.35h.02c3.74,.72,6.13,2.28,7.1,4.65,1.68,4.08-1.13,9.58-3.79,13.48-.97,1.42-2.55,2.25-4.26,2.25Zm.21-19.84c-1.18,0-3.71,.25-5.29,2.18-1.87,2.28-1.9,6.18-.11,11.57,.01,.04,.41,1.65,1.31,3.27,.75,1.34,2.12,2.18,3.67,2.24,1.63,.07,3.1-.68,4-2,2.11-3.09,5.4-8.89,3.73-12.94-.9-2.18-3.14-3.62-6.67-4.3-.05,0-.28-.03-.64-.03Z"></path>
    </g>
    <g>
      <path d="M231.67,66.13s-7.01,4.19,2.55,10.59c0,0,.93,.74,2.17,1.27,2.3,.98,4.81-.88,4.66-3.37-.27-4.42-1.78-12.36-9.38-8.49Z" fill="#040200"></path>
      <path d="M237.68,78.54c-.47,0-.95-.09-1.4-.29-1.26-.54-2.2-1.28-2.24-1.31-3.46-2.32-5.19-4.64-5.13-6.9,.07-2.61,2.51-4.1,2.62-4.16h.02c2.42-1.24,4.45-1.4,6.04-.49,2.73,1.56,3.55,5.87,3.75,9.21,.08,1.3-.51,2.52-1.57,3.27-.63,.44-1.35,.67-2.09,.67Zm-5.87-12.16c-.14,.09-2.28,1.46-2.33,3.69-.05,2.05,1.6,4.21,4.9,6.42,.03,.02,.94,.74,2.13,1.24,.97,.41,2.06,.29,2.93-.32,.9-.64,1.4-1.67,1.33-2.77-.16-2.62-.82-7.23-3.46-8.75-1.41-.81-3.26-.64-5.49,.49Z"></path>
    </g>
    <g>
      <path d="M283.14,92.68s-1.4-8.05-10.8-1.42c0,0-1.03,.6-1.97,1.57-1.74,1.8-.9,4.8,1.48,5.56,4.22,1.33,12.17,2.76,11.29-5.72Z" fill="#040200"></path>
      <path d="M277.51,99.7c-1.92,0-4-.48-5.74-1.03-1.24-.39-2.17-1.38-2.49-2.64-.31-1.22,.02-2.49,.89-3.39,.95-.99,1.98-1.6,2.03-1.62,3.4-2.4,6.19-3.19,8.28-2.32,2.41,1,2.93,3.82,2.95,3.94v.02c.28,2.7-.29,4.65-1.71,5.81-1.11,.9-2.6,1.24-4.2,1.24Zm1.17-10.77c-1.68,0-3.75,.86-6.18,2.57-.03,.02-1.03,.61-1.92,1.54-.73,.76-1.01,1.82-.75,2.85,.27,1.07,1.06,1.9,2.11,2.23,2.5,.79,7.05,1.82,9.41-.1,1.26-1.03,1.77-2.81,1.51-5.3-.03-.16-.54-2.65-2.61-3.5-.48-.2-1-.3-1.57-.3Z"></path>
    </g>
  </g>
  <path d="M107.21,120.63c-.09,0-.18-.02-.26-.07-.26-.15-.35-.47-.2-.73,13.04-23.07,34.36-19.31,34.57-19.26,.29,.06,.48,.34,.43,.63s-.34,.48-.63,.43c-.21-.04-20.78-3.64-33.43,18.74-.1,.18-.28,.27-.47,.27Z" fill="#fff"></path>
  <g>
    <path d="M133.3,134.57c-.12,0-.24-.04-.33-.13-.21-.18-.22-.5-.04-.7,.86-.96,3.14-2.48,5.66-1.29,.25,.12,.36,.42,.24,.67-.12,.25-.42,.36-.67,.24-2.47-1.16-4.41,.96-4.49,1.05-.1,.11-.24,.17-.37,.17Z"></path>
    <path d="M150.44,130.01c-.12,0-.24-.04-.33-.13-.21-.18-.22-.5-.04-.7,.85-.96,3.14-2.47,5.66-1.29,.25,.12,.36,.42,.24,.67-.12,.25-.42,.36-.67,.24-2.47-1.16-4.41,.96-4.49,1.05-.1,.11-.24,.17-.37,.17Z"></path>
    <ellipse cx="137.54" cy="137.68" rx="1.29" ry="2.15" transform="translate(-27.46 34.49) rotate(-13.01)"></ellipse>
    <ellipse cx="152.81" cy="133.76" rx="1.29" ry="2.15" transform="translate(-26.19 37.83) rotate(-13.01)"></ellipse>
    <path d="M148.07,144.8c-.73,0-1.47-.21-2.18-.62-.24-.14-.32-.45-.18-.68,.14-.24,.44-.32,.68-.18,1.27,.74,2.54,.64,3.78-.3,.11-.08,.12-.19,.11-.25,0-.05-.02-.17-.15-.25-3-1.74-4.83-6.15-4.91-6.34-.1-.26,.02-.55,.27-.65,.25-.1,.55,.02,.65,.27,.02,.04,1.78,4.28,4.49,5.85,.38,.22,.62,.61,.65,1.05,.03,.43-.16,.84-.5,1.11-.86,.66-1.79,.99-2.71,.99Z"></path>
    <path d="M148.07,151.96c-2.69,0-4.6-1.7-4.63-1.73-.2-.19-.22-.5-.03-.71,.19-.21,.5-.22,.71-.03,.16,.14,3.94,3.47,8.21-.35,.21-.18,.52-.17,.71,.04,.18,.21,.17,.52-.04,.71-1.75,1.56-3.45,2.07-4.92,2.07Z"></path>
  </g>
  <g>
    <path d="M643.81,163.93c-.11,0-.22-.03-.31-.11-2.36-1.85-4.95-.06-5.06,.01-.23,.16-.54,.11-.7-.12-.16-.23-.11-.54,.12-.7,.03-.02,3.3-2.3,6.26,.01,.22,.17,.25,.48,.08,.7-.1,.13-.25,.19-.39,.19Z"></path>
    <path d="M663.07,163.3c-.11,0-.22-.03-.31-.11-2.36-1.85-4.95-.06-5.06,.01-.23,.16-.54,.11-.7-.12-.16-.23-.11-.54,.12-.7,.03-.02,3.3-2.3,6.26,.01,.22,.17,.25,.48,.08,.7-.1,.13-.25,.19-.39,.19Z"></path>
    <ellipse cx="641.75" cy="168.29" rx="1.4" ry="2.33"></ellipse>
    <ellipse cx="658.88" cy="167.87" rx="1.4" ry="2.33"></ellipse>
    <path d="M652.13,178.46c-1.13,0-2.18-.43-3.09-1.29-.2-.19-.21-.51-.02-.71,.19-.2,.5-.21,.71-.02,1.47,1.39,3.05,1.1,4.12,.62,.16-.07,.19-.21,.2-.27,0-.06,.02-.21-.11-.33-2.74-2.57-3.6-7.66-3.63-7.88-.04-.27,.14-.53,.41-.57,.27-.05,.53,.14,.57,.41,0,.05,.84,4.98,3.33,7.31,.34,.31,.49,.77,.42,1.23-.07,.45-.36,.83-.78,1.02-.72,.33-1.44,.49-2.13,.49Z"></path>
    <path d="M652.28,187.03c-3.24,0-5.4-2.3-5.43-2.33-.19-.2-.17-.52,.03-.71s.52-.17,.71,.03c.16,.17,3.94,4.17,8.97,.43,.22-.16,.53-.12,.7,.1,.17,.22,.12,.54-.1,.7-1.78,1.32-3.43,1.78-4.88,1.78Z"></path>
  </g>
  <g>
    <path d="M445.02,320.32c-.14,0-.27-.06-.37-.17-.1-.11-2.45-2.68-5.45-1.27-.25,.12-.54,0-.66-.24-.12-.25,0-.54,.24-.66,3.69-1.73,6.58,1.48,6.61,1.51,.18,.2,.16,.52-.04,.7-.09,.08-.21,.12-.33,.12Z"></path>
    <path d="M424.66,314.9c-.14,0-.27-.06-.37-.17-.1-.11-2.44-2.68-5.45-1.27-.25,.12-.54,0-.66-.24-.12-.25,0-.54,.24-.66,3.69-1.73,6.58,1.48,6.61,1.51,.18,.21,.16,.52-.04,.7-.09,.08-.21,.12-.33,.12Z"></path>
    <ellipse cx="439.98" cy="324.11" rx="2.55" ry="1.53" transform="translate(25.15 679.84) rotate(-76.99)"></ellipse>
    <ellipse cx="421.84" cy="319.45" rx="2.55" ry="1.53" transform="translate(15.63 658.55) rotate(-76.99)"></ellipse>
    <path d="M427.47,332.47c-1.08,0-2.16-.39-3.16-1.15-.38-.29-.59-.75-.56-1.23,.03-.49,.3-.92,.72-1.17,3.24-1.88,5.35-6.95,5.37-7,.1-.25,.39-.38,.65-.27,.25,.1,.38,.39,.27,.65-.09,.22-2.25,5.43-5.79,7.48-.14,.08-.22,.21-.23,.37,0,.15,.05,.29,.17,.38,1.03,.79,2.66,1.49,4.6,.36,.23-.14,.54-.06,.68,.18,.14,.24,.06,.54-.18,.68-.83,.48-1.68,.73-2.54,.73Z"></path>
    <path d="M427.48,340.97c-1.73,0-3.72-.6-5.78-2.43-.2-.18-.22-.5-.04-.7,.18-.21,.49-.22,.7-.04,5.17,4.61,9.7,.59,9.89,.42,.2-.18,.52-.17,.7,.03,.18,.2,.17,.52-.03,.7-.03,.03-2.28,2.03-5.43,2.03Z"></path>
  </g>
  <g>
    <path d="M147.22,162.74v6.12s-5.83-.87-11.03-7.68c0,0,5.25,2.94,11.03,1.56Z" fill="#040200"></path>
    <path d="M147.72,169.44l-.57-.08c-.25-.04-6.09-.97-11.35-7.87l-1.46-1.91,2.1,1.17c.05,.03,5.16,2.83,10.67,1.51l.62-.15v7.33Zm-9.79-6.95c3.67,4.05,7.39,5.37,8.79,5.74v-4.88c-3.55,.68-6.8-.14-8.79-.87Z"></path>
  </g>
  <path d="M462.46,336.9h-5.24c-.27,0-.5-.22-.5-.5s.22-.5,.5-.5h5.24c.27,0,.5,.22,.5,.5s-.22,.5-.5,.5Z"></path>
  <path d="M120.99,146.86c-.22,0-.42-.15-.48-.37l-.88-3.27c-.07-.27,.08-.54,.35-.61,.27-.07,.54,.09,.61,.35l.88,3.27c.07,.27-.08,.54-.35,.61-.04,.01-.09,.02-.13,.02Z"></path>
</svg>
