<?xml version="1.0" encoding="UTF-8"?>
<svg xmlns="http://www.w3.org/2000/svg" id="a" width="865.76" height="682.89" viewBox="0 0 865.76 682.89">
  <g>
    <path d="M739.71,375.88l-4.87,16.66-11.33,38.81-3.67,12.62c-49.67-19.87-79.47-61-79.47-61-16.18-22.79-39.2-32.24-57.63-36.07-9.97-2.14-20.18-2.89-30.35-2.24h0c75.81-44.21,123.49-5.16,133,3.92,1.72,1.64,3.56,3.15,5.49,4.54,27.96,20.13,48.83,22.76,48.83,22.76Z" fill="#463f3a"></path>
    <path d="M719.84,444.47c-.06,0-.13-.01-.19-.04-49.24-19.7-79.39-60.76-79.69-61.17-16.49-23.23-40.28-32.33-57.33-35.87-9.92-2.13-20.09-2.88-30.22-2.23-.22,.04-.44-.13-.51-.35-.07-.22,.03-.46,.23-.58,76.47-44.6,124.7-4.5,133.6,3.99,1.7,1.61,3.53,3.13,5.44,4.5,27.54,19.83,48.39,22.64,48.6,22.67,.15,.02,.28,.1,.36,.22,.08,.12,.1,.27,.06,.42l-19.87,68.09c-.04,.14-.13,.25-.26,.31-.07,.03-.14,.05-.22,.05Zm-160.36-100.54c7.85,0,15.68,.83,23.36,2.48,17.22,3.58,41.25,12.78,57.93,36.27,.29,.4,30.08,40.96,78.74,60.62l19.56-67.01c-3.57-.61-23.29-4.62-48.48-22.76-1.94-1.39-3.81-2.94-5.54-4.58-8.73-8.34-55.79-47.46-130.59-4.9,1.67-.08,3.35-.11,5.03-.11Z" fill="#002346"></path>
  </g>
  <g>
    <path d="M712.61,366.31l-3.16,11.17-12.31-7.3s-10-7.56-19.2-13l-3.3-2,7.36-9.74,3.44,3s3.54,3.05,5.49,4.55l6.51,4.47,3.52,2.24,3.28,2s7.09,4.18,8.37,4.61Z" fill="#002346"></path>
    <path d="M709.76,378.24l-12.87-7.63c-.15-.11-10.13-7.64-19.2-13l-3.78-2.29,8.02-10.61,3.84,3.35s3.55,3.06,5.47,4.53l6.49,4.46,3.5,2.23,3.27,2c1.95,1.15,7.26,4.22,8.27,4.56l.45,.15-3.47,12.25Zm-34.38-23.2l2.83,1.71c9.11,5.39,19.14,12.95,19.24,13.03l11.71,6.94,2.86-10.12c-1.98-.91-7.76-4.31-8.02-4.47l-3.29-2-3.53-2.24-6.53-4.48c-1.96-1.51-5.5-4.55-5.53-4.58l-3.04-2.65-6.7,8.87Z" fill="#002346"></path>
  </g>
  <g>
    <path d="M244.84,371.41l-17.37-4.07s-7.1,12.77-5.68,25.54l13.19,6.32s3.07-16.64,9.86-27.79Z" fill="#f2b3c1"></path>
    <path d="M235.36,399.93l-14.03-6.72-.03-.28c-1.42-12.78,5.67-25.71,5.74-25.84l.18-.33,18.41,4.31-.36,.59c-6.66,10.94-9.76,27.46-9.79,27.62l-.12,.64Zm-13.1-7.38l12.36,5.92c.63-3.11,3.67-16.89,9.44-26.73l-16.33-3.83c-1.07,2.06-6.61,13.39-5.47,24.64Z" fill="#002346"></path>
  </g>
  <g>
    <path d="M197.63,378.69l-2.56-.64c-1.42-.35-2.28-1.79-1.93-3.21,.04-.16,.1-.32,.17-.48l6.78-14.48c1.04-2.2,3.52-3.33,5.87-2.67l21.23,6.08c1.04,.28,1.65,1.34,1.37,2.37-.06,.22-.16,.44-.29,.63-2.43,3.44-6.52,11.59-6.52,26.59,0,0,2.84,4.26-7.09,14.19,0,0-11.35,11.36-11.35,17,0,0-2.84,11.36-15.61,8.52,0,0-7.1-2.84-2.84-15.61-.02,.03,5.67-29.77,12.77-38.29Z" fill="#463f3a"></path>
    <path d="M191.59,433.55c-1.21,0-2.54-.14-3.99-.47-.38-.15-7.57-3.19-3.21-16.26h.03c.22-1.79,2.11-10.11,3.69-15.93,2.91-10.74,5.82-18.1,8.66-21.9l-1.81-.45c-.82-.2-1.5-.71-1.94-1.43-.43-.72-.56-1.57-.36-2.38,.05-.19,.12-.38,.2-.57l6.78-14.48c1.15-2.43,3.87-3.66,6.46-2.94l21.23,6.08c.62,.17,1.15,.57,1.47,1.13,.33,.56,.41,1.22,.25,1.85-.08,.28-.2,.55-.37,.79-2.39,3.39-6.4,11.29-6.43,26.17,.44,.87,1.99,5.45-7.24,14.67-.11,.11-11.2,11.28-11.2,16.65,0,.04,0,.08-.01,.12-.03,.11-2.46,9.35-12.21,9.35Zm-6.23-16.5s-.01,.06-.02,.09c-4.04,12.12,2.28,14.88,2.55,14.99,11.73,2.61,14.67-7.19,14.92-8.12,.08-5.8,11.03-16.82,11.5-17.29,9.42-9.42,7.05-13.52,7.02-13.57-.05-.08-.08-.18-.08-.27,0-15.24,4.14-23.38,6.61-26.88,.1-.14,.18-.3,.22-.47,.1-.37,.05-.76-.14-1.09s-.5-.57-.88-.67l-21.24-6.08c-2.11-.59-4.34,.42-5.28,2.4l-6.78,14.48c-.06,.12-.1,.25-.14,.38-.14,.56-.05,1.14,.24,1.63,.29,.49,.76,.84,1.32,.98l2.56,.64c.17,.04,.3,.17,.35,.33,.05,.16,.02,.34-.09,.48-6.97,8.37-12.55,37.43-12.66,38.04Z" fill="#002346"></path>
  </g>
  <g>
    <path d="M245.61,370.07c-2.27,3.58-8.33,14.63-11.9,35.58-.38,2.19,.78,4.36,2.81,5.27l74,33s18.56,14.91,42.93-10.28c0,0,99.58-79.12,76.88-124.53l-56.74-19.85-50.36,96.72-75.28-16.94c-.92-.18-1.85,.23-2.34,1.03Z" fill="#F4F3EE"></path>
    <path d="M324.89,448.74c-8.53,0-14.01-3.93-14.62-4.39l-73.95-32.98c-2.24-1-3.52-3.39-3.1-5.81,3.55-20.83,9.55-31.94,11.97-35.76,.59-.97,1.75-1.48,2.86-1.26l74.92,16.86,50.38-96.76,.41,.14,56.93,19.92,.09,.18c9.38,18.76-.99,46.37-30,79.84-21.83,25.2-46.77,45.1-47.02,45.3-11.19,11.57-21.25,14.71-28.88,14.71Zm-77.37-79.25c-.59,0-1.16,.31-1.48,.83h0c-2.38,3.77-8.31,14.74-11.83,35.4-.34,1.97,.69,3.92,2.52,4.73l74.06,33.03,.05,.04c.18,.15,18.51,14.31,42.26-10.24,1.04-.83,98.79-79.22,76.88-123.78l-56.14-19.64-50.34,96.68-.38-.08-75.28-16.94c-.11-.02-.22-.03-.33-.03Z" fill="#002346"></path>
  </g>
  <g>
    <path d="M478.27,264l14.92,13s9.43,6.64,19.42-7.56c0,0,25.6-35.47,37-65.27,0,0,32.64-1.42,28.38-12.77,0,0,4.26-5.68-1.42-8.52,0,0,3-2.36-.51-6.07-.04-.04-.02-.11,.04-.12,1.26-.21,11.46-2.06,14.06-6.08,.54-.88,.25-2.03-.63-2.57-.24-.14-.5-.23-.77-.26-2.41-.29-7.69,.15-19.28,3.75,0,0-21.29,7.09-28.39,18.45l-42.57,51.08-5-5s-5.68,18.27-15.25,27.94Z" fill="#f2b3c1"></path>
    <path d="M498.8,279.05c-3.52,0-5.79-1.57-5.89-1.64l-15.36-13.38,.38-.38c9.37-9.47,15.07-27.56,15.13-27.74l.25-.79,5.2,5.2,42.22-50.66c7.07-11.33,27.74-18.31,28.62-18.6,11.73-3.65,17.07-4.07,19.5-3.77,.34,.04,.67,.15,.97,.33,1.12,.68,1.47,2.14,.8,3.26-2.42,3.74-10.67,5.61-13.65,6.18,.96,1.19,1.4,2.39,1.32,3.55-.07,.98-.51,1.71-.87,2.16,1.36,.82,2.2,1.9,2.51,3.2,.56,2.39-.85,4.78-1.35,5.51,.58,1.74,.39,3.36-.58,4.83-4.54,6.87-25.03,8.19-28,8.35-11.35,29.46-36.69,64.72-36.94,65.08-5.28,7.5-10.44,9.2-13.85,9.31-.13,0-.25,0-.38,0Zm-19.8-15.08l14.52,12.65c.33,.22,9.12,6.12,18.68-7.47,.26-.36,25.7-35.76,36.94-65.16l.12-.31h.33c.23-.02,23.02-1.09,27.54-7.93,.84-1.27,.97-2.64,.39-4.18l-.1-.26,.16-.22s1.89-2.56,1.33-4.91c-.28-1.18-1.15-2.15-2.57-2.86l-.71-.35,.62-.49s.91-.75,1-1.98c.07-1.05-.45-2.18-1.56-3.36l-.21-.22,.08-.36c.07-.2,.24-.34,.45-.37,1.14-.19,11.23-2.01,13.72-5.86,.38-.63,.18-1.48-.47-1.87-.17-.1-.37-.17-.57-.19-2.32-.28-7.52,.14-19.08,3.73-.2,.07-21.19,7.16-28.12,18.24l-42.96,51.56-4.81-4.81c-1.2,3.56-6.54,18.41-14.75,26.98Z" fill="#002346"></path>
  </g>
  <g>
    <path d="M553.98,178.63s2.17,3.43,7.77,3.08c1.07-.09,2.12-.35,3.11-.76,2-.79,6-1.87,6.21,2.23,0,.35-.16,.67-.45,.86-1.18,.78-4.75,2.84-11.35,4.2,0,0,2.08,4.79-8.07,5.38" fill="#f2b3c1"></path>
    <path d="M551.2,194.12c-.26,0-.48-.21-.5-.47-.02-.28,.19-.51,.47-.53,4.97-.29,6.78-1.59,7.41-2.62,.65-1.06,.23-2.05,.23-2.06-.06-.14-.05-.3,.02-.43s.2-.23,.34-.26c6.46-1.33,9.97-3.33,11.17-4.13,.15-.1,.23-.26,.23-.43-.05-1.03-.38-1.75-.97-2.13-1.21-.78-3.38-.12-4.56,.35-1.03,.43-2.13,.7-3.25,.79-5.85,.34-8.14-3.16-8.24-3.31-.15-.23-.08-.54,.15-.69,.23-.15,.54-.08,.69,.15,.08,.13,2.11,3.18,7.32,2.85,1.01-.09,2-.33,2.95-.72,1.67-.66,3.97-1.24,5.48-.26,.87,.56,1.35,1.55,1.42,2.93,.01,.53-.24,1.02-.67,1.3-1.22,.81-4.7,2.8-11,4.16,.1,.56,.12,1.47-.46,2.4-1.11,1.8-3.87,2.85-8.21,3.1,0,0-.02,0-.03,0Z" fill="#002346"></path>
  </g>
  <g>
    <path d="M330.84,228.78l27.1,19.36-5.67,34.06,78,27s22.7-25.54,29.8-61l15.61,17s5.67,1.42,19.86-29.8l-22.7-30.41c-1.93-2.57-4.15-4.92-6.6-7-7.29-6.22-23-18.85-29.15-17.84l-28-4.34s-32.64-4.26-62.44,28.38l-16.38,20.09c-1.09,1.33-.9,3.3,.43,4.39,.05,.04,.09,.07,.14,.11Z" fill="#463f3a"></path>
    <path d="M430.27,309.7c-.05,0-.11,0-.16-.03l-78-27c-.23-.08-.37-.31-.33-.55l5.62-33.75-26.85-19.18c-.06-.04-.12-.09-.17-.13-1.54-1.26-1.76-3.55-.49-5.09l16.38-20.09c29.65-32.48,62.56-28.6,62.89-28.56l27.94,4.33c6.25-.91,21.14,10.85,29.47,17.97,2.48,2.1,4.72,4.49,6.67,7.08l22.7,30.41c.11,.15,.13,.34,.05,.51-13.97,30.73-19.83,30.23-20.44,30.08-.1-.02-.18-.08-.25-.15l-14.95-16.28c-7.26,34.7-29.5,60.02-29.72,60.27-.1,.11-.23,.17-.37,.17Zm-77.44-27.83l77.28,26.75c2.34-2.74,22.85-27.45,29.47-60.52,.04-.18,.17-.33,.36-.38,.18-.05,.38,0,.5,.14l15.47,16.85c.83-.12,6.61-1.92,19.06-29.25l-22.52-30.17c-1.91-2.53-4.1-4.86-6.52-6.92-6.63-5.66-22.72-18.71-28.75-17.73-.05,0-.1,0-.16,0l-28-4.34c-.32-.04-32.73-3.83-61.99,28.22l-16.36,20.07c-.45,.54-.65,1.22-.58,1.92,.07,.7,.4,1.32,.94,1.77,.04,.03,.08,.06,.11,.09h0l27.1,19.36c.16,.11,.23,.3,.2,.49l-5.6,33.64Z" fill="#002346"></path>
  </g>
  <g>
    <path d="M616.26,218.34l-22.71-12.77,68.45-44.91,5.07,81.71-24.23-12.58s-18.85,25.43-57.51,43.78c-1.58,.75-3.2,1.43-4.82,2.11-5.54,2.32-25.83,12.55-44.1,44.11-1.52,2.64-3.09,5.26-4.67,7.86-8,13.19-31.54,53.48-43.2,90.78,0,0-29.8,88-107.85,114.94-78.05,26.94-126.3,7.1-126.3,7.1,0,0-41.15-14.19-79.47,1.41,0,0-25.54,7.09-46.83,25.54l-14.19-24.12s48.65-36.21,104.53-35.88c9.69,.13,19.31,1.69,28.55,4.64,24,7.42,96.4,23.87,159.25-22.69,0,0,39.74-28.38,62.44-97.92,0,0,38.72-99,86.06-131.79,5.99-3.9,12.28-7.3,18.83-10.16,11.16-4.98,21.61-11.42,31.08-19.14,4.84-3.98,9.25-8.24,11.62-12.02Z" fill="#463f3a"></path>
    <path d="M128.09,567.92s-.05,0-.08,0c-.15-.02-.27-.11-.35-.24l-14.19-24.12c-.13-.22-.07-.5,.13-.66,.49-.36,48.99-35.98,104.08-35.98,.25,0,.5,0,.75,0,9.75,.13,19.41,1.7,28.7,4.66,27.21,8.41,97.16,23.05,158.8-22.61,.4-.29,39.88-29.11,62.26-97.67,.4-1.02,39.33-99.54,86.25-132.04,6-3.91,12.36-7.34,18.91-10.21,11.11-4.96,21.53-11.38,30.96-19.07,5.31-4.36,9.08-8.21,11.23-11.46l-22.25-12.51c-.15-.08-.25-.24-.25-.42,0-.17,.08-.34,.23-.43l68.45-44.91c.15-.1,.34-.11,.5-.03s.26,.24,.28,.42l5.07,81.71c.01,.18-.08,.35-.23,.45-.15,.1-.34,.11-.5,.02l-23.86-12.39c-2.41,3.09-21.51,26.54-57.44,43.59-1.61,.76-3.25,1.45-4.84,2.12-5.71,2.39-25.76,12.63-43.86,43.9-1.33,2.3-2.81,4.8-4.67,7.87-9.19,15.15-31.78,54.31-43.15,90.67-.08,.23-7.67,22.37-24.72,47.5-15.74,23.21-43,53.8-83.44,67.76-77.33,26.69-126.17,7.29-126.65,7.09-.38-.13-41.39-13.94-79.09,1.41-.31,.09-25.74,7.29-46.69,25.46-.09,.08-.21,.12-.33,.12Zm-13.53-24.48l13.66,23.21c21.04-18.03,46.31-25.18,46.57-25.25,38-15.47,79.35-1.54,79.77-1.4,.51,.21,49.02,19.46,125.97-7.1,40.18-13.87,67.27-44.28,82.93-67.36,16.98-25.02,24.54-47.05,24.61-47.27,11.4-36.46,34.04-75.7,43.25-90.88,1.86-3.06,3.34-5.55,4.66-7.85,18.26-31.54,38.55-41.9,44.34-44.32,1.58-.66,3.21-1.35,4.8-2.1,38.09-18.08,57.13-43.37,57.32-43.62,.15-.2,.41-.26,.63-.15l23.45,12.17-4.96-79.97-67.04,43.99,21.99,12.37c.12,.07,.21,.18,.24,.31,.03,.13,.01,.27-.06,.39-2.15,3.42-6.09,7.51-11.73,12.14-9.5,7.75-20,14.21-31.19,19.21-6.5,2.84-12.82,6.25-18.76,10.12-46.66,32.32-85.48,130.56-85.87,131.55-22.48,68.87-62.22,97.86-62.61,98.15-27.08,20.06-58.87,30.72-94.47,31.68-29.08,.78-53.35-5.25-65.22-8.92-9.2-2.93-18.76-4.49-28.41-4.62-.25,0-.5,0-.75,0-52.25,0-98.56,32.25-103.11,35.52Z" fill="#002346"></path>
  </g>
  <polygon points="722.4 436.11 721.92 435.97 723.31 431.04 723.8 431.16 723.76 431.42 722.4 436.11" fill="red"></polygon>
  <g>
    <path d="M722.16,385.02l3-13.23c4.76,1.66,9.62,3.03,14.55,4.09l-4.87,16.66-12.68-7.52Z" fill="#002346"></path>
    <path d="M735.14,393.3l-13.55-8.04,3.2-14.13,.53,.18c4.73,1.65,9.6,3.02,14.49,4.07l.53,.11-5.2,17.79Zm-12.41-8.52l11.81,7.01,4.54-15.53c-4.57-1.01-9.13-2.29-13.56-3.81l-2.8,12.33Z" fill="#002346"></path>
  </g>
  <g>
    <path d="M655.01,329.96s-3.28,9-6.12,13.26c5.39,1.85,10.65,4.05,15.74,6.6l6-12.33s-10.38-5.61-15.62-7.53Z" fill="#002346"></path>
    <path d="M664.86,350.49l-.45-.23c-5.06-2.53-10.33-4.74-15.68-6.57l-.61-.21,.36-.54c2.77-4.16,6.03-13.06,6.07-13.15l.17-.47,.47,.17c5.21,1.91,15.58,7.5,15.69,7.56l.42,.23-6.43,13.21Zm-15.2-7.54c5.02,1.75,9.98,3.83,14.75,6.19l5.57-11.44c-1.93-1.03-10.02-5.31-14.67-7.1-.69,1.84-3.25,8.49-5.65,12.35Z" fill="#002346"></path>
  </g>
  <g>
    <path d="M622.91,323.94s-1,9.89-3.82,12.45c5.35,.45,10.66,1.23,15.91,2.36,0,0,4.1-8.33,3.32-13.28-5.1-.84-10.25-1.35-15.41-1.53Z" fill="#002346"></path>
    <path d="M635.28,339.32l-.38-.08c-5.21-1.12-10.54-1.91-15.85-2.35l-1.15-.1,.85-.77c2.65-2.4,3.65-12.03,3.66-12.13l.05-.46,.47,.02c5.17,.18,10.38,.7,15.47,1.54l.36,.06,.06,.36c.79,5.05-3.2,13.23-3.37,13.58l-.17,.35Zm-15.17-3.34c4.9,.45,9.81,1.19,14.61,2.2,.73-1.57,3.6-8.08,3.16-12.28-4.79-.77-9.67-1.26-14.52-1.45-.22,1.85-1.14,8.54-3.25,11.52Z" fill="#002346"></path>
  </g>
  <g>
    <path d="M584.63,329.96c.16,2.89-.69,5.74-2.41,8.07l13.68-1.54s4.12-5.15,4.43-10.57c-5.31,1.03-10.55,2.37-15.7,4.04Z" fill="#002346"></path>
    <path d="M581.14,338.66l.68-.92c1.64-2.23,2.47-4.98,2.31-7.75l-.02-.38,.37-.12c5.15-1.67,10.45-3.03,15.76-4.06l.63-.12-.04,.64c-.32,5.52-4.37,10.64-4.54,10.85l-.13,.16-15.03,1.69Zm4.01-8.33c.06,2.5-.6,4.97-1.91,7.09l12.39-1.39c.65-.86,3.64-5.04,4.14-9.48-4.93,.98-9.84,2.25-14.63,3.78Z" fill="#002346"></path>
  </g>
  <g>
    <path d="M595.9,336.49l-2.33,4.49s10.3,1,19.33,2.34c2.46-1.93,4.55-4.27,6.19-6.93,0,0-13.74-.95-23.19,.1Z" fill="#002346"></path>
    <path d="M613.04,343.85l-.21-.03c-8.92-1.32-19.2-2.33-19.3-2.34l-.74-.07,2.79-5.38,.26-.03c9.39-1.04,23.14-.11,23.28-.1l.83,.06-.43,.7c-1.67,2.72-3.8,5.09-6.31,7.06l-.17,.13Zm-18.69-3.29c2.5,.25,10.9,1.13,18.41,2.24,2.12-1.69,3.96-3.69,5.45-5.96-3.1-.18-14.05-.72-21.99,.12l-1.87,3.6Z" fill="#002346"></path>
  </g>
  <g>
    <path d="M648.89,343.22l-7.32,8.54c-4.51-1.86-9-3.42-13.38-4.74,1.59-1.28,5.89-5,6.81-8.27,0,0,8.22,1.63,13.89,4.47Z" fill="#002346"></path>
    <path d="M641.72,352.36l-.33-.14c-4.21-1.74-8.7-3.33-13.33-4.72l-.91-.27,.74-.59c1.33-1.07,5.74-4.82,6.64-8.02l.12-.44,.45,.09c.08,.02,8.35,1.68,14.02,4.51l.57,.29-7.97,9.3Zm-12.49-5.55c4.23,1.3,8.33,2.76,12.2,4.35l6.66-7.77c-4.75-2.25-11.06-3.69-12.75-4.05-1.03,2.86-4.2,5.86-6.11,7.48Z" fill="#002346"></path>
  </g>
  <g>
    <path d="M655.93,358.64l8.7-8.82,10,5.4-8.52,9.56s-3.14-2.08-10.18-6.14Z" fill="#002346"></path>
    <path d="M666.2,365.44l-.36-.24s-3.21-2.12-10.15-6.12l-.56-.32,9.42-9.55,10.89,5.88-9.23,10.36Zm-9.46-6.91c5.3,3.07,8.3,4.96,9.28,5.6l7.81-8.77-9.11-4.92-7.98,8.09Z" fill="#002346"></path>
  </g>
  <g>
    <polygon points="679.37 373.63 685.93 362.27 697.14 370.18 692.38 382.68 679.37 373.63" fill="#002346"></polygon>
    <path d="M692.62,383.46l-13.91-9.68,7.06-12.23,11.97,8.45-5.13,13.46Zm-12.59-9.97l12.11,8.42,4.39-11.54-10.45-7.37-6.06,10.49Z" fill="#002346"></path>
  </g>
  <g>
    <polygon points="705.45 392.26 709.45 377.48 722.16 385.02 718.37 402.6 705.45 392.26" fill="#002346"></polygon>
    <path d="M718.69,403.5l-13.81-11.05,4.26-15.73,13.58,8.06-4.04,18.72Zm-12.67-11.42l12.03,9.63,3.54-16.44-11.83-7.02-3.74,13.83Z" fill="#002346"></path>
  </g>
  <g>
    <path d="M718.37,402.6l-8.61,19.62s10.26,7.84,13.72,9.12l5.24-18.62c-2.98-3.82-6.47-7.22-10.35-10.12Z" fill="#002346"></path>
    <path d="M723.82,432l-.51-.19c-3.49-1.29-13.43-8.87-13.85-9.19l-.31-.24,9.02-20.56,.5,.38c3.92,2.92,7.43,6.36,10.44,10.21l.16,.2-5.45,19.39Zm-13.44-9.94c1.65,1.25,9.41,7.06,12.78,8.6l5.02-17.83c-2.79-3.54-6.02-6.71-9.6-9.45l-8.2,18.68Z" fill="#002346"></path>
  </g>
  <g>
    <polygon points="684.51 402.07 692.38 382.68 705.45 392.26 697.46 412.65 684.51 402.07" fill="#002346"></polygon>
    <path d="M697.68,413.47l-13.77-11.25,8.25-20.33,13.9,10.19-8.38,21.39Zm-12.56-11.55l12.13,9.91,7.6-19.39-12.24-8.97-7.49,18.45Z" fill="#002346"></path>
  </g>
  <g>
    <polygon points="668.58 388.64 679.37 373.63 666.12 364.78 654.08 376.14 668.58 388.64" fill="#002346"></polygon>
    <path d="M668.67,389.38l-15.33-13.22,12.73-12.01,14.01,9.36-11.41,15.87Zm-13.84-13.25l13.67,11.78,10.17-14.15-12.49-8.34-11.35,10.71Z" fill="#002346"></path>
  </g>
  <g>
    <path d="M630.37,360.31l11.2-8.55,14.36,6.88-12.78,8.63s-8.59-5.47-12.78-6.96Z" fill="#002346"></path>
    <path d="M643.16,367.87l-.28-.18c-.08-.05-8.59-5.46-12.68-6.91l-.87-.31,12.18-9.29,15.42,7.39-13.77,9.3Zm-11.78-7.7c3.96,1.64,10.33,5.61,11.76,6.51l11.79-7.96-13.3-6.37-10.25,7.82Z" fill="#002346"></path>
  </g>
  <g>
    <path d="M631.61,372.47l11.54-5.2,10.93,8.87-12.94,7.82s-8.37-10.61-9.53-11.49Z" fill="#002346"></path>
    <path d="M641.02,384.62l-.27-.35c-3.35-4.25-8.63-10.78-9.44-11.4l-.67-.51,12.59-5.67,11.72,9.51-13.93,8.42Zm-8.54-11.99c1.96,2.09,7.34,8.87,8.78,10.68l11.95-7.22-10.14-8.23-10.59,4.77Z" fill="#002346"></path>
  </g>
  <g>
    <path d="M601.59,350.68l11.31-7.36s8.78,1.83,15.29,3.7l-11.94,7.86s-12.29-3.84-14.66-4.2Z" fill="#002346"></path>
    <path d="M616.33,355.43l-.23-.07c-.12-.04-12.28-3.83-14.59-4.18l-1.3-.2,12.58-8.19,.2,.04c.09,.02,8.87,1.86,15.33,3.71l1.05,.3-13.05,8.59Zm-13.46-4.99c3.54,.86,11.78,3.42,13.3,3.89l10.83-7.13c-5.72-1.58-12.73-3.08-14-3.35l-10.13,6.59Z" fill="#002346"></path>
  </g>
  <g>
    <path d="M658.59,403.25l10-14.61,15.93,13.43-9.87,15.27s-10.62-7.99-16.06-14.09Z" fill="#002346"></path>
    <path d="M674.78,418.06l-.43-.32c-.11-.08-10.72-8.09-16.13-14.16l-.26-.29,10.53-15.39,16.69,14.07-10.4,16.09Zm-15.55-14.85c4.79,5.26,13.3,11.88,15.3,13.41l9.34-14.45-15.17-12.79-9.47,13.83Z" fill="#002346"></path>
  </g>
  <g>
    <path d="M697.46,412.65l-8.15,15.29s6.58,4.42,13.59,8.1l6.86-13.82-12.3-9.57Z" fill="#002346"></path>
    <path d="M703.12,436.72l-.45-.24c-6.95-3.65-13.57-8.08-13.64-8.13l-.38-.25,8.64-16.21,13.09,10.19-7.27,14.64Zm-13.16-8.95c1.46,.96,6.92,4.51,12.72,7.58l6.45-13-11.51-8.95-7.66,14.36Z" fill="#002346"></path>
  </g>
  <g>
    <path d="M741.38,372.6l-76.88,253.17h11.52l75.6-250.06c.86-2.83-.74-5.82-3.56-6.67-.1-.03-.21-.06-.32-.09h0c-2.75-.66-5.54,.94-6.36,3.65Z" fill="#fff"></path>
    <path d="M676.39,626.27h-12.57l.2-.65,76.88-253.17c.89-2.96,3.94-4.71,6.96-3.99,.11,.03,.23,.06,.34,.09,3.09,.94,4.84,4.21,3.9,7.3l-75.71,250.41Zm-11.22-1h10.47l75.49-249.7c.38-1.24,.25-2.55-.36-3.7-.61-1.14-1.63-1.98-2.87-2.36-.09-.03-.19-.05-.29-.08-2.49-.6-5.03,.85-5.77,3.31h0s-76.68,252.53-76.68,252.53Z" fill="#002346"></path>
  </g>
  <path d="M616.25,623.27h-25.54c-.28,0-.5-.22-.5-.5v-182.1c0-3.15,2.56-5.71,5.71-5.71h15.12c3.15,0,5.71,2.56,5.71,5.71v182.1c0,.28-.22,.5-.5,.5Zm-25.04-1h24.54v-181.6c0-2.6-2.11-4.71-4.71-4.71h-15.12c-2.6,0-4.71,2.11-4.71,4.71v181.6Z" fill="#002346"></path>
  <g>
    <rect x="590.71" y="480.87" width="25.54" height="141.91" fill="#F4F3EE"></rect>
    <path d="M616.75,623.28h-26.54v-142.91h26.54v142.91Zm-25.54-1h24.54v-140.91h-24.54v140.91Z" fill="#002346"></path>
  </g>
  <path d="M555.23,623.27h-25.54c-.28,0-.5-.22-.5-.5v-158.69c0-1.53,.6-2.96,1.68-4.04,1.08-1.07,2.51-1.66,4.03-1.66h15.12c3.15,0,5.71,2.56,5.71,5.71v158.68c0,.28-.22,.5-.5,.5Zm-25.04-1h24.54v-158.18c0-2.6-2.11-4.71-4.71-4.71h-15.12c-1.25,0-2.43,.49-3.32,1.37-.89,.89-1.38,2.07-1.39,3.33v158.19Z" fill="#002346"></path>
  <g>
    <rect x="529.69" y="524.86" width="25.54" height="97.92" fill="#002346"></rect>
    <path d="M555.73,623.28h-26.54v-98.92h26.54v98.92Zm-25.54-1h24.54v-96.92h-24.54v96.92Z" fill="#002346"></path>
  </g>
  <path d="M430.35,623.27h-25.51c-.28,0-.5-.22-.5-.5v-69.28c0-3.14,2.55-5.71,5.69-5.72h15.11c3.15,0,5.71,2.56,5.71,5.71v69.29c0,.28-.22,.5-.5,.5Zm-25.01-1h24.51v-68.79c0-2.6-2.11-4.71-4.71-4.71h-15.11c-2.59,0-4.7,2.13-4.69,4.72v68.78Z" fill="#002346"></path>
  <g>
    <rect x="404.81" y="567.43" width="25.54" height="55.34" fill="#002346"></rect>
    <path d="M430.85,623.27h-26.54v-56.34h26.54v56.34Zm-25.54-1h24.54v-54.34h-24.54v54.34Z" fill="#002346"></path>
  </g>
  <path d="M306.89,624.43h-25.54c-.28,0-.5-.23-.5-.5v-50.46c0-3.21,2.56-5.82,5.71-5.82h15.12c3.15,0,5.71,2.61,5.71,5.82v50.46c0,.28-.23,.5-.5,.5Zm-25.04-1.01h24.53v-49.96c0-2.65-2.11-4.81-4.71-4.81h-15.12c-2.59,0-4.71,2.16-4.71,4.81v49.96Z" fill="#002346"></path>
  <g>
    <rect x="281.35" y="584.8" width="25.54" height="39.12" fill="#e6e7e8"></rect>
    <path d="M307.38,624.41h-26.51v-40.09h26.51v40.09Zm-25.54-.97h24.57v-38.14h-24.57v38.14Z" fill="#002346"></path>
  </g>
  <path d="M244.45,624.43h-25.53c-.28,0-.51-.23-.51-.51v-23.38c0-3.27,2.56-5.94,5.71-5.95h15.12c3.15,0,5.72,2.66,5.72,5.94v23.39c0,.28-.23,.51-.51,.51Zm-25.02-1.02h24.51v-22.88c0-2.71-2.11-4.92-4.7-4.92h-15.12c-2.59,0-4.7,2.21-4.69,4.92v22.87Z" fill="#002346"></path>
  <g>
    <rect x="218.92" y="612.1" width="25.54" height="11.82" fill="#e6e7e8"></rect>
    <path d="M244.96,624.41h-26.52v-12.81h26.52v12.81Zm-25.54-.98h24.56v-10.84h-24.56v10.84Z" fill="#002346"></path>
  </g>
  <path d="M183.43,623.29h-25.53c-.28,0-.5-.22-.5-.5v-9c0-3.15,2.56-5.71,5.71-5.71h15.11c3.15,0,5.71,2.56,5.71,5.71v9c0,.28-.22,.5-.5,.5Zm-25.03-1h24.53v-8.5c0-2.6-2.11-4.71-4.71-4.71h-15.11c-2.6,0-4.71,2.11-4.71,4.71v8.5Z" fill="#002346"></path>
  <g>
    <rect x="157.9" y="617.1" width="25.54" height="5.68" fill="#002346"></rect>
    <path d="M183.94,623.28h-26.54v-6.68h26.54v6.68Zm-25.54-1h24.54v-4.68h-24.54v4.68Z" fill="#002346"></path>
  </g>
  <path d="M367.91,623.27h-25.54c-.28,0-.5-.22-.5-.5v-22.45c0-1.52,.59-2.96,1.66-4.04,1.08-1.08,2.51-1.68,4.04-1.68h15.13c3.15,0,5.71,2.56,5.71,5.71v22.46c0,.28-.22,.5-.5,.5Zm-25.04-1h24.54v-21.96c0-2.6-2.11-4.71-4.71-4.71h-15.13c-1.26,0-2.44,.5-3.33,1.39-.89,.89-1.38,2.08-1.37,3.33v21.95Z" fill="#002346"></path>
  <g>
    <rect x="342.37" y="614.26" width="25.54" height="8.51" fill="#F4F3EE"></rect>
    <path d="M368.41,623.27h-26.54v-9.51h26.54v9.51Zm-25.54-1h24.54v-7.51h-24.54v7.51Z" fill="#002346"></path>
  </g>
  <path d="M492.84,623.31h-25.59c-.28,0-.5-.22-.5-.5v-57.93c-.01-1.52,.57-2.96,1.63-4.05s2.5-1.7,4.02-1.71h15.17c1.51,.02,2.96,.56,4.05,1.63s1.7,2.5,1.71,4.02v58.04c0,.28-.22,.5-.5,.5Zm-25.09-1h24.59v-57.43c-.01-1.35-.51-2.53-1.41-3.41-.9-.88-2.08-1.33-3.34-1.35h-15.14c-1.29,.01-2.47,.51-3.35,1.41s-1.36,2.09-1.35,3.34v57.43Z" fill="#002346"></path>
  <g>
    <rect x="467.25" y="585.05" width="25.54" height="37.73" fill="#e6e7e8"></rect>
    <path d="M493.28,623.26h-26.5v-38.69h26.5v38.69Zm-25.54-.96h24.58v-36.76h-24.58v36.76Z" fill="#002346"></path>
  </g>
  <g>
    <path d="M207.48,270.08l-.92,.93-.05,.05c-.46,.39-.96,.73-1.5,1-2.64,1.28-5.89,.81-9.37-1h0c-6.43-3.45-13.57-11.64-18.78-22.39-8-16.58-8.45-33-.93-36.62,.84-.4,1.75-.63,2.68-.68h.14c7.57-.41,18.24,9.46,25.33,24.11,7,14.4,8.22,28.78,3.4,34.6Z" fill="#fff"></path>
    <path d="M201.74,273.28c-1.93,0-4.06-.59-6.33-1.77-6.8-3.65-13.9-12.1-19-22.62-3.9-8.09-6.15-16.39-6.33-23.38-.19-7.13,1.82-12.07,5.64-13.91,.91-.43,1.87-.68,2.87-.73h.16c7.92-.45,18.73,9.83,25.78,24.39,6.95,14.3,8.35,29.08,3.33,35.14l-.03,.03-1,1.01c-.49,.42-1.03,.78-1.6,1.07-1.06,.51-2.23,.77-3.5,.77Zm-22.51-61.42c-.15,0-.3,0-.45,.01h-.17c-.84,.04-1.68,.26-2.46,.63-3.44,1.66-5.25,6.27-5.07,12.99,.18,6.84,2.39,15,6.24,22.97,5,10.33,11.95,18.61,18.57,22.17,3.46,1.8,6.54,2.14,8.92,.99,.5-.25,.97-.56,1.39-.93l.93-.94c4.76-5.78,3.3-20.1-3.48-34.05-6.74-13.93-16.92-23.84-24.41-23.84Z" fill="#002346"></path>
  </g>
  <g>
    <path d="M207.48,270.08c2-2.46,3-6.43,2.89-11.3-.13-6.64-2.25-15-6.3-23.34-7.09-14.65-17.76-24.52-25.33-24.11l45.23-6.67,2-.29c.97-.15,1.96,.16,2.68,.83,3.51,3.27,13.62,13.77,14.37,27.16,.05,1.02-.34,2-1.06,2.72l-34.48,35Z" fill="#463f3a"></path>
    <path d="M207.48,270.58c-.12,0-.24-.04-.33-.13-.2-.18-.22-.48-.05-.69,1.9-2.33,2.88-6.23,2.78-10.97-.13-6.8-2.41-15.23-6.25-23.13-6.88-14.22-17.33-24.24-24.85-23.83-.3,.03-.5-.18-.52-.45-.03-.27,.16-.51,.42-.54l47.23-6.96c1.13-.17,2.26,.18,3.09,.96,4.12,3.84,13.78,14.2,14.53,27.5,.05,1.16-.39,2.29-1.21,3.1l-34.48,35c-.1,.1-.23,.15-.36,.15Zm-25.14-59.28c7.37,2.18,16.16,11.48,22.18,23.92,3.96,8.15,6.21,16.51,6.35,23.55,.07,3.25-.33,6.08-1.18,8.36l31.92-32.4c.62-.62,.96-1.47,.92-2.35-.72-12.93-10.18-23.06-14.21-26.82-.61-.57-1.44-.83-2.26-.7l-2,.29-41.7,6.15Z" fill="#002346"></path>
  </g>
  <g>
    <path d="M188.18,254.77c1.59-1.93,.91-6.66-1.78-11.29-2.44-4.21-5.76-7.05-8.2-7.2l18.38-13c6,6.35,12,24,12,24l-20.4,7.49Z" fill="#e6e7e8"></path>
    <path d="M186.63,255.88l1.17-1.42c1.47-1.79,.69-6.39-1.83-10.72-2.29-3.95-5.5-6.81-7.8-6.95l-1.42-.09,19.89-14.07,.3,.32c6.01,6.36,11.86,23.46,12.11,24.18l.16,.46-22.59,8.29Zm-7.19-19.85c2.44,.81,5.28,3.53,7.41,7.21,2.31,3.98,3.2,8.14,2.39,10.63l18.73-6.88c-.97-2.76-6.21-17.18-11.44-23.04l-17.08,12.08Z" fill="#002346"></path>
  </g>
  <g>
    <path d="M188.26,254.76h0c-.16,.23-.36,.42-.59,.56-2.17,1.4-6.15-1.73-8.87-7-2.72-5.27-3.19-10.67-1.02-12.06,.42-.27,.91-.38,1.39-.32,2.23,.15,5.26,3.05,7.49,7.32,2.44,4.72,3.06,9.57,1.61,11.49Z" fill="#e6e7e8"></path>
    <path d="M186.48,256.13c-.29,0-.6-.04-.92-.13-2.35-.62-5.18-3.56-7.2-7.47-2.88-5.57-3.25-11.15-.86-12.69,.52-.33,1.12-.47,1.71-.39,2.41,.16,5.58,3.21,7.86,7.58,2.5,4.84,3.16,9.88,1.57,12-.2,.28-.45,.52-.74,.69-.41,.27-.89,.4-1.43,.4Zm-7.59-19.73c-.31,0-.61,.09-.87,.25-1.71,1.1-1.64,5.96,1.19,11.44,1.87,3.62,4.52,6.43,6.59,6.98,.63,.17,1.17,.11,1.59-.16,.19-.11,.34-.26,.46-.43v-.02c1.38-1.8,.67-6.53-1.64-10.98-2.1-4.02-5.02-6.92-7.1-7.06-.08,0-.15-.01-.23-.01Z" fill="#002346"></path>
  </g>
  <g>
    <path d="M233.11,209.96l19.92-10.08c1.58-.8,3.5-.27,4.45,1.22l6.46,10.14c1,1.58,.55,3.67-1,4.71l-1.46,1,19.86,17-10.87,8.09-18.93-16.61-8.55,4.36s-1.36-9.77-9.88-19.83Z" fill="#fff"></path>
    <path d="M270.45,242.68l-18.98-16.65-8.87,4.52-.1-.69c-.01-.1-1.45-9.76-9.77-19.58l-.41-.48,20.49-10.37c1.82-.92,4.01-.32,5.1,1.4l6.46,10.14c1.15,1.83,.65,4.2-1.14,5.39l-.92,.63,19.84,16.98-11.7,8.71Zm-18.83-17.85l18.88,16.57,10.04-7.48-19.88-17.02,2-1.37c1.34-.9,1.72-2.67,.86-4.03l-6.46-10.14c-.81-1.28-2.45-1.73-3.8-1.04l-19.36,9.8c6.91,8.37,8.98,16.55,9.46,18.92l8.25-4.21Z" fill="#002346"></path>
  </g>
  <g>
    <path d="M246.51,228l6,6.58c.9,1,2.36,1.27,3.57,.67l4.26-2.12-8.77-7.7-5.06,2.57Z" fill="#463f3a"></path>
    <path d="M254.74,236.07c-.97,0-1.92-.4-2.6-1.15l-6-6.58c-.11-.12-.15-.27-.12-.43,.03-.15,.13-.29,.27-.36l5.06-2.57c.18-.09,.4-.07,.56,.07l8.77,7.7c.12,.11,.19,.28,.17,.44s-.12,.31-.27,.38l-4.26,2.12c-.5,.25-1.03,.37-1.56,.37Zm-7.42-7.92l5.56,6.09c.75,.83,1.97,1.06,2.98,.56l3.59-1.79-7.96-6.98-4.17,2.12Z" fill="#002346"></path>
  </g>
  <g>
    <path d="M380.69,97.01c.11,23.23-18.63,42.16-41.86,42.28-23.23,.11-42.16-18.63-42.28-41.86-.11-23.23,18.63-42.16,41.86-42.28,22.13-.11,40.56,16.95,42.17,39.02,.08,.94,.11,1.89,.11,2.84Z" fill="#463f3a"></path>
    <path d="M338.62,139.79c-11.29,0-21.92-4.37-29.95-12.32-8.08-8-12.56-18.67-12.62-30.04-.06-11.37,4.32-22.08,12.32-30.16s18.67-12.56,30.04-12.62c.07,0,.14,0,.21,0,22.22,0,40.85,17.3,42.46,39.49,.07,.88,.11,1.82,.11,2.88,.11,23.47-18.89,42.66-42.36,42.78-.07,0-.14,0-.22,0Zm0-84.14c-.07,0-.14,0-.21,0-11.1,.05-21.52,4.43-29.33,12.32-7.81,7.89-12.08,18.35-12.03,29.45,.05,11.1,4.43,21.52,12.32,29.33,7.84,7.76,18.22,12.03,29.24,12.03,.07,0,.14,0,.21,0,22.92-.11,41.48-18.85,41.37-41.77h0c0-1.03-.04-1.94-.11-2.8-1.57-21.67-19.77-38.57-41.46-38.57Z" fill="#002346"></path>
  </g>
  <g>
    <path d="M309.84,66.88l28.47,29.62c.19,.2,.53,.06,.53-.21V55.15c-10.81,.08-21.18,4.27-29,11.73Z" fill="#fff"></path>
    <path d="M338.53,97.09c-.22,0-.43-.09-.58-.25l-28.82-29.98,.36-.35c7.95-7.57,18.37-11.79,29.34-11.87h.5s0,41.63,0,41.63c0,.33-.2,.63-.51,.75-.1,.04-.2,.06-.3,.06Zm-27.98-30.19l27.79,28.91V55.66c-10.37,.2-20.2,4.18-27.79,11.24Z" fill="#002346"></path>
  </g>
  <g>
    <path d="M380.58,94.17l-41.74,2.84V55.15c22.01,0,40.26,17.06,41.74,39.02Z" fill="#F4F3EE"></path>
    <path d="M338.34,97.55V54.65h.5c22.19,0,40.74,17.35,42.24,39.49l.03,.5-42.77,2.91Zm1-41.89v40.82l40.71-2.77c-1.69-21.21-19.43-37.79-40.71-38.05Z" fill="#002346"></path>
  </g>
  <g>
    <path d="M380.69,97.01c0,3.34-.4,6.66-1.19,9.9l-40.22-9.79c-.08-.02-.07-.13,.01-.14l41.3-2.81c.07,.94,.1,1.89,.1,2.84Z" fill="#002346"></path>
    <path d="M379.87,107.51l-41.12-10.01-.02-.5c.02-.28,.24-.5,.53-.52l41.79-2.84,.04,.5c.07,.9,.1,1.87,.1,2.88h0c0,3.37-.4,6.74-1.21,10.02l-.12,.48Zm-37.77-10.22l37.03,9.02c.71-3.04,1.06-6.17,1.06-9.29h0c0-.8-.02-1.57-.07-2.31l-38.02,2.59Zm-2.7-.66h0s0,0,0,0Z" fill="#002346"></path>
  </g>
  <g>
    <circle cx="240.91" cy="111.2" r="30.51" transform="translate(86.16 326.74) rotate(-79.1)" fill="#F4F3EE"></circle>
    <path d="M240.91,142.21c-17.1,0-31.01-13.91-31.01-31.01s13.91-31.01,31.01-31.01,31.01,13.91,31.01,31.01-13.91,31.01-31.01,31.01Zm0-61.02c-16.55,0-30.01,13.46-30.01,30.01s13.46,30.01,30.01,30.01,30.01-13.46,30.01-30.01-13.46-30.01-30.01-30.01Z" fill="#002346"></path>
  </g>
  <g>
    <path d="M229.05,101.07v20.29c0,1.73,1.41,3.14,3.14,3.14,.57,0,1.14-.16,1.63-.46l17.45-10.6c1.48-.91,1.95-2.85,1.05-4.33-.28-.46-.68-.85-1.16-1.11l-17.43-9.69c-1.51-.85-3.43-.31-4.28,1.2-.27,.48-.41,1.02-.4,1.56Z" fill="#463f3a"></path>
    <path d="M232.19,125c-.97,0-1.88-.38-2.57-1.06-.69-.69-1.07-1.6-1.07-2.57v-20.29c0-.63,.16-1.26,.47-1.81,.48-.85,1.25-1.46,2.19-1.72,.94-.26,1.92-.14,2.77,.33l17.43,9.69c.55,.3,1.01,.75,1.34,1.29,.51,.83,.66,1.81,.43,2.76-.23,.95-.81,1.75-1.65,2.26l-17.45,10.6c-.57,.34-1.22,.53-1.89,.53h0Zm0-26.59c-.24,0-.48,.03-.71,.1-.68,.19-1.24,.63-1.59,1.25-.22,.4-.34,.86-.34,1.31h0v20.29c0,.71,.28,1.37,.78,1.87s1.16,.77,1.86,.77h0c.48,0,.96-.13,1.37-.38l17.45-10.6c.6-.37,1.03-.95,1.19-1.64,.17-.69,.05-1.4-.32-2-.24-.39-.57-.71-.97-.93l-17.43-9.69c-.4-.23-.84-.34-1.29-.34Z" fill="#002346"></path>
  </g>
  <g>
    <circle cx="692.88" cy="270.84" r="28.38" fill="#F4F3EE"></circle>
    <path d="M692.88,299.72c-15.92,0-28.88-12.96-28.88-28.88s12.96-28.88,28.88-28.88,28.88,12.96,28.88,28.88-12.96,28.88-28.88,28.88Zm0-56.76c-15.37,0-27.88,12.51-27.88,27.88s12.51,27.88,27.88,27.88,27.88-12.51,27.88-27.88-12.51-27.88-27.88-27.88Z" fill="#002346"></path>
  </g>
  <path d="M680.84,279.15c-.39-1-.07-1.54,1-1.73l1.59-.29c.41-.14,.86-.12,1.25,.07,.34,.29,.59,.67,.73,1.09,.59,1.35,1.51,2.52,2.67,3.42,1.15,.87,2.55,1.36,4,1.39v-11.51c-2.55-.77-4.93-2.04-7-3.73-1.67-1.63-2.53-3.91-2.38-6.24-.01-2.25,1.06-4.38,2.89-5.7,1.85-1.5,4.12-2.37,6.5-2.48v-3.56c-.1-.73,.41-1.4,1.13-1.5,.12-.02,.24-.02,.37,0h.19c.93,0,1.39,.5,1.39,1.5v3.61c2.08,.07,4.11,.69,5.88,1.78,1.71,1.02,3,2.63,3.61,4.53,.32,.93,0,1.44-1,1.54l-1.3,.09c-.51,.07-1.02,0-1.49-.21-.37-.26-.66-.6-.87-1-.97-1.8-2.83-2.94-4.87-3v10.5l1.88,.77c1.19,.48,2.14,.88,2.84,1.2,.82,.38,1.6,.81,2.36,1.3,.74,.45,1.42,1.01,2,1.66,1.14,1.37,1.75,3.11,1.73,4.89,0,3.12-.98,5.45-2.94,7-2.25,1.62-4.97,2.46-7.75,2.39v3.95c.1,.72-.4,1.39-1.12,1.49-.12,.02-.24,.02-.37,0h-.24c-.72,.11-1.39-.39-1.5-1.11-.02-.12-.02-.25,0-.38v-4.14c-2.46-.02-4.87-.75-6.93-2.1-1.98-1.31-3.48-3.24-4.25-5.49Zm11.17-12.56v-9.49c-1.26,.03-2.47,.47-3.44,1.27-.94,.77-1.47,1.94-1.42,3.16-.06,1.17,.42,2.31,1.3,3.08,1.06,.85,2.25,1.52,3.53,1.98h.03Zm3.08,16.51c1.6-.02,3.16-.53,4.46-1.46,1.21-.87,1.91-2.3,1.85-3.79,0-.42-.06-.85-.19-1.25-.14-.4-.36-.76-.65-1.06-.31-.32-.59-.59-.84-.82-.36-.28-.75-.52-1.16-.72l-1.13-.55c-.24-.11-.66-.28-1.25-.51s-1-.37-1.09-.43v10.59Z" fill="#002346"></path>
  <g>
    <circle cx="603.48" cy="397.14" r="28.38" fill="#F4F3EE"></circle>
    <path d="M603.48,426.02c-15.92,0-28.88-12.96-28.88-28.88s12.96-28.88,28.88-28.88,28.88,12.96,28.88,28.88-12.96,28.88-28.88,28.88Zm0-56.76c-15.37,0-27.88,12.51-27.88,27.88s12.51,27.88,27.88,27.88,27.88-12.51,27.88-27.88-12.51-27.88-27.88-27.88Z" fill="#002346"></path>
  </g>
  <path d="M591.41,405.45c-.39-1-.07-1.54,1-1.73l1.59-.29c.41-.14,.86-.12,1.25,.07,.34,.29,.59,.67,.72,1.09,.59,1.34,1.52,2.52,2.68,3.41,1.15,.88,2.55,1.37,4,1.4v-11.52c-2.55-.77-4.93-2.04-7-3.73-1.67-1.63-2.53-3.91-2.38-6.24-.01-2.26,1.06-4.38,2.89-5.71,1.85-1.49,4.13-2.36,6.5-2.48v-3.61c-.1-.72,.4-1.39,1.12-1.49,.12-.02,.24-.02,.37,0h.2c.93,0,1.39,.5,1.39,1.49v3.61c2.08,.08,4.11,.7,5.88,1.79,1.71,1.02,2.99,2.63,3.61,4.52,.32,.93,0,1.45-1,1.54l-1.3,.1c-.51,.07-1.03-.01-1.5-.22-.36-.26-.66-.6-.86-1-.97-1.8-2.83-2.94-4.87-3v10.43l1.88,.77c1.19,.49,2.14,.89,2.84,1.21,.82,.38,1.61,.81,2.36,1.3,.74,.45,1.42,1.01,2,1.66,1.13,1.38,1.74,3.11,1.73,4.89,0,3.11-.98,5.45-2.94,7-2.25,1.62-4.98,2.45-7.75,2.38v4.14c.1,.73-.41,1.4-1.13,1.5-.12,.02-.24,.02-.37,0h-.24c-.72,.1-1.39-.4-1.49-1.12-.02-.13-.02-.25,0-.38v-4.14c-2.46-.01-4.87-.74-6.93-2.09-2-1.32-3.49-3.28-4.25-5.55Zm11.17-12.57v-9.49c-1.26,.03-2.47,.48-3.44,1.28-.94,.77-1.47,1.94-1.42,3.16-.06,1.17,.42,2.31,1.3,3.08,1.07,.85,2.27,1.52,3.56,1.97Zm3.08,16.52c1.6-.02,3.16-.53,4.46-1.47,1.21-.87,1.91-2.29,1.85-3.78,0-.42-.06-.85-.19-1.25-.14-.4-.36-.76-.65-1.06-.31-.32-.59-.59-.84-.82-.36-.28-.75-.52-1.16-.72-.51-.26-.89-.44-1.13-.55s-.66-.28-1.25-.51l-1.09-.43v10.59Z" fill="#002346"></path>
  <g>
    <circle cx="580.78" cy="101.97" r="17.74" fill="#F4F3EE"></circle>
    <path d="M580.78,120.21c-10.06,0-18.24-8.18-18.24-18.24s8.18-18.24,18.24-18.24,18.24,8.18,18.24,18.24-8.18,18.24-18.24,18.24Zm0-35.48c-9.51,0-17.24,7.73-17.24,17.24s7.73,17.24,17.24,17.24,17.24-7.73,17.24-17.24-7.73-17.24-17.24-17.24Z" fill="#002346"></path>
  </g>
  <path d="M573.23,107.17c-.24-.6-.04-.96,.6-1.08l1-.19c.25-.11,.53-.11,.78,0,.21,.18,.36,.42,.45,.68,.37,.84,.94,1.57,1.67,2.13,.71,.55,1.58,.86,2.48,.88v-7.2c-1.6-.49-3.08-1.28-4.38-2.33-1.04-1.02-1.59-2.44-1.49-3.9,0-1.41,.67-2.73,1.81-3.56,1.15-.94,2.58-1.48,4.06-1.56v-2.16c-.07-.45,.25-.87,.7-.94,.08-.01,.16-.01,.24,0h.12c.58,0,.87,.32,.87,.94v2.25c1.3,.05,2.56,.44,3.67,1.12,1.07,.64,1.88,1.64,2.26,2.83,.2,.58,0,.91-.6,1l-.81,.06c-.62,.16-1.26-.18-1.48-.78-.59-1.12-1.73-1.84-3-1.9v6.57l1.17,.48c.75,.3,1.34,.55,1.78,.75,.51,.24,1,.51,1.48,.81,.47,.27,.89,.61,1.26,1,.33,.39,.59,.83,.77,1.31,.22,.56,.32,1.15,.31,1.75,.12,1.66-.56,3.27-1.83,4.34-1.41,1.01-3.11,1.54-4.85,1.5v2.58c.06,.45-.25,.87-.7,.94-.07,.01-.15,.01-.23,0h-.15c-.45,.07-.87-.25-.94-.7-.01-.08-.01-.16,0-.24v-2.58c-1.54-.01-3.04-.47-4.33-1.31-1.26-.83-2.21-2.06-2.69-3.49Zm7-7.86v-5.93c-.79,.02-1.54,.3-2.15,.8-.6,.49-.93,1.23-.89,2-.04,.74,.26,1.45,.82,1.93,.66,.52,1.41,.92,2.2,1.2h.02Zm1.93,10.33c1-.01,1.97-.34,2.78-.92,.76-.54,1.2-1.43,1.16-2.36,0-.27-.04-.53-.12-.79-.08-.25-.22-.47-.4-.66-.19-.2-.37-.37-.53-.51-.22-.18-.46-.33-.72-.45l-.71-.35c-.15-.07-.41-.17-.78-.31-.23-.08-.46-.17-.68-.28v6.63Z" fill="#002346"></path>
  <g>
    <path d="M352.31,282.2s-18.83,15.39-17.93,49.23c.54,20.55,8.67,40.15,22.1,55.72,11.18,13,29.26,30.79,56.12,48.89l18.24,110.78c.13,.83,.86,1.43,1.7,1.39,7.07-.31,37.62-1.92,46.58-6.82,.56-.31,.89-.92,.85-1.56-.77-11.22-8.44-114.08-33.27-147.29l-48.16-72.91c-1.4-2.12-1.7-4.78-.81-7.16l4.85-12.91-50.27-17.36Z" fill="#F4F3EE"></path>
    <path d="M432.46,548.71c-1.05,0-1.95-.76-2.11-1.82l-18.2-110.56c-27.61-18.63-45.71-36.85-56.04-48.86-13.8-16-21.69-35.9-22.22-56.03-.9-33.69,17.92-49.47,18.11-49.63l.22-.18,51.02,17.62-5.03,13.39c-.83,2.22-.55,4.73,.76,6.71l48.16,72.91c24.86,33.25,32.56,135.93,33.35,147.53,.06,.83-.38,1.63-1.11,2.03-8.9,4.87-38.07,6.5-46.8,6.88-.03,0-.07,0-.1,0Zm-80.04-265.95c-2.04,1.82-18.37,17.39-17.54,48.65,.52,19.91,8.33,39.58,21.98,55.41,10.31,11.99,28.4,30.19,56.02,48.8l.18,.12,.04,.21,18.24,110.78c.09,.59,.62,1,1.18,.97,6.18-.27,37.43-1.87,46.36-6.76,.39-.21,.62-.64,.59-1.09-.79-11.57-8.46-113.98-33.17-147.03l-48.18-72.93c-1.48-2.25-1.8-5.09-.86-7.61l4.67-12.43-49.51-17.1Z" fill="#002346"></path>
  </g>
  <g>
    <path d="M362.35,284.5l25.81-66.88c1.35-3.52,5.3-5.28,8.83-3.93,0,0,0,0,.01,0l42.32,16.27c3.53,1.35,5.29,5.31,3.93,8.84-.03,.08-.07,.17-.1,.25l-29.22,67.82c-1.87,4.35-6.92,6.37-11.27,4.5-.04-.02-.07-.03-.11-.05l-35.71-15.88c-4.17-1.87-6.15-6.69-4.49-10.95Z" fill="#fff"></path>
    <path d="M406.05,312.58c-1.22,0-2.43-.25-3.58-.74l-.12-.05-35.71-15.88c-4.42-1.98-6.51-7.07-4.75-11.59l25.81-66.88c.7-1.83,2.07-3.27,3.86-4.07,1.79-.8,3.78-.85,5.61-.14l42.33,16.28c1.83,.7,3.28,2.08,4.07,3.87,.8,1.79,.85,3.79,.15,5.62l-.11,.27-29.22,67.82c-.96,2.23-2.72,3.95-4.98,4.85-1.09,.44-2.23,.65-3.37,.65Zm-3.19-1.66c1.98,.85,4.18,.88,6.18,.08,2-.8,3.58-2.33,4.43-4.32l29.32-68.06c.61-1.58,.56-3.3-.13-4.85-.69-1.55-1.94-2.73-3.52-3.34l-42.32-16.27c-1.59-.61-3.31-.57-4.86,.12-1.54,.69-2.73,1.93-3.34,3.51l-25.81,66.88c-1.56,4.02,.3,8.55,4.23,10.31l35.71,15.88-.09,.5,.2-.46Z" fill="#002346"></path>
  </g>
  <path d="M418.9,271.92c-.07,0-.14-.01-.2-.04l-36-16c-.25-.11-.37-.41-.25-.66,.11-.25,.41-.37,.66-.25l36,16c.25,.11,.37,.41,.25,.66-.08,.19-.27,.3-.46,.3Z" fill="#002346"></path>
  <path d="M409.4,295.42c-.06,0-.13-.01-.19-.04l-34-14c-.25-.1-.38-.4-.27-.65,.1-.26,.4-.38,.65-.27l34,14c.25,.1,.38,.4,.27,.65-.08,.19-.27,.31-.46,.31Z" fill="#002346"></path>
  <g>
    <path d="M445.26,565.3c-1.42-5.68-4.72-17.53-4.72-17.53,10.71-.63,21.36-1.97,31.89-4v19c-.96,1.06-2.06,1.99-3.26,2.77-5.09,3.3-11.41,4.07-17.14,2.1l-6.77-2.34Z" fill="#f2b3c1"></path>
    <path d="M458.48,569.23c-2.21,0-4.45-.37-6.61-1.11l-7.03-2.43-.07-.26c-1.4-5.61-4.68-17.4-4.72-17.52l-.17-.6,.62-.04c10.65-.63,21.36-1.97,31.82-3.99l.59-.11v19.8l-.13,.14c-.99,1.09-2.12,2.06-3.36,2.86-3.33,2.16-7.12,3.27-10.96,3.27Zm-12.8-4.31l6.51,2.25c5.62,1.94,11.71,1.19,16.7-2.05,1.12-.72,2.13-1.57,3.03-2.54v-18.2c-10.12,1.93-20.46,3.23-30.74,3.86,.67,2.44,3.24,11.72,4.49,16.68Z" fill="#002346"></path>
  </g>
  <g>
    <path d="M520.84,618.09c-.72,2.21-2.6,3.85-4.89,4.25-19,3.24-47.59-13.81-51.17-16-.11-.07-.26-.04-.33,.07-.03,.04-.04,.09-.04,.14v2.14c0,.4-.32,.73-.72,.74-.14,0-.27-.04-.39-.11l-18.56-11.1c-1.87-1.13-3-3.16-3-5.34v-22.61c0-9.94,3.55-5,3.55-5,0,0,16.74,8.27,27.17-2.6,0,0,1.4-2.78,4,1.79,2,3.37,4.31,6.55,6.9,9.49,5.51,6.37,14.36,16,22.58,22.41,2.46,1.92,5.21,3.44,8.14,4.51,4,1.43,10.52,4.9,8.51,11.94l-1.75,5.28Z" fill="#463f3a"></path>
    <path d="M510.91,623.24c-18.19,0-41.7-13.65-45.99-16.24v1.69c0,.67-.54,1.23-1.22,1.24-.23-.01-.46-.06-.65-.18l-18.55-11.1c-2.01-1.22-3.25-3.43-3.24-5.77v-22.61c0-4.14,.59-6.25,1.85-6.66,1.13-.36,2.21,.86,2.52,1.26,1.42,.66,16.81,7.47,26.44-2.5,.15-.25,.67-1.01,1.59-1.04,.01,0,.03,0,.04,0,1.05,0,2.1,.94,3.2,2.88,1.97,3.33,4.27,6.5,6.84,9.41,5.81,6.72,14.43,16.04,22.51,22.35,2.42,1.89,5.12,3.38,8,4.44,4.2,1.5,10.94,5.13,8.82,12.55l-1.75,5.3c-.78,2.39-2.8,4.15-5.28,4.59-1.65,.28-3.36,.41-5.13,.41Zm-46.25-17.44c.14,0,.28,.04,.4,.12,3.21,1.96,31.99,19.14,50.81,15.93,2.11-.37,3.83-1.87,4.5-3.91,0,0,0,0,0,0l1.75-5.28c1.89-6.61-4.33-9.93-8.2-11.31-2.99-1.09-5.77-2.63-8.28-4.59-8.15-6.35-16.81-15.73-22.65-22.48-2.61-2.95-4.95-6.17-6.95-9.56-1.22-2.14-2.03-2.38-2.34-2.38,0,0,0,0-.01,0-.47,.01-.77,.56-.77,.56-.02,.04-.05,.09-.09,.12-10.56,11.01-27.58,2.79-27.75,2.7-.07-.04-.14-.09-.18-.16-.27-.37-1.02-1.15-1.48-1-.27,.09-1.16,.76-1.16,5.71v22.61c0,2,1.05,3.88,2.76,4.91l18.56,11.1s.08,.04,.12,.04h0c.08,0,.14-.04,.16-.07,.02-.03,.07-.08,.07-.16v-2.14c0-.13,.04-.28,.12-.41,.14-.22,.38-.34,.62-.34Zm-.13,.96s0,0,.01,0c0,0,0,0-.01,0Zm.39-.24v0Z" fill="#002346"></path>
  </g>
  <g>
    <path d="M411.2,159.45l-2.13,16.32s-2.84,21.28,14.19,22.7c0,0,4.79,1,8.07-5,1.26-2.37,1.9-5.02,1.86-7.71v-6l5.65-13.88-21.45-10.44-3.41,1v4.23l-2.78-1.22Z" fill="#f2b3c1"></path>
    <path d="M424.01,198.99c-.52,0-.83-.06-.84-.06-4.44-.37-8-2.14-10.5-5.25-5.47-6.8-4.11-17.51-4.05-17.96l2.21-16.93,2.7,1.18v-3.87l3.91-1.15,.16,.08,21.84,10.63-5.78,14.2v5.91c.04,2.75-.62,5.49-1.91,7.93-2.58,4.71-6.13,5.3-7.73,5.3Zm-12.43-38.87l-2.05,15.71c-.01,.11-1.36,10.78,3.86,17.26,2.34,2.91,5.68,4.57,9.91,4.92,.24,.05,4.56,.84,7.63-4.76,1.22-2.29,1.84-4.88,1.8-7.48l.03-6.18,5.49-13.48-20.9-10.17-2.91,.85v4.59l-2.86-1.26Z" fill="#002346"></path>
  </g>
  <g>
    <rect x="416.4" y="122.92" width="38" height="57" rx="19" ry="19" fill="#f2b3c1"></rect>
    <path d="M435.4,180.38c-10.73,0-19.46-8.73-19.46-19.46v-19c0-10.73,8.73-19.46,19.46-19.46s19.46,8.73,19.46,19.46v19c0,10.73-8.73,19.46-19.46,19.46Zm0-57c-10.22,0-18.54,8.32-18.54,18.54v19c0,10.22,8.32,18.54,18.54,18.54s18.54-8.32,18.54-18.54v-19c0-10.22-8.32-18.54-18.54-18.54Z" fill="#002346"></path>
  </g>
  <g>
    <path d="M434.61,131.77s-4.25,7.1-9.93,8.52c0,0,2.59,11.83-5.09,14.43l-5.58,1.71v4.23s-9.2-.5-6.36-10.44c0,0-6.76-4.66-.54-10.84,0,0-5.13-3.35-.88-9,0,0-1.42-24.13,27-17,0,0,9.94-8.52,19.87,5.67,0,0,12.77,0,11.35,8.52,0,0,0,7.09-11.35,5.67-.04-.05-4.26,9.89-18.49-1.47Z" fill="#002346"></path>
    <path d="M414.51,161.19l-.53-.03c-.16,0-4.04-.25-6.12-3.17-1.35-1.89-1.61-4.44-.78-7.57-.77-.62-2.83-2.5-3.08-5.22-.17-1.95,.62-3.88,2.36-5.76-.69-.58-1.9-1.86-2.23-3.74-.31-1.76,.23-3.6,1.59-5.47-.05-1.39-.06-9.84,6.08-14.92,4.76-3.95,11.93-4.77,21.31-2.47,.86-.66,4.25-2.98,8.81-2.4,4.13,.52,7.98,3.25,11.44,8.12,1.36,.04,7.43,.39,10.26,3.73,1.23,1.45,1.67,3.25,1.32,5.37,0,.02-.02,2.34-2.09,4.16-2.02,1.78-5.21,2.44-9.49,1.96-.76,1.29-2.32,3.19-5.19,3.77-3.67,.74-8.19-.95-13.44-5.04-1.05,1.61-4.7,6.7-9.48,8.14,.38,2.27,1.61,12.14-5.5,14.54l-5.24,1.61v4.39Zm9.15-48.63c-4.64,0-8.39,1.17-11.21,3.51-6.17,5.11-5.72,14.19-5.72,14.28v.18s-.1,.15-.1,.15c-1.27,1.69-1.78,3.31-1.52,4.83,.38,2.18,2.25,3.44,2.27,3.45l.51,.34-.44,.43c-1.79,1.78-2.62,3.58-2.46,5.36,.25,2.82,2.91,4.69,2.94,4.71l.29,.2-.1,.34c-.85,2.97-.67,5.34,.54,7.04,1.38,1.94,3.78,2.53,4.84,2.7v-4.04l5.93-1.82c7.15-2.42,4.77-13.73,4.75-13.84l-.1-.47,.47-.12c5.41-1.35,9.58-8.22,9.62-8.29l.29-.49,.45,.36c5.2,4.15,9.59,5.9,13.06,5.19,2.68-.54,4.06-2.42,4.64-3.49l.13-.24,.36-.1h.05c4.13,.52,7.17-.04,9.02-1.66,1.74-1.52,1.77-3.43,1.77-3.51,.31-1.89-.06-3.42-1.09-4.64-2.83-3.34-9.69-3.38-9.76-3.38h-.26l-.15-.21c-3.32-4.75-6.98-7.41-10.88-7.91-4.74-.61-8.22,2.3-8.26,2.33l-.2,.17-.25-.06c-3.47-.87-6.62-1.31-9.45-1.31Z" fill="#002346"></path>
  </g>
  <g>
    <ellipse cx="416.17" cy="150.93" rx="4.26" ry="6.39" fill="#f2b3c1"></ellipse>
    <path d="M416.17,157.78c-2.6,0-4.72-3.07-4.72-6.85s2.12-6.85,4.72-6.85,4.72,3.07,4.72,6.85-2.12,6.85-4.72,6.85Zm0-12.78c-2.09,0-3.8,2.66-3.8,5.93s1.7,5.93,3.8,5.93,3.8-2.66,3.8-5.93-1.7-5.93-3.8-5.93Z" fill="#002346"></path>
  </g>
  <g>
    <rect x="148.67" y="623.48" width="549.18" height="4.26" fill="#e6e7e8"></rect>
    <path d="M698.34,628.22H148.19v-5.22H698.34v5.22Zm-549.18-.96H697.37v-3.29H149.16v3.29Z" fill="#002346"></path>
  </g>
  <g>
    <path d="M332.29,229.79l-19.72,24s-8.66,11.49,9.86,22.78c0,0,23.53,17.06,82.05,12,0,0,27.3,1.66,28.71-6.64,0,0,5.55-3.47,2.07-8.73,0,0,3.61-3.84-.65-6.67,0,0,2.88-3.83,0-5.2-1.41-.6-3.03-.33-4.17,.69l-8.6,7.4s-4.25,2.84-4.25-1.41c0,0,5.67-7.1,1.92-8.34,0,0-11.86,15.43-17.53,12.59l-52.51-17,8.51-7.09-25.69-18.38Z" fill="#f2b3c1"></path>
    <path d="M383.7,290c-43.03,0-61.36-12.87-61.56-13.02-6.88-4.19-10.88-8.93-11.86-14.05-1.04-5.46,1.77-9.28,1.89-9.43l20.03-24.38,26.6,19.03-8.31,6.92,51.65,16.72c4.41,2.21,13.75-8.22,16.98-12.42l.22-.28,.34,.11c.78,.26,1.3,.77,1.52,1.48,.72,2.41-2.37,6.57-3.09,7.5,.02,.82,.23,1.34,.62,1.55,.8,.43,2.37-.4,2.85-.73l8.55-7.36c1.27-1.14,3.12-1.44,4.69-.77,.82,.39,1.32,.97,1.5,1.73,.35,1.41-.53,3.05-1.01,3.81,1.11,.85,1.73,1.85,1.86,2.99,.2,1.72-.8,3.22-1.28,3.84,.93,1.53,1.23,3.07,.9,4.57-.52,2.42-2.51,3.98-3.14,4.42-1.87,8.4-28.07,6.91-29.19,6.84-7.47,.65-14.38,.93-20.75,.93Zm-51.32-59.53l-19.42,23.64s-2.66,3.63-1.69,8.65c.93,4.83,4.77,9.33,11.43,13.39,.27,.19,24.12,16.91,81.75,11.93,7.54,.45,27.17,.22,28.26-6.23l.04-.22,.19-.12s2.36-1.51,2.88-3.91c.29-1.33-.04-2.72-.96-4.12l-.22-.33,.27-.29s1.48-1.61,1.27-3.35c-.11-.97-.73-1.83-1.83-2.56l-.44-.29,.32-.42c.41-.55,1.42-2.23,1.13-3.39-.11-.46-.42-.81-.94-1.05-1.2-.51-2.63-.28-3.62,.61l-8.61,7.41c-.29,.2-2.46,1.6-3.93,.81-.76-.41-1.15-1.28-1.15-2.6v-.17l.11-.14c1.02-1.28,3.55-4.98,3.02-6.74-.09-.3-.27-.52-.56-.68-1.77,2.24-12.34,15.22-17.91,12.43l-53.3-17.25,8.71-7.26-24.78-17.73Z" fill="#002346"></path>
  </g>
  <path d="M357.98,248.67c-.12,0-.24-.04-.34-.13-.2-.19-.22-.5-.03-.71l22.71-25.04c.19-.2,.5-.22,.71-.03,.2,.19,.22,.5,.03,.71l-22.71,25.04c-.1,.11-.23,.16-.37,.16Z" fill="#002346"></path>
  <path d="M425.26,233.61c-.06,0-.12-.01-.18-.03l-23.14-8.98c-.25-.1-.38-.38-.29-.64l2.62-7.22c.09-.26,.38-.39,.64-.3,.26,.09,.39,.38,.3,.64l-2.45,6.76,22.2,8.62,2.45-6.83c.09-.26,.38-.39,.64-.3,.26,.09,.39,.38,.3,.64l-2.62,7.31c-.05,.13-.14,.23-.26,.29-.07,.03-.14,.04-.21,.04Z" fill="#002346"></path>
  <path d="M493.4,252.42s-.06,0-.08,0c-.27-.04-.46-.3-.41-.58,1.01-6.07,5.06-10.9,5.23-11.1,.18-.21,.49-.24,.7-.06,.21,.18,.24,.49,.06,.71-.04,.05-4.04,4.83-5.01,10.62-.04,.25-.25,.42-.49,.42Z" fill="#002346"></path>
  <path d="M571.42,200.67c-.07,0-.14-.01-.2-.04-3.08-1.36-3.75-3.82-3.87-5.17-.05-.62,.05-1.21,.3-1.69,1.93-3.74,10-2.96,10.34-2.93,.27,.03,.47,.27,.45,.55-.03,.27-.25,.47-.55,.45-.08,0-7.73-.75-9.35,2.39-.16,.31-.23,.71-.19,1.14,.1,1.13,.66,3.19,3.27,4.34,.25,.11,.37,.41,.26,.66-.08,.19-.27,.3-.46,.3Z" fill="#002346"></path>
  <g>
    <path d="M568.1,194s-6.99-.73-5.84-6.41" fill="#f2b3c1"></path>
    <path d="M568.04,194.5c-.15-.02-3.75-.42-5.49-2.8-.85-1.16-1.12-2.57-.79-4.2l.98,.2c-.27,1.34-.07,2.49,.61,3.41,1.48,2.02,4.76,2.39,4.79,2.4l-.1,.99Z" fill="#002346"></path>
  </g>
  <g>
    <line x1="569.9" y1="184.42" x2="576.9" y2="182.42" fill="#f2b3c1"></line>
    <path d="M569.9,184.92c-.22,0-.42-.14-.48-.36-.08-.27,.08-.54,.34-.62l7-2c.27-.08,.54,.08,.62,.34,.08,.27-.08,.54-.34,.62l-7,2s-.09,.02-.14,.02Z" fill="#002346"></path>
  </g>
  <g>
    <line x1="575.97" y1="176.71" x2="566.62" y2="180.4" fill="#f2b3c1"></line>
    <path d="M566.62,180.9c-.2,0-.39-.12-.46-.32-.1-.26,.02-.55,.28-.65l9.35-3.68c.26-.1,.55,.02,.65,.28,.1,.26-.02,.55-.28,.65l-9.35,3.68c-.06,.02-.12,.04-.18,.04Z" fill="#002346"></path>
  </g>
  <path d="M428.4,273.42c-.13,0-.25-.05-.35-.14-.2-.19-.2-.51,0-.71l6.21-6.39c.19-.2,.51-.2,.71,0,.2,.19,.2,.51,0,.71l-6.21,6.39c-.1,.1-.23,.15-.36,.15Z" fill="#002346"></path>
  <path d="M430.9,277.92c-.13,0-.26-.05-.36-.15-.19-.2-.19-.51,.01-.71l4.36-4.22c.2-.19,.52-.19,.71,.01,.19,.2,.19,.51-.01,.71l-4.36,4.22c-.1,.09-.22,.14-.35,.14Z" fill="#002346"></path>
  <path d="M427.55,249.99c-.07,0-.14-.01-.2-.04l-29.78-13.26c-.25-.11-.37-.41-.25-.66,.11-.25,.41-.37,.66-.25l29.78,13.26c.25,.11,.37,.41,.25,.66-.08,.19-.27,.3-.46,.3Z" fill="#002346"></path>
  <path d="M423.14,259.14c-.07,0-.13-.01-.2-.04l-35.34-15.28c-.25-.11-.37-.4-.26-.66,.11-.25,.4-.37,.66-.26l35.34,15.28c.25,.11,.37,.4,.26,.66-.08,.19-.27,.3-.46,.3Z" fill="#002346"></path>
  <path d="M342.4,330.42c-.25,0-.47-.2-.5-.46-.03-.27,.18-.52,.45-.54,21.31-1.94,22.99-21.85,23.05-22.7,.02-.28,.29-.46,.53-.46,.28,.02,.48,.26,.46,.53-.02,.22-1.79,21.61-23.95,23.62-.01,0-.03,0-.05,0Z" fill="#002346"></path>
  <path d="M349.47,255.76c-.14,0-.28-.06-.38-.17-16.59-19.27-67.26-21.12-67.77-21.14-.28,0-.49-.24-.48-.52,0-.27,.24-.48,.52-.48,2.1,.07,51.62,1.88,68.49,21.48,.18,.21,.16,.52-.05,.71-.09,.08-.21,.12-.33,.12Z" fill="#002346"></path>
  <path d="M322.43,277.07s-.02,0-.03,0c-35.84-2.34-52.21-34.48-52.38-34.81-.12-.25-.02-.55,.23-.67,.25-.12,.55-.02,.67,.22,.16,.32,16.29,31.95,51.54,34.25,.28,.02,.48,.26,.47,.53-.02,.26-.24,.47-.5,.47Z" fill="#002346"></path>
</svg>
