<svg xmlns="http://www.w3.org/2000/svg" viewBox="0 0 500 500"><g id="freepik--background-simple--inject-203"><path d="M484.63,234.09c-.56-39-15.81-76.61-39-105.65A203.67,203.67,0,0,0,397.79,85c-18.52-12-38.67-25.51-61-27.57a43.76,43.76,0,0,0-16.62,1.36c-20.85,6.24,20.41,28.48,25.8,31.73C288.28,65.73,228.59,40.57,165.56,42.94c-12.15.46-24.76,2.11-35.45,8.88s-19,19.83-17.36,32.78c1.31,10.7,8.51,22.66,1.76,31-1.93,2.4-4.67,3.81-7.35,5-13.79,6.3-28.68,9.6-41.74,17.62-20.23,12.41-34,35.21-40.43,59.2s-6.09,49.21-3.58,73.61C26.13,317,39,362.59,65,398.32c37.15,51,98.07,77,159.08,81.29,73.83,5.18,153.88-22,202.69-84.79,7.25-9.32,13.88-19.64,16.52-31.33s.55-25-7.56-32.67c-2.18-2.07-5-4.26-4.76-7.47.32-4.35,5.52-5.81,9.48-6.73,26-6,40.85-37.63,43.53-66.09A151,151,0,0,0,484.63,234.09Z" style="fill:#FF81AE"></path><path d="M484.63,234.09c-.56-39-15.81-76.61-39-105.65A203.67,203.67,0,0,0,397.79,85c-18.52-12-38.67-25.51-61-27.57a43.76,43.76,0,0,0-16.62,1.36c-20.85,6.24,20.41,28.48,25.8,31.73C288.28,65.73,228.59,40.57,165.56,42.94c-12.15.46-24.76,2.11-35.45,8.88s-19,19.83-17.36,32.78c1.31,10.7,8.51,22.66,1.76,31-1.93,2.4-4.67,3.81-7.35,5-13.79,6.3-28.68,9.6-41.74,17.62-20.23,12.41-34,35.21-40.43,59.2s-6.09,49.21-3.58,73.61C26.13,317,39,362.59,65,398.32c37.15,51,98.07,77,159.08,81.29,73.83,5.18,153.88-22,202.69-84.79,7.25-9.32,13.88-19.64,16.52-31.33s.55-25-7.56-32.67c-2.18-2.07-5-4.26-4.76-7.47.32-4.35,5.52-5.81,9.48-6.73,26-6,40.85-37.63,43.53-66.09A151,151,0,0,0,484.63,234.09Z" style="fill:#fff;opacity:0.7000000000000001"></path></g><g id="freepik--Cloud--inject-203"><path d="M483.69,130.25H105.39a.52.52,0,0,1-.5-.45.5.5,0,0,1,.39-.54l23.17-5.41a56.66,56.66,0,0,1,6.2-9.25c3.75-4.5,25.88-4.17,29.56-4.09.16-1.61,1.16-7,7.06-16.14,6.6-10.26,32.45-5.94,37.24-5-.57-3.45-2.21-18.22,8.86-28.59,11.92-11.17,49.34-1,54.54.51A57.55,57.55,0,0,1,281.27,39c8.66-12.13,29.13-21.63,60.61-11.88,30.17,9.33,52,46.7,55.26,52.52,5.77-9.22,12.07-14.46,18.75-15.57,6-1,12.36,1.3,19,6.82,13.55,11.29,22.58,45.54,23.5,49.15l25.5,9.27a.5.5,0,0,1,.32.55A.51.51,0,0,1,483.69,130.25Zm-374-1H480.86l-23.08-8.4a.48.48,0,0,1-.31-.34c-.09-.38-9.48-37.42-23.24-48.88-6.38-5.32-12.5-7.54-18.18-6.6-6.55,1.09-12.78,6.42-18.51,15.83a.42.42,0,0,1-.44.24.48.48,0,0,1-.43-.26c-.22-.43-22.9-42.84-55.08-52.8-31-9.58-51-.34-59.51,11.51A56,56,0,0,0,272.81,62a.47.47,0,0,1-.23.35.49.49,0,0,1-.41.06c-.42-.12-42-12.26-54.12-.89s-8.47,28.22-8.43,28.38a.49.49,0,0,1-.13.46.47.47,0,0,1-.46.14c-.3-.06-30.16-6-36.92,4.47s-6.94,16-6.94,16.11a.51.51,0,0,1-.15.35.5.5,0,0,1-.36.14c-7.1-.21-26.17,0-29.24,3.73a54.09,54.09,0,0,0-6.18,9.26.5.5,0,0,1-.34.26Z" style="fill:#263238"></path><path d="M360.45,114.64a.48.48,0,0,1-.49-.46c0-.1-.68-10.57,11.25-14.55,10-3.34,21.46,3.22,25.06,5.55-4.08-15.57.21-24.42.4-24.8a.49.49,0,0,1,.67-.22.5.5,0,0,1,.22.67c-.05.09-4.53,9.4,0,25.38a.5.5,0,0,1-.77.54c-.14-.1-14-9.94-25.29-6.17S360.92,113.71,361,114.11a.49.49,0,0,1-.46.53Z" style="fill:#263238"></path><path d="M226.29,104.5a.5.5,0,0,1-.4-.79l2.34-3.13c2.13-2.83,9.34-3.25,11.5-3.31-.47-2.72-1.82-14,6.52-21s21.56-.08,24.82,1.85l.74-16.31a.5.5,0,0,1,.52-.48.51.51,0,0,1,.48.53L272,79.07a.49.49,0,0,1-.77.39c-.15-.09-15.4-9.84-24.37-2.37s-6.1,20.43-6.07,20.56a.51.51,0,0,1-.1.43.49.49,0,0,1-.39.19c-2.53,0-9.5.52-11.3,2.91l-2.34,3.12A.48.48,0,0,1,226.29,104.5Z" style="fill:#263238"></path></g><g id="freepik--Trees--inject-203"><path d="M464.32,240.5c0,48.67-28.79,88.13-64.31,88.13S335.7,289.17,335.7,240.5s28.79-216,64.31-216S464.32,191.83,464.32,240.5Z" style="fill:#FF81AE"></path><path d="M464.32,240.5c0,48.67-28.79,88.13-64.31,88.13S335.7,289.17,335.7,240.5s28.79-216,64.31-216S464.32,191.83,464.32,240.5Z" style="fill:#fff;opacity:0.5"></path><polygon points="365.27 244.88 385.78 252.03 395.95 265.84 394.17 308.13 382.35 300.11 393.8 316.89 392.09 440.58 405.04 441.25 402.01 284.75 436.07 265.97 416.6 273.17 420.51 261.45 411.2 275.17 401.9 278.61 401.24 240.11 435.07 195.16 416.94 213.29 420 200.69 411.33 218.9 401.05 229.18 400.01 169.04 396.33 256.76 364.27 222.78 381.88 246.72 365.27 244.88" style="fill:#b2b2b2"></polygon><path d="M435.39,169.23s.6,5.91-2.63,10.25-9.06,5.46-9.06,5.46-.6-5.91,2.63-10.25S435.39,169.23,435.39,169.23Z" style="fill:#fff"></path><path d="M454.78,196.47s.59,5.91-2.64,10.24-9.06,5.46-9.06,5.46-.59-5.9,2.64-10.24S454.78,196.47,454.78,196.47Z" style="fill:#fff"></path><path d="M454.77,249.49s-1.43,5.77-5.93,8.76-10.37,2.1-10.37,2.1,1.43-5.77,5.93-8.77S454.77,249.49,454.77,249.49Z" style="fill:#fff"></path><path d="M348.32,249.49s1.42,5.77,5.93,8.76,10.37,2.1,10.37,2.1-1.43-5.77-5.93-8.77S348.32,249.49,348.32,249.49Z" style="fill:#fff"></path><path d="M432.38,227.48s.6,5.91-2.63,10.25-9.07,5.46-9.07,5.46-.59-5.91,2.64-10.25S432.38,227.48,432.38,227.48Z" style="fill:#fff"></path><path d="M427.36,139.61s.59,5.91-2.64,10.24-9.06,5.46-9.06,5.46-.59-5.9,2.64-10.24S427.36,139.61,427.36,139.61Z" style="fill:#fff"></path><path d="M415.81,162.2s.59,5.91-2.63,10.25-9.07,5.46-9.07,5.46-.59-5.91,2.64-10.24S415.81,162.2,415.81,162.2Z" style="fill:#fff"></path><path d="M443.23,145.75s.59,5.91-2.64,10.25-9.06,5.46-9.06,5.46-.59-5.91,2.64-10.25S443.23,145.75,443.23,145.75Z" style="fill:#fff"></path><path d="M354.13,145.75s-.59,5.91,2.64,10.25,9.06,5.46,9.06,5.46.59-5.91-2.64-10.25S354.13,145.75,354.13,145.75Z" style="fill:#fff"></path><path d="M429.87,112s.59,5.91-2.64,10.25-9.06,5.46-9.06,5.46-.59-5.91,2.64-10.25S429.87,112,429.87,112Z" style="fill:#fff"></path><path d="M424.19,82.65s2.06,5.57,0,10.58-7.4,7.56-7.4,7.56-2.06-5.56,0-10.57S424.19,82.65,424.19,82.65Z" style="fill:#fff"></path><path d="M383.53,75s5.26,2.75,7.1,7.84-.43,10.57-.43,10.57-5.26-2.76-7.1-7.84S383.53,75,383.53,75Z" style="fill:#fff"></path><path d="M402.49,110.07s3.75,4.6,3.44,10-4.56,9.55-4.56,9.55-3.75-4.61-3.44-10S402.49,110.07,402.49,110.07Z" style="fill:#fff"></path><path d="M401.49,57.85s3.74,4.6,3.43,10-4.56,9.55-4.56,9.55-3.75-4.61-3.44-10S401.49,57.85,401.49,57.85Z" style="fill:#fff"></path><path d="M358.92,169.23s-.59,5.91,2.64,10.25,9.06,5.46,9.06,5.46.59-5.91-2.64-10.25S358.92,169.23,358.92,169.23Z" style="fill:#fff"></path><path d="M347.88,201.37s-.6,5.91,2.63,10.25,9.06,5.46,9.06,5.46.6-5.91-2.63-10.25S347.88,201.37,347.88,201.37Z" style="fill:#fff"></path><path d="M377.2,213s-.6,5.91,2.63,10.24,9.06,5.47,9.06,5.47.6-5.91-2.63-10.25S377.2,213,377.2,213Z" style="fill:#fff"></path><path d="M385.22,168.51s-2.27,5.49-.41,10.57,7.11,7.83,7.11,7.83,2.27-5.49.41-10.57S385.22,168.51,385.22,168.51Z" style="fill:#fff"></path><path d="M364.45,287s5.94.11,10-3.47,4.7-9.47,4.7-9.47-5.94-.11-10,3.46S364.45,287,364.45,287Z" style="fill:#fff"></path><path d="M421.43,280.5s1.61,5.72,6.2,8.57,10.44,1.76,10.44,1.76-1.62-5.71-6.21-8.57S421.43,280.5,421.43,280.5Z" style="fill:#fff"></path><path d="M371.08,139.61s-.6,5.91,2.63,10.24,9.06,5.46,9.06,5.46.6-5.9-2.63-10.24S371.08,139.61,371.08,139.61Z" style="fill:#fff"></path><path d="M371,113.5s-.59,5.9,2.64,10.24,9.06,5.46,9.06,5.46.59-5.9-2.64-10.24S371,113.5,371,113.5Z" style="fill:#fff"></path><path d="M302,276.91c0,39.84-23.57,72.14-52.65,72.14s-52.65-32.3-52.65-72.14,23.57-176.8,52.65-176.8S302,237.06,302,276.91Z" style="fill:#FF81AE"></path><path d="M302,276.91c0,39.84-23.57,72.14-52.65,72.14s-52.65-32.3-52.65-72.14,23.57-176.8,52.65-176.8S302,237.06,302,276.91Z" style="fill:#fff;opacity:0.5"></path><polygon points="220.95 280.49 237.74 286.35 246.06 297.65 244.61 332.27 234.93 325.7 244.31 339.44 242.91 440.71 253.51 441.25 251.03 313.13 278.91 297.75 262.97 303.65 266.17 294.05 258.55 305.28 250.94 308.1 250.4 276.59 278.09 239.79 263.25 254.63 265.76 244.31 258.66 259.22 250.24 267.64 249.39 218.41 246.38 290.21 220.13 262.4 234.55 282 220.95 280.49" style="fill:#b2b2b2"></polygon><path d="M278.36,218.56s.48,4.84-2.16,8.39-7.42,4.47-7.42,4.47-.48-4.84,2.16-8.39S278.36,218.56,278.36,218.56Z" style="fill:#fff"></path><path d="M294.23,240.86s.48,4.83-2.16,8.38-7.42,4.48-7.42,4.48-.49-4.84,2.16-8.39S294.23,240.86,294.23,240.86Z" style="fill:#fff"></path><path d="M294.22,284.27s-1.17,4.71-4.86,7.17-8.49,1.71-8.49,1.71,1.17-4.72,4.86-7.17S294.22,284.27,294.22,284.27Z" style="fill:#fff"></path><path d="M207.07,284.27s1.17,4.71,4.85,7.17,8.49,1.71,8.49,1.71-1.17-4.72-4.85-7.17S207.07,284.27,207.07,284.27Z" style="fill:#fff"></path><path d="M275.89,266.25s.49,4.83-2.16,8.38-7.41,4.48-7.41,4.48-.49-4.84,2.15-8.39S275.89,266.25,275.89,266.25Z" style="fill:#fff"></path><path d="M271.78,194.31s.49,4.83-2.16,8.39-7.42,4.47-7.42,4.47-.48-4.84,2.16-8.39S271.78,194.31,271.78,194.31Z" style="fill:#fff"></path><path d="M262.32,212.81s.49,4.83-2.15,8.38-7.42,4.48-7.42,4.48-.49-4.84,2.16-8.39S262.32,212.81,262.32,212.81Z" style="fill:#fff"></path><path d="M284.77,199.34s.49,4.83-2.16,8.39-7.41,4.47-7.41,4.47-.49-4.84,2.15-8.39S284.77,199.34,284.77,199.34Z" style="fill:#fff"></path><path d="M211.83,199.34s-.48,4.83,2.16,8.39,7.42,4.47,7.42,4.47.48-4.84-2.16-8.39S211.83,199.34,211.83,199.34Z" style="fill:#fff"></path><path d="M273.83,171.7s.49,4.84-2.15,8.39-7.42,4.47-7.42,4.47-.49-4.84,2.16-8.39S273.83,171.7,273.83,171.7Z" style="fill:#fff"></path><path d="M269.19,147.68s1.68,4.56,0,8.66-6.06,6.19-6.06,6.19-1.69-4.56,0-8.66S269.19,147.68,269.19,147.68Z" style="fill:#fff"></path><path d="M235.89,141.41s4.31,2.25,5.82,6.41-.35,8.66-.35,8.66-4.31-2.26-5.82-6.42S235.89,141.41,235.89,141.41Z" style="fill:#fff"></path><path d="M251.42,170.12s3.07,3.78,2.81,8.2-3.73,7.81-3.73,7.81-3.07-3.77-2.81-8.19S251.42,170.12,251.42,170.12Z" style="fill:#fff"></path><path d="M250.6,127.37s3.07,3.77,2.81,8.19-3.73,7.82-3.73,7.82-3.07-3.77-2.82-8.19S250.6,127.37,250.6,127.37Z" style="fill:#fff"></path><path d="M215.75,218.56s-.48,4.84,2.16,8.39,7.42,4.47,7.42,4.47.48-4.84-2.16-8.39S215.75,218.56,215.75,218.56Z" style="fill:#fff"></path><path d="M206.71,244.87s-.49,4.84,2.16,8.39,7.41,4.47,7.41,4.47.49-4.84-2.15-8.39S206.71,244.87,206.71,244.87Z" style="fill:#fff"></path><path d="M230.72,254.42s-.49,4.84,2.15,8.39,7.42,4.47,7.42,4.47.49-4.84-2.16-8.39S230.72,254.42,230.72,254.42Z" style="fill:#fff"></path><path d="M237.28,218s-1.85,4.49-.34,8.65,5.83,6.41,5.83,6.41,1.85-4.49.34-8.65S237.28,218,237.28,218Z" style="fill:#fff"></path><path d="M220.28,315s4.86.09,8.18-2.84,3.85-7.75,3.85-7.75-4.86-.09-8.18,2.83S220.28,315,220.28,315Z" style="fill:#fff"></path><path d="M266.92,309.65s1.32,4.68,5.08,7,8.54,1.44,8.54,1.44-1.32-4.68-5.08-7S266.92,309.65,266.92,309.65Z" style="fill:#fff"></path><path d="M225.7,194.31s-.48,4.83,2.16,8.39,7.42,4.47,7.42,4.47.48-4.84-2.16-8.39S225.7,194.31,225.7,194.31Z" style="fill:#fff"></path><path d="M225.62,172.93s-.49,4.84,2.16,8.39,7.41,4.47,7.41,4.47.49-4.84-2.15-8.39S225.62,172.93,225.62,172.93Z" style="fill:#fff"></path><path d="M109.43,301.53c0,33.88-20,61.34-44.75,61.34s-44.76-27.46-44.76-61.34,20-150.3,44.76-150.3S109.43,267.66,109.43,301.53Z" style="fill:#FF81AE"></path><path d="M109.43,301.53c0,33.88-20,61.34-44.75,61.34s-44.76-27.46-44.76-61.34,20-150.3,44.76-150.3S109.43,267.66,109.43,301.53Z" style="fill:#fff;opacity:0.5"></path><polygon points="40.5 304.58 54.77 309.56 61.84 319.17 60.61 348.61 52.38 343.02 60.35 354.7 59.16 440.79 68.17 441.25 66.06 332.33 89.77 319.26 76.22 324.27 78.94 316.11 72.46 325.66 65.99 328.05 65.53 301.26 89.07 269.98 76.46 282.6 78.59 273.83 72.55 286.5 65.4 293.66 64.68 251.8 62.11 312.85 39.8 289.2 52.05 305.86 40.5 304.58" style="fill:#b2b2b2"></polygon><path d="M89.3,251.93a11.49,11.49,0,0,1-1.83,7.14,11.49,11.49,0,0,1-6.31,3.8,9.73,9.73,0,0,1,8.14-10.94Z" style="fill:#fff"></path><path d="M102.79,270.89a9.71,9.71,0,0,1-8.14,10.93,9.71,9.71,0,0,1,8.14-10.93Z" style="fill:#fff"></path><path d="M102.78,307.79a11.43,11.43,0,0,1-4.12,6.1,11.42,11.42,0,0,1-7.22,1.46,11.37,11.37,0,0,1,4.13-6.1A11.39,11.39,0,0,1,102.78,307.79Z" style="fill:#fff"></path><path d="M28.7,307.79a11.43,11.43,0,0,0,4.12,6.1A11.42,11.42,0,0,0,40,315.35a11.37,11.37,0,0,0-4.13-6.1A11.39,11.39,0,0,0,28.7,307.79Z" style="fill:#fff"></path><path d="M87.2,292.47a9.73,9.73,0,0,1-8.14,10.94,9.74,9.74,0,0,1,8.14-10.94Z" style="fill:#fff"></path><path d="M83.71,231.32a11.43,11.43,0,0,1-1.84,7.13,11.38,11.38,0,0,1-6.3,3.8,9.71,9.71,0,0,1,8.14-10.93Z" style="fill:#fff"></path><path d="M75.67,247a11.47,11.47,0,0,1-1.83,7.13,11.43,11.43,0,0,1-6.31,3.8,11.47,11.47,0,0,1,1.83-7.13A11.43,11.43,0,0,1,75.67,247Z" style="fill:#fff"></path><path d="M94.75,235.59a9.71,9.71,0,0,1-8.14,10.93,9.73,9.73,0,0,1,8.14-10.93Z" style="fill:#fff"></path><path d="M32.74,235.59a11.43,11.43,0,0,0,1.84,7.13,11.41,11.41,0,0,0,6.3,3.8,11.39,11.39,0,0,0-1.83-7.13A11.43,11.43,0,0,0,32.74,235.59Z" style="fill:#fff"></path><path d="M85.46,212.1a11.43,11.43,0,0,1-1.84,7.13,11.48,11.48,0,0,1-6.3,3.8,9.71,9.71,0,0,1,8.14-10.93Z" style="fill:#fff"></path><path d="M81.51,191.68a9.73,9.73,0,0,1-5.14,12.62,9.73,9.73,0,0,1,5.14-12.62Z" style="fill:#fff"></path><path d="M53.2,186.34a9.72,9.72,0,0,1,4.65,12.81,9.71,9.71,0,0,1-4.65-12.81Z" style="fill:#fff"></path><path d="M66.4,210.76a9.72,9.72,0,0,1-.78,13.6,9.72,9.72,0,0,1,.78-13.6Z" style="fill:#fff"></path><path d="M65.7,174.41A9.73,9.73,0,0,1,64.92,188a9.74,9.74,0,0,1,.78-13.61Z" style="fill:#fff"></path><path d="M36.08,251.93a11.42,11.42,0,0,0,1.83,7.14,11.49,11.49,0,0,0,6.31,3.8,11.42,11.42,0,0,0-1.84-7.13A11.43,11.43,0,0,0,36.08,251.93Z" style="fill:#fff"></path><path d="M28.39,274.3a11.47,11.47,0,0,0,1.83,7.13,11.43,11.43,0,0,0,6.31,3.8,11.47,11.47,0,0,0-1.83-7.13A11.43,11.43,0,0,0,28.39,274.3Z" style="fill:#fff"></path><path d="M48.8,282.42a11.39,11.39,0,0,0,1.83,7.13,11.43,11.43,0,0,0,6.31,3.8,11.43,11.43,0,0,0-1.84-7.13A11.38,11.38,0,0,0,48.8,282.42Z" style="fill:#fff"></path><path d="M54.38,251.43a9.72,9.72,0,0,0,4.67,12.81,11.45,11.45,0,0,0,.28-7.36A11.42,11.42,0,0,0,54.38,251.43Z" style="fill:#fff"></path><path d="M39.93,333.9a11.42,11.42,0,0,0,7-2.42,11.35,11.35,0,0,0,3.27-6.59,11.38,11.38,0,0,0-6.95,2.41A11.39,11.39,0,0,0,39.93,333.9Z" style="fill:#fff"></path><path d="M79.58,329.38a11.43,11.43,0,0,0,4.32,6,11.44,11.44,0,0,0,7.26,1.22,11.43,11.43,0,0,0-4.32-6A11.44,11.44,0,0,0,79.58,329.38Z" style="fill:#fff"></path><path d="M44.54,231.32a11.39,11.39,0,0,0,1.83,7.13,11.43,11.43,0,0,0,6.31,3.8,11.43,11.43,0,0,0-1.84-7.13A11.41,11.41,0,0,0,44.54,231.32Z" style="fill:#fff"></path><path d="M44.47,213.14a11.38,11.38,0,0,0,1.83,7.13,11.46,11.46,0,0,0,6.3,3.81,11.42,11.42,0,0,0-1.83-7.14A11.48,11.48,0,0,0,44.47,213.14Z" style="fill:#fff"></path></g><g id="freepik--Plants--inject-203"><path d="M101.65,406.07c-3.55.58-8.53,3.47-10.74,4.92a60,60,0,0,0-6,2.12c1.87-1.65,6.93-6.16,6-10.58-1.42-5.72-8.07-1.06-7.92,3.66,0,3.88-.47,6.81-1.13,8.25a64.47,64.47,0,0,0-6.32,3.47c1.52-1.88,5.8-7.22,4.15-11.47-2.35-5.39-8,.29-7.11,4.91.64,3.85.69,6.81.28,8.34a62.53,62.53,0,0,0-5.66,4.48c1.16-2.06,4.54-8.09,2.18-12-3.22-4.92-7.87,1.61-6.18,6,1.28,3.69,1.83,6.61,1.67,8.18A63.09,63.09,0,0,0,60,431.7c.81-2.26,3.13-8.76.16-12.23-4-4.32-7.51,2.92-5.11,7,1.87,3.42,2.89,6.21,3,7.8a62.37,62.37,0,0,0-3.89,6.1,27.64,27.64,0,0,0,.52-6c1-1.78,1-3.53-.82-4a5.81,5.81,0,0,0-1.58-2.15,4.56,4.56,0,0,0-1-.63c3.33-2.2,4.78-6.05-.43-6.06-4.66-.16-6.89,5.48-7.54,8a61.22,61.22,0,0,1-.57-6.76c1-1.22,3.5-2.73,7.09-3.68,4.28-1.29,7.32-5.46,1.69-6.42-4.56-.94-7.7,4.22-8.77,6.62a60.48,60.48,0,0,1,.56-6.72c1.2-1,3.9-2.1,7.61-2.44,4.43-.56,8.13-4.17,2.74-6.07-4.37-1.7-8.36,3-9.79,5.13a59.85,59.85,0,0,1,1.68-6.58c1.35-.82,4.21-1.45,7.94-1.17,4.47.19,8.74-2.79,3.75-5.57-4-2.42-8.81,1.6-10.57,3.5a60.33,60.33,0,0,1,2.57-5.83c1.81-1.75,5.21-4.89,6.73-6.12,2-1.91,3.84-4.62,2.93-6.48s-4.48-2.79-7,1.21c-2,3-3.26,8.61-3.7,11.22a59.57,59.57,0,0,0-2.56,5.87c.06-2.5.2-9.28-3.64-11.64-5.15-2.85-6.26,5.19-2.7,8.3,2.82,2.66,4.67,5,5.28,6.44a58.59,58.59,0,0,0-1.76,7c-.35-2.39-1.35-9.16-5.58-10.85-5.56-1.94-5.28,6.1-1.25,8.56,3.26,2.15,5.47,4.13,6.3,5.47a64.08,64.08,0,0,0-.56,7.2C41,417.54,38.91,411,34.42,410c-5.8-1-4.18,6.86.2,8.62,3.58,1.58,6.09,3.16,7.14,4.35a62.11,62.11,0,0,0,.63,7.19c-1.11-2.13-4.29-8.26-8.86-8.44-5.89,0-3,7.49,1.64,8.5,3.79,1,6.53,2.11,7.76,3.11a63.14,63.14,0,0,0,1.82,7c-1.5-2-5.65-7.43-10.13-6.85-5.8,1-1.65,7.95,3.08,8.19,3.86.32,6.75,1,8.16,1.78a61.38,61.38,0,0,0,3.6,7.72.49.49,0,0,0,.28.61h0a.5.5,0,0,0,.62-.31,61.48,61.48,0,0,1,3.16-7.78c1.47-.64,4.4-.87,8.07,0,4.41.81,9.07-1.5,4.54-5-3.63-3-8.92.27-11,1.91a61.94,61.94,0,0,1,3.74-5.82c1.56-.35,4.45-.06,7.89,1.37,4.19,1.57,9.15.11,5.27-4.09-3-3.53-8.7-1.32-11-.06a60.17,60.17,0,0,1,4.57-5c1.58-.08,4.37.71,7.51,2.69,3.86,2.26,9,1.65,5.86-3.14-2.42-4-8.33-2.76-10.83-1.91a62.38,62.38,0,0,1,5.31-4.17c1.58.19,4.2,1.43,7,3.92,3.43,2.87,8.59,3.12,6.31-2.13-1.73-4.35-7.85-4.1-10.42-3.68a60.27,60.27,0,0,1,6-3.24c1.52.43,3.92,2.09,6.26,5,2.9,3.4,8,4.5,6.63-1.05-1-4.62-7.16-5.37-9.76-5.37a60.42,60.42,0,0,1,6-2.08c2.51.13,7.13.49,9.06.76,2.75.17,6-.32,6.74-2.26S106.27,405.18,101.65,406.07ZM47.36,429.81a7.28,7.28,0,0,0-.1,3.94,15.55,15.55,0,0,0-1.66,6,62.87,62.87,0,0,1-1.72-6.71A11.09,11.09,0,0,1,47.36,429.81Zm2.54,20.11a59.76,59.76,0,0,1-3.13-6.82,11.93,11.93,0,0,1,3.51-4.46,16.85,16.85,0,0,1,2.39,4.65A60.19,60.19,0,0,0,49.9,449.92Z" style="fill:#263238"></path><path d="M478.69,398.7c-3.39.55-8.13,3.31-10.24,4.69a56.88,56.88,0,0,0-5.76,2c1.78-1.57,6.61-5.88,5.77-10.09-1.36-5.45-7.7-1-7.55,3.49,0,3.7-.45,6.49-1.08,7.87a58.69,58.69,0,0,0-6,3.31c1.45-1.8,5.53-6.89,4-10.94-2.25-5.14-7.68.27-6.79,4.68.61,3.67.67,6.5.28,7.95a57.31,57.31,0,0,0-5.4,4.28c1.1-2,4.33-7.72,2.08-11.48-3.07-4.69-7.51,1.54-5.89,5.74,1.22,3.53,1.74,6.31,1.59,7.81a58.84,58.84,0,0,0-4.62,5.11c.77-2.16,3-8.36.15-11.67-3.81-4.11-7.16,2.79-4.87,6.67,1.78,3.27,2.76,5.93,2.86,7.44a58.53,58.53,0,0,0-3.71,5.82,26.63,26.63,0,0,0,.5-5.7c1-1.71,1-3.37-.78-3.78a5.59,5.59,0,0,0-1.51-2.05,5.27,5.27,0,0,0-1-.61c3.17-2.09,4.56-5.76-.41-5.77-4.45-.16-6.57,5.23-7.2,7.67a60.94,60.94,0,0,1-.54-6.46c1-1.15,3.34-2.59,6.77-3.5,4.08-1.23,7-5.21,1.6-6.13-4.35-.89-7.34,4-8.36,6.32A60,60,0,0,1,423,405c1.15-1,3.73-2,7.26-2.33,4.23-.53,7.76-4,2.61-5.78-4.17-1.62-8,2.81-9.33,4.88a57,57,0,0,1,1.6-6.27c1.29-.78,4-1.38,7.58-1.11,4.26.18,8.33-2.66,3.57-5.32-3.86-2.3-8.4,1.53-10.08,3.34a55.87,55.87,0,0,1,2.45-5.56c1.72-1.67,5-4.66,6.42-5.83,1.9-1.82,3.66-4.41,2.79-6.18s-4.27-2.66-6.65,1.16c-1.9,2.85-3.1,8.21-3.53,10.69q-1.37,2.74-2.44,5.6c.07-2.38.2-8.85-3.47-11.1-4.91-2.71-6,4.95-2.57,7.91,2.69,2.54,4.45,4.75,5,6.15a59.54,59.54,0,0,0-1.68,6.66c-.33-2.28-1.28-8.73-5.32-10.34-5.29-1.85-5,5.81-1.19,8.16,3.11,2.05,5.22,3.93,6,5.21a56.44,56.44,0,0,0-.54,6.87c-.7-2.15-2.72-8.43-7-9.34-5.53-.94-4,6.55.2,8.22,3.41,1.51,5.81,3,6.8,4.15a60.87,60.87,0,0,0,.6,6.86c-1.05-2-4.09-7.87-8.44-8.05-5.61,0-2.84,7.14,1.57,8.11,3.61.92,6.22,2,7.4,3a59,59,0,0,0,1.73,6.68c-1.43-1.9-5.39-7.09-9.66-6.53-5.54.93-1.58,7.58,2.93,7.8,3.69.31,6.44,1,7.79,1.71a59.8,59.8,0,0,0,3.43,7.36.47.47,0,0,0,.27.58h0a.48.48,0,0,0,.59-.3,57.88,57.88,0,0,1,3-7.42c1.4-.61,4.2-.83,7.7,0,4.2.78,8.65-1.43,4.32-4.74-3.46-2.87-8.5.25-10.46,1.82a59.55,59.55,0,0,1,3.57-5.55c1.49-.34,4.25-.06,7.53,1.3,4,1.5,8.72.1,5-3.9-2.91-3.36-8.3-1.25-10.51-.05a59.79,59.79,0,0,1,4.36-4.79c1.51-.07,4.17.68,7.17,2.58,3.68,2.15,8.56,1.57,5.58-3-2.31-3.79-8-2.63-10.32-1.83a58.92,58.92,0,0,1,5.06-4c1.5.18,4,1.37,6.64,3.74,3.27,2.73,8.2,3,6-2-1.65-4.15-7.48-3.92-9.93-3.51a56.8,56.8,0,0,1,5.69-3.1c1.45.42,3.74,2,6,4.8,2.77,3.25,7.63,4.3,6.33-1-.93-4.4-6.83-5.12-9.3-5.12a58.9,58.9,0,0,1,5.74-2c2.4.13,6.8.48,8.64.74,2.63.15,5.73-.31,6.43-2.16S483.1,397.85,478.69,398.7Zm-51.77,22.63a7,7,0,0,0-.1,3.77,14.75,14.75,0,0,0-1.58,5.74,57,57,0,0,1-1.64-6.39A10.63,10.63,0,0,1,426.92,421.33Zm2.42,19.18a55.13,55.13,0,0,1-3-6.5,11.18,11.18,0,0,1,3.34-4.25A15.74,15.74,0,0,1,432,434.2,58.3,58.3,0,0,0,429.34,440.51Z" style="fill:#263238"></path></g><g id="freepik--character-3--inject-203"><path d="M348.36,107.14s-12.57,3.79-14.36,10.57,3.19,15.37,4.39,19.16,1.19,17.36.2,19.36-8.59,5-8.59,9,2.6,5.79,2.2,7.58-5.39,2.4-5.19,5.39a21.12,21.12,0,0,0,2.2,6.78s16.76-8.78,19-11.37,2.2-11.77,2.2-11.77-9.78-18.16-9.58-19.56,1-17,3.79-20.16S351.76,107.93,348.36,107.14Z" style="fill:#263238"></path><path d="M329.21,185.46a.5.5,0,0,1-.45-.26,21.65,21.65,0,0,1-2.25-7c-.14-2.06,1.75-3.12,3.27-4,.89-.5,1.81-1,1.93-1.55a3.7,3.7,0,0,0-.71-2.25,10.54,10.54,0,0,1-1.5-5.22c0-2.8,3.21-5,5.78-6.82a10.74,10.74,0,0,0,2.86-2.39c.93-1.86.95-15.23-.23-19-.27-.84-.73-1.93-1.26-3.2-1.82-4.31-4.57-10.83-3.14-16.24,1.85-7,14.19-10.76,14.71-10.92a.46.46,0,0,1,.26,0,1.94,1.94,0,0,1,1.43,1.42c1.07,3.35-2.72,11.8-5,14.36s-3.21,14.4-3.53,18.28c-.07.82-.11,1.4-.14,1.62,0,1.17,5.85,12.43,9.52,19.25a.48.48,0,0,1,.06.24c0,.38,0,9.39-2.31,12.09s-18.42,11.14-19.11,11.5A.5.5,0,0,1,329.21,185.46Zm19.16-77.8c-1.37.44-12.29,4.12-13.89,10.18-1.35,5.08,1.32,11.4,3.09,15.59.54,1.29,1,2.41,1.29,3.29,1.16,3.68,1.28,17.51.17,19.73-.42.84-1.64,1.69-3.18,2.76-2.38,1.66-5.35,3.72-5.35,6a9.73,9.73,0,0,0,1.39,4.76,4.48,4.48,0,0,1,.8,2.93c-.22,1-1.29,1.57-2.42,2.2-1.4.79-2.86,1.61-2.76,3.05a19.26,19.26,0,0,0,1.92,6.13c5.89-3.1,16.71-9.07,18.35-11s2.07-8.73,2.08-11.33c-2.38-4.42-9.78-18.32-9.57-19.75,0-.22.07-.77.13-1.56.61-7.47,1.59-16.36,3.78-18.86s5.63-10.66,4.76-13.4A1,1,0,0,0,348.37,107.66Z" style="fill:#263238"></path><path d="M281.43,270.19s-3.08,1.74-3.67,2-2.09,2.53-4.17,3.72-3.58,2.23-2.39,2.83a3.81,3.81,0,0,0,3.28.3l.74-.45-1.85,3.28c-.48.85-1,1.7-1.45,2.55s-1.91,2.3-.59,3a1.54,1.54,0,0,0,1.43-.1,4.6,4.6,0,0,0,1.11-1,38.67,38.67,0,0,0,4-5.59l-3,6.68a10.5,10.5,0,0,0-1,2.28c-.11.69.49,1.05,1.1,1.18,1.48.31,2.32-1.84,2.92-2.8s1.11-1.79,1.67-2.68c.75-1.21,1.48-2.44,2.26-3.63-.46,1.24-.91,2.49-1.36,3.73-.52,1.45-1.19,2.84-1.7,4.28-.2.58-.11,1.25.55,1.38,1.91.4,2.42-1.26,3-2.61l1.13-2.6,1.49-3.44-1.34,7.3s.29,1.92,1.74,1.05c.71-.43,1.37-2.46,1.37-2.46l1.06-5.74,1.41-8.16Z" style="fill:#fff"></path><path d="M279.83,291.71a3.16,3.16,0,0,1-.66-.07,1.25,1.25,0,0,1-.86-.61,1.74,1.74,0,0,1-.06-1.42c.27-.76.59-1.52.89-2.25.17-.42.35-.83.51-1.25l-1.38,2.22c-.1.16-.21.36-.32.57-.61,1.11-1.52,2.79-3.12,2.46-1.06-.23-1.63-.9-1.49-1.75a5.79,5.79,0,0,1,.72-1.76l.33-.65.72-1.6c-.28.36-.57.7-.87,1a4.5,4.5,0,0,1-1.23,1.11,2.05,2.05,0,0,1-1.9.12,1.4,1.4,0,0,1-.78-.89c-.2-.79.39-1.63.85-2.31a5.33,5.33,0,0,0,.31-.46l2.51-4.43a4.91,4.91,0,0,1-3-.55,1.1,1.1,0,0,1-.7-.94c0-.85,1.06-1.63,3.06-2.77a13.66,13.66,0,0,0,3.06-2.68,5,5,0,0,1,1.13-1.06c.58-.29,3.62-2,3.65-2a.53.53,0,0,1,.49,0l7.72,4.31a.51.51,0,0,1,.25.52l-1.42,8.16-1.06,5.74c-.13.44-.77,2.3-1.6,2.8a1.55,1.55,0,0,1-1.5.18,2.2,2.2,0,0,1-1-1.59.43.43,0,0,1,0-.16l.55-3-1,2.36C282.12,290.21,281.48,291.71,279.83,291.71Zm1.95-10.45a.44.44,0,0,1,.22.05.51.51,0,0,1,.25.62l-1.36,3.73c-.25.7-.54,1.39-.83,2.08s-.6,1.46-.86,2.2a.74.74,0,0,0,0,.6.24.24,0,0,0,.19.12c1.29.27,1.71-.58,2.31-2l2.76-6.38a.52.52,0,0,1,.61-.28.5.5,0,0,1,.34.57l-1.32,7.21c.06.27.22.66.42.75a.68.68,0,0,0,.55-.13,5.42,5.42,0,0,0,1.16-2.18l1-5.68,1.35-7.8-7.16-4c-.75.42-2.94,1.66-3.45,1.92a5.61,5.61,0,0,0-.84.83,14.1,14.1,0,0,1-3.31,2.87c-2.09,1.2-2.5,1.69-2.55,1.87,0,0,.06,0,.15.08a3.33,3.33,0,0,0,2.79.32l.75-.45a.5.5,0,0,1,.69.68l-3.3,5.83c-.09.15-.21.33-.35.54-.3.42-.8,1.13-.71,1.48,0,0,0,.14.25.25a1.1,1.1,0,0,0,1-.1,4,4,0,0,0,1-.89,38.39,38.39,0,0,0,3.95-5.51.5.5,0,0,1,.66-.19.5.5,0,0,1,.23.65l-3,6.67c-.1.22-.23.46-.36.71a5.36,5.36,0,0,0-.62,1.45c-.06.39.42.55.72.61.79.18,1.39-.79,2-2,.13-.23.24-.44.35-.62l2.42-3.89c.5-.81,1-1.63,1.52-2.42A.48.48,0,0,1,281.78,281.26Z" style="fill:#263238"></path><path d="M275.22,278.63l2.68-1s3.43,1.34,5.81-.45l2.38-1.79" style="fill:#fff"></path><path d="M275.22,279.13a.5.5,0,0,1-.18-1l2.68-1.05a.59.59,0,0,1,.37,0s3.19,1.22,5.32-.38l2.38-1.79a.51.51,0,0,1,.7.1.5.5,0,0,1-.1.7L284,277.54c-2.27,1.7-5.31.85-6.1.58l-2.5,1A.58.58,0,0,1,275.22,279.13Z" style="fill:#263238"></path><path d="M318.76,189.59l-8.46,48.69-28.87,31.91,9.51,5.74s19.93-12.32,28-19.66c7.42-6.78,11.48-16,11.66-16.92s-4.12-47.51-4.12-47.51Z" style="fill:#FF81AE"></path><path d="M290.94,276.43a.59.59,0,0,1-.26-.07l-9.5-5.74a.5.5,0,0,1-.24-.36.49.49,0,0,1,.12-.4l28.77-31.81,8.43-48.55a.54.54,0,0,1,.23-.34.53.53,0,0,1,.41,0l7.68,2.25a.49.49,0,0,1,.35.43c.72,7.8,4.31,46.74,4.12,47.66-.23,1.16-4.38,10.4-11.81,17.19-8,7.29-27.84,19.59-28,19.71A.5.5,0,0,1,290.94,276.43Zm-8.73-6.35,8.72,5.26c2.37-1.47,20.22-12.66,27.63-19.44a48.41,48.41,0,0,0,11.51-16.65c.08-1.21-2.9-34-4.1-47l-6.82-2-8.36,48.14a.42.42,0,0,1-.12.25Zm28.09-31.8h0Z" style="fill:#263238"></path><path d="M322.61,265.77s-2,21.86,2,41.17a384.72,384.72,0,0,1,5.85,41.43s-1.78,4.82-.51,16.77,6.35,62.91,6.1,65.2-6.36,6.35-10.42,8.38-12.45,2.8-8.64,5.34,10.67,2.29,17,2,13.73-3,13.73-3l.25,2.29,6.36-.51a24.67,24.67,0,0,0,.76-8.64,65,65,0,0,0-2.8-11.18c-.76-2.54,1.78-61.89,2.29-72.31s3.12-58.07,3.12-58.07l.78-6.24s3.72,57.44,4.23,60.75,9.66,62.26,10.93,69.12-1.53,9.66-1.78,11.69-5.08,9.15-7.12,10.93,0,4.83,3.56,5.34,12.71,0,15.5-1.53a8.12,8.12,0,0,0,4.32-7.11c0-2.8-2-11.19-2-13.73s5.08-26.94,4.83-45.23-2-31-2-33,7.44-26,8.46-48.88-.84-27.11-.84-27.11S317,258.15,322.61,265.77Z" style="fill:#263238"></path><path d="M371.82,446.89a27.49,27.49,0,0,1-3.54-.19c-2.3-.33-4.17-1.68-4.67-3.36a2.66,2.66,0,0,1,.86-2.85c1.95-1.71,6.71-8.77,6.94-10.61a8.64,8.64,0,0,1,.69-2.07,14.57,14.57,0,0,0,1.1-9.47c-1.26-6.78-10.33-65.24-10.93-69.14-.42-2.73-3-41.26-3.89-55.57l-.14,1.05c0,.44-2.61,47.73-3.11,58-.64,13.11-3,69.83-2.31,72.15l.44,1.41a54.4,54.4,0,0,1,2.37,9.85,24.57,24.57,0,0,1-.78,8.84.49.49,0,0,1-.43.36l-6.36.51a.51.51,0,0,1-.54-.44l-.18-1.66a50.43,50.43,0,0,1-13.28,2.86c-6.25.25-13.35.54-17.32-2.11-.32-.22-1.32-.88-1.18-1.79.19-1.27,2.43-1.94,5.25-2.78a30.54,30.54,0,0,0,4.62-1.63c4.64-2.32,9.95-6.18,10.15-8,.24-2.18-4.74-52.28-6.1-65.09-1.18-11.1.24-16.09.5-16.89A388.09,388.09,0,0,0,324.15,307c-3.84-18.24-2.24-39-2.06-41.13a1.37,1.37,0,0,1-.08-1.49c3.25-5.42,67.33,3.62,74.62,4.67a.51.51,0,0,1,.39.29c.08.18,1.89,4.61.88,27.33-.77,17.26-5.19,35.17-7.32,43.78-.64,2.59-1.14,4.64-1.14,5.08s.13,1.86.31,3.72c.53,5.53,1.53,15.84,1.72,29.31s-2.51,30.28-4,39.28c-.5,3.1-.86,5.33-.86,6a54.07,54.07,0,0,0,1,6.48,53.52,53.52,0,0,1,1.06,7.25,8.64,8.64,0,0,1-4.58,7.55C381.86,446.34,376,446.89,371.82,446.89Zm-13.29-159h0a.49.49,0,0,1,.48.47c0,.57,3.73,57.46,4.23,60.7.6,3.9,9.67,62.34,10.92,69.11a15.65,15.65,0,0,1-1.16,10,7.41,7.41,0,0,0-.61,1.79c-.29,2.29-5.27,9.48-7.29,11.25a1.65,1.65,0,0,0-.55,1.81,4.52,4.52,0,0,0,3.85,2.65c3.56.51,12.57,0,15.2-1.47a7.64,7.64,0,0,0,4.05-6.67,55.32,55.32,0,0,0-1-7.07,51,51,0,0,1-1-6.66c0-.71.35-2.86.88-6.12,1.44-9,4.14-25.67,4-39.11s-1.18-23.7-1.72-29.23c-.19-1.95-.31-3.25-.31-3.81a42.15,42.15,0,0,1,1.17-5.32c2.12-8.58,6.53-26.42,7.29-43.58.87-19.5-.38-25.43-.72-26.63-28.39-4.08-71.12-8.77-73.31-5.11,0,.05-.12.19.14.55a.52.52,0,0,1,.1.34c0,.22-2,22,2,41A384.17,384.17,0,0,1,331,348.33a.5.5,0,0,1,0,.21s-1.72,4.9-.48,16.55c1.26,11.88,6.35,63,6.09,65.3-.32,3-8,7.45-10.69,8.78a32,32,0,0,1-4.78,1.7c-1.88.56-4.45,1.33-4.55,2,0,.14.16.43.74.81,3.71,2.48,10.63,2.2,16.73,1.95s13.5-3,13.57-3a.49.49,0,0,1,.44,0,.47.47,0,0,1,.23.37l.2,1.8,5.52-.44a24,24,0,0,0,.66-8.11,54.23,54.23,0,0,0-2.34-9.67l-.44-1.43c-.83-2.79,1.94-65.78,2.27-72.48.5-10.3,3.09-57.59,3.12-58.07l.79-6.27A.5.5,0,0,1,358.53,287.88Z" style="fill:#263238"></path><path d="M334,446.09c6.36-.25,13.73-3,13.73-3l.25,2.29,6.36-.51a24.67,24.67,0,0,0,.76-8.64,65,65,0,0,0-2.8-11.18c-.76-2.54,1.78-61.89,2.29-72.31-8,3-18.23,1-24.81-.95a59.49,59.49,0,0,0,.16,13.4c1.27,11.94,6.35,62.91,6.1,65.2s-6.36,6.35-10.42,8.38-12.45,2.8-8.64,5.34S327.69,446.35,334,446.09Z" style="fill:#a3a3a3"></path><path d="M328.28,446.75c-4.47,0-8.76-.42-11.54-2.27-.32-.22-1.32-.88-1.18-1.79.19-1.27,2.42-1.94,5.25-2.78a30.54,30.54,0,0,0,4.62-1.63c4.64-2.32,9.95-6.18,10.15-8,.24-2.18-4.74-52.28-6.1-65.09a60.92,60.92,0,0,1-.16-13.51.51.51,0,0,1,.22-.35.53.53,0,0,1,.42-.07c6.88,2,16.72,3.85,24.49,1a.5.5,0,0,1,.68.49c-.64,13.11-3,69.83-2.31,72.15l.44,1.41a54.4,54.4,0,0,1,2.37,9.85,24.57,24.57,0,0,1-.78,8.84.49.49,0,0,1-.43.36l-6.36.51a.51.51,0,0,1-.54-.44l-.18-1.66a50.43,50.43,0,0,1-13.28,2.86h0C332.18,446.67,330.21,446.75,328.28,446.75Zm5.76-.66h0Zm-3.79-93.7a61,61,0,0,0,.23,12.7c1.26,11.88,6.35,63,6.09,65.3-.32,3-8,7.45-10.69,8.78a32,32,0,0,1-4.78,1.7c-1.88.56-4.45,1.33-4.55,2,0,.14.16.43.74.81,3.71,2.48,10.63,2.2,16.73,1.95s13.5-3,13.57-3a.49.49,0,0,1,.44,0,.47.47,0,0,1,.23.37l.2,1.8,5.52-.44a24,24,0,0,0,.66-8.11,54.23,54.23,0,0,0-2.34-9.67l-.44-1.43c-.81-2.71,1.78-62.09,2.23-71.74C346.4,356,337,354.33,330.25,352.39Z" style="fill:#263238"></path><path d="M383.85,444.68a8.12,8.12,0,0,0,4.32-7.11c0-2.8-2-11.19-2-13.73s5.08-26.94,4.83-45.23c-.16-11.52-.92-20.82-1.47-26.64a49,49,0,0,1-26.09,1.33c2.2,14.22,9.18,59,10.28,64.95,1.27,6.86-1.53,9.66-1.78,11.69s-5.08,9.15-7.12,10.93,0,4.83,3.56,5.34S381.06,446.21,383.85,444.68Z" style="fill:#a3a3a3"></path><path d="M371.82,446.89a27.49,27.49,0,0,1-3.54-.19c-2.3-.33-4.17-1.68-4.67-3.36a2.66,2.66,0,0,1,.86-2.85c1.95-1.71,6.71-8.77,6.94-10.61a8.64,8.64,0,0,1,.69-2.07,14.57,14.57,0,0,0,1.1-9.47c-1.2-6.48-9.36-59-10.29-65a.52.52,0,0,1,.16-.44.48.48,0,0,1,.44-.13,48.91,48.91,0,0,0,25.83-1.31.5.5,0,0,1,.43.05.48.48,0,0,1,.23.38c.55,5.92,1.31,15.13,1.47,26.67.19,13.52-2.51,30.28-4,39.28-.5,3.1-.86,5.33-.86,6a54.07,54.07,0,0,0,1,6.48,53.52,53.52,0,0,1,1.06,7.25,8.64,8.64,0,0,1-4.58,7.55h0C381.86,446.34,376,446.89,371.82,446.89ZM364,353.94c1.33,8.57,9,58,10.17,64.22a15.65,15.65,0,0,1-1.16,10,7.41,7.41,0,0,0-.61,1.79c-.29,2.29-5.27,9.48-7.29,11.25a1.65,1.65,0,0,0-.55,1.81,4.52,4.52,0,0,0,3.85,2.65c3.56.51,12.57,0,15.2-1.47h0a7.64,7.64,0,0,0,4.05-6.67,55.32,55.32,0,0,0-1-7.07,51,51,0,0,1-1-6.66c0-.71.35-2.86.88-6.12,1.44-9,4.14-25.67,4-39.11-.15-11.1-.86-20-1.41-26A49.05,49.05,0,0,1,364,353.94Z" style="fill:#263238"></path><path d="M372.49,444.88a15.6,15.6,0,0,1-6.92-1.28.5.5,0,0,1,.48-.88c.06,0,6.6,3.37,19.15-1.55a.48.48,0,0,1,.64.28.49.49,0,0,1-.28.65A35.92,35.92,0,0,1,372.49,444.88Z" style="fill:#263238"></path><path d="M328.26,444.91c-6.15,0-8.5-.84-8.62-.89a.49.49,0,0,1-.29-.64.5.5,0,0,1,.64-.3s4.16,1.47,15.79.48a35.94,35.94,0,0,0,13.12-3.46c2-.92,3.5-1.59,5.11-1.09a.5.5,0,0,1-.29.95c-1.24-.38-2.43.16-4.41,1.05a37.34,37.34,0,0,1-13.44,3.55C332.85,444.82,330.34,444.91,328.26,444.91Z" style="fill:#263238"></path><path d="M382.64,189.59l-49.18-.42s-4.83,50.64-7.77,60.73a152.83,152.83,0,0,0-4.2,18.91s22.9,8,42.23,7.77a130.35,130.35,0,0,0,34-4.83Z" style="fill:#fff"></path><path d="M363,277.09c-19,0-41.43-7.73-41.66-7.81a.51.51,0,0,1-.33-.54,154,154,0,0,1,4.22-19c2.9-9.93,7.71-60.13,7.76-60.64a.49.49,0,0,1,.49-.45h0l49.17.42a.5.5,0,0,1,.49.41l15.13,82.16a.51.51,0,0,1-.34.57,132.12,132.12,0,0,1-34.19,4.85ZM322,268.47c3.11,1,24.07,7.81,41.68,7.61a132.49,132.49,0,0,0,33.47-4.68l-15-81.32-48.3-.41c-.52,5.39-4.94,50.74-7.75,60.37A157.66,157.66,0,0,0,322,268.47Z" style="fill:#263238"></path><path d="M339.77,176.56s-21,11.35-21,13-.21,56.1-.21,56.1l20-.84Z" style="fill:#FF81AE"></path><path d="M318.54,246.19a.49.49,0,0,1-.34-.14.48.48,0,0,1-.16-.36c0-.54.21-54.44.21-56.1s13.33-9.18,21.28-13.47a.52.52,0,0,1,.5,0,.51.51,0,0,1,.24.44L339,244.86a.5.5,0,0,1-.48.49l-20,.84Zm20.71-68.78c-9.48,5.14-19.52,11.07-20,12.25,0,1.51-.17,49.91-.19,55.51l19-.8Z" style="fill:#263238"></path><path d="M397.09,291.16s-3.35,7-3.35,7.88a83.18,83.18,0,0,1-.73,10.65c-.59,2.77.14,3.79,1.31,3.79s3.79-8.32,3.94-9.34.87,9.05.58,10.22-2.77,4.81-2.19,6,4.38.29,6.42-1.46,4.24-11.24,5-15.32-.14-13.42-.14-13.42Z" style="fill:#fff"></path><path d="M398,321.37a3.66,3.66,0,0,1-.68-.06,1.46,1.46,0,0,1-1.11-.75c-.47-.93.26-2.48,1.34-4.59a13.33,13.33,0,0,0,.81-1.73,62.29,62.29,0,0,0-.29-7.66c-.89,2.89-2.49,7.4-3.75,7.4a1.83,1.83,0,0,1-1.48-.66c-.58-.72-.69-2-.32-3.74a82.53,82.53,0,0,0,.72-10.54c0-.92,2.6-6.43,3.4-8.1a.49.49,0,0,1,.4-.28l10.8-1a.53.53,0,0,1,.37.11.54.54,0,0,1,.18.34c0,.38.87,9.45.14,13.56,0,.13-2.45,13.31-5.13,15.61A9.41,9.41,0,0,1,398,321.37Zm.28-17.8a.51.51,0,0,1,.34.13c.65.58.73,10.7.71,10.78a12.12,12.12,0,0,1-.89,1.95c-.56,1.1-1.61,3.14-1.34,3.69a.65.65,0,0,0,.42.21,7.82,7.82,0,0,0,5.23-1.83c1.71-1.47,3.84-9.67,4.79-15,.62-3.44.06-10.81-.11-12.79l-10,.95a60.36,60.36,0,0,0-3.18,7.41,83.25,83.25,0,0,1-.74,10.75c-.4,1.9-.1,2.63.12,2.9a.83.83,0,0,0,.7.29c.82-.45,3.25-7.57,3.44-8.91a.66.66,0,0,1,.35-.47A.51.51,0,0,1,398.28,303.57Z" style="fill:#263238"></path><path d="M366.67,173.62l-2.95,71.44,24.38,2.32,6.73,45H408.9s1.9-43.07.84-53.58-9.85-47.19-10.5-48.75c-2.52-6.1-5.26-9.25-7.15-12s-18.28-4.41-18.28-4.41l-7.35-2.52Z" style="fill:#FF81AE"></path><path d="M408.9,292.84H394.83a.51.51,0,0,1-.5-.42l-6.67-44.58-24-2.28a.5.5,0,0,1-.46-.52l2.95-71.41-.21-2.49a.49.49,0,0,1,.19-.44.52.52,0,0,1,.47-.08l7.3,2.5c1.95.21,16.64,1.82,18.58,4.63.35.5.73,1,1.12,1.56a46.17,46.17,0,0,1,6.08,10.51c.71,1.7,9.49,38.34,10.54,48.89s-.82,53.23-.84,53.66A.5.5,0,0,1,408.9,292.84Zm-13.64-1h13.17c.2-4.74,1.79-43.27.82-53-1.05-10.5-9.77-46.92-10.47-48.61a46.11,46.11,0,0,0-6-10.3c-.41-.56-.79-1.08-1.14-1.59-1.29-1.86-11.42-3.53-17.92-4.2l-.11,0L367,171.82l.15,1.76v.06l-2.93,71,23.91,2.27a.48.48,0,0,1,.44.42Z" style="fill:#263238"></path><line x1="386.47" y1="209.45" x2="386.22" y2="203.53" style="fill:#fff"></line><path d="M386.47,210a.51.51,0,0,1-.5-.48l-.25-5.92a.5.5,0,0,1,.48-.52.49.49,0,0,1,.52.48l.25,5.92a.49.49,0,0,1-.47.52Z" style="fill:#263238"></path><line x1="388.1" y1="247.38" x2="386.71" y2="215" style="fill:#fff"></line><path d="M388.1,247.88a.5.5,0,0,1-.5-.48L386.21,215a.5.5,0,0,1,.48-.52.47.47,0,0,1,.52.48l1.39,32.37a.5.5,0,0,1-.48.52Z" style="fill:#263238"></path><path d="M337.25,182.44s-4.42,9.67-2.52,12.82,17.44,10.51,20.17,11.14,9.45-2.73,12-7.15S370.45,177,370.45,177s-7.78,9.25-13.45,9.88S337.25,182.44,337.25,182.44Z" style="fill:#a3a3a3"></path><path d="M355.65,207a3.85,3.85,0,0,1-.86-.09c-2.74-.64-18.48-8-20.49-11.37s2-12.27,2.49-13.29a.51.51,0,0,1,.63-.26c.13.05,14.05,5,19.52,4.39s13.05-9.61,13.13-9.7a.49.49,0,0,1,.56-.15.51.51,0,0,1,.32.5c0,.73-1.09,18-3.64,22.49C365,203.62,359,207,355.65,207Zm-18.13-23.91c-1.28,2.91-3.73,9.65-2.37,11.93,1.75,2.92,17.05,10.26,19.86,10.91,2.43.57,9-2.64,11.43-6.9,2-3.54,3.1-16.26,3.41-20.6-2.29,2.52-8.14,8.42-12.79,8.94C351.83,187.93,340,183.93,337.52,183.07Z" style="fill:#263238"></path><path d="M345.83,198.28h-.19a.5.5,0,0,1-.49-.51.54.54,0,0,1,.51-.49c.09,0,8.91.14,14.57-5.12a.51.51,0,0,1,.71,0,.5.5,0,0,1,0,.71C355.35,198.06,347.22,198.28,345.83,198.28Z" style="fill:#263238"></path><path d="M346.7,161.85s-13.66,4.41-13.45,10.93.85,6.09,1.9,8,2.94,6.73,3.78,7.57,13.24,7.35,17.65,6.09,7.35-3.57,10.51-9,7.77-14.07,7.77-14.07l-6.09-11.77S351.33,160,346.7,161.85Z" style="fill:#a3a3a3"></path><path d="M355.3,195.07c-5.32,0-15.83-5.49-16.72-6.39a20.93,20.93,0,0,1-2.37-4.54c-.57-1.24-1.1-2.41-1.5-3.14-.18-.33-.35-.58-.51-.82-.79-1.19-1.27-1.91-1.45-7.39-.21-6.75,13-11.15,13.78-11.41,4.68-1.9,21.51-2.32,22.23-2.34a.52.52,0,0,1,.45.27l6.1,11.77a.5.5,0,0,1,0,.46c0,.09-4.66,8.69-7.78,14.09s-6,7.91-10.8,9.27A5.12,5.12,0,0,1,355.3,195.07Zm13.17-35c-2.37.06-17.43.56-21.58,2.26h0c-.14.05-13.3,4.38-13.11,10.44.17,5.19.59,5.82,1.28,6.87.17.26.35.53.55.89.43.76,1,1.95,1.54,3.21a25.74,25.74,0,0,0,2.16,4.24c.65.66,13,7.16,17.16,6,4.48-1.28,7.25-3.67,10.21-8.81,2.83-4.89,6.89-12.42,7.65-13.83Zm-21.77,1.8h0Z" style="fill:#263238"></path><path d="M351.84,182.69c-2,0-3.93-1-6.2-2.11-3.41-1.71-7.35-6.23-7.51-6.43a.49.49,0,0,1,.05-.7.51.51,0,0,1,.71.05c0,.05,4,4.57,7.2,6.18s5.64,2.83,8.35,1.28a.49.49,0,0,1,.68.18.51.51,0,0,1-.18.69A6.13,6.13,0,0,1,351.84,182.69Z" style="fill:#263238"></path><path d="M347.17,112.92s2.19,9.78,8.18,14.37a92.21,92.21,0,0,0,10.77,7.19s-3.19,31.13-1.79,34.92,3.79,7.78,11.77,7.58,14.48.68,16.3,2c2.39,1.75,7.48,11.94,7.48,11.94s1-1.19.77-5.58-7.78-7.38-7.39-10.57,5.79-3.4,4-9.58-12.18-1-12.38-8.18,6.59-9.78,4.79-24.35-11.77-19.76-21.15-25.34-21.95-6.19-22.75-1.6A9,9,0,0,0,347.17,112.92Z" style="fill:#263238"></path><path d="M399.88,191.44h-.05a.47.47,0,0,1-.39-.27c-1.4-2.8-5.45-10.38-7.33-11.76-1.52-1.11-7.49-2.13-16-1.92-8.17.22-10.78-3.88-12.26-7.91-1.36-3.69,1.38-31.29,1.73-34.82A96.31,96.31,0,0,1,355,127.69c-5.78-4.44-8.06-13.38-8.34-14.54a9.74,9.74,0,0,1-1.42-7.5,3.63,3.63,0,0,1,2.27-2.61c4-1.84,13.51-.73,21.23,3.87l1.41.84c9,5.3,18.24,10.79,20,24.87,1.11,9-1.05,13.6-2.79,17.3-1.11,2.36-2.07,4.4-2,7.09.09,3.17,2.17,3.6,5.55,4,2.74.35,5.86.75,6.81,4,1.21,4.16-.7,5.89-2.22,7.28a4.33,4.33,0,0,0-1.76,2.5c-.16,1.27,1.41,2.69,3.07,4.19,2,1.78,4.2,3.8,4.32,6.3.2,4.45-.77,5.78-.88,5.91A.49.49,0,0,1,399.88,191.44Zm-21.52-15c6.92,0,12.54.82,14.34,2.15,2,1.49,5.79,8.52,7.14,11.14a14.9,14.9,0,0,0,.31-4.35c-.1-2.08-2.08-3.87-4-5.61s-3.61-3.27-3.39-5.05a5.19,5.19,0,0,1,2.07-3.12c1.53-1.39,3-2.7,1.94-6.26-.77-2.64-3.3-3-6-3.31-2.95-.38-6.3-.82-6.42-5-.08-2.93,1-5.17,2.09-7.55,1.78-3.76,3.78-8,2.71-16.75-1.68-13.59-10.74-19-19.49-24.13l-1.43-.84c-7.44-4.44-16.5-5.56-20.29-3.82a2.65,2.65,0,0,0-1.71,1.87,8.71,8.71,0,0,0,1.29,6.78.45.45,0,0,1,.1.21c0,.1,2.23,9.66,8,14.08A94.59,94.59,0,0,0,366.36,134a.49.49,0,0,1,.26.49c-1.1,10.72-2.9,31.78-1.82,34.7,1.43,3.88,3.82,7.46,11.29,7.25Z" style="fill:#263238"></path><path d="M345.65,157v15.34s2.52,6.93,5.05,8.61,4.62.42,6.3-2.94,7.78-12.61,7.78-12.61l.84-15.34Z" style="fill:#fff"></path><path d="M352.84,182.21a4.34,4.34,0,0,1-2.42-.82c-2.63-1.75-5.13-8.57-5.24-8.86a.55.55,0,0,1,0-.17V157a.51.51,0,0,1,.34-.48l20-6.93a.52.52,0,0,1,.47.07.54.54,0,0,1,.2.43l-.85,15.34a.46.46,0,0,1-.08.25c-.06.09-6.09,9.26-7.74,12.55-1.09,2.19-2.35,3.48-3.75,3.85A3.12,3.12,0,0,1,352.84,182.21Zm-6.69-9.94c.29.77,2.61,6.81,4.82,8.29a3,3,0,0,0,2.47.57c1.11-.29,2.16-1.41,3.11-3.32,1.6-3.19,7-11.44,7.73-12.55l.8-14.46-18.93,6.57Z" style="fill:#263238"></path><path d="M347.17,112.92s-10,9-9.78,14,.4,18,1.2,22.55,8.38,14.77,12.17,15,5,.2,7.78-1.6a73.89,73.89,0,0,0,7.78-6.58l2.2-27.34Z" style="fill:#fff"></path><path d="M353.18,165c-.7,0-1.49,0-2.45-.09-4.21-.22-11.85-10.84-12.64-15.38-.63-3.62-.88-12.14-1.06-18.36,0-1.69-.1-3.17-.14-4.26-.21-5.16,9.53-14,9.94-14.36a.51.51,0,0,1,.64,0l21.35,16a.5.5,0,0,1,.2.44l-2.2,27.34a.5.5,0,0,1-.15.32,74.88,74.88,0,0,1-7.86,6.64A8.86,8.86,0,0,1,353.18,165Zm-6-51.43c-1.65,1.54-9.48,9.08-9.31,13.3,0,1.1.09,2.58.14,4.27.17,5.84.43,14.67,1.05,18.22.78,4.48,8.26,14.37,11.71,14.55,3.75.2,4.84.18,7.48-1.52a72.2,72.2,0,0,0,7.57-6.39L368,129.12Z" style="fill:#263238"></path><path d="M351,146.35h-.11l-3.59-.8a.51.51,0,0,1-.39-.41.51.51,0,0,1,.24-.51h0s.89-.74,2-4.69a22.05,22.05,0,0,0,.39-8.56.5.5,0,0,1,1-.18,22.4,22.4,0,0,1-.41,9,16.6,16.6,0,0,1-1.77,4.55l2.8.62a.5.5,0,0,1,.38.6A.51.51,0,0,1,351,146.35Z" style="fill:#263238"></path><path d="M352.5,150.75a22.15,22.15,0,0,1-5.06-.62.51.51,0,0,1-.36-.62.5.5,0,0,1,.61-.35c.07,0,6.61,1.7,10.17-.73a.5.5,0,1,1,.56.83A10.57,10.57,0,0,1,352.5,150.75Z" style="fill:#263238"></path><path d="M346.77,135.07c0,1.33-.54,2.4-1.2,2.4s-1.2-1.07-1.2-2.4.54-2.39,1.2-2.39S346.77,133.75,346.77,135.07Z" style="fill:#263238"></path><path d="M359.94,135.67c0,1.33-.54,2.4-1.2,2.4s-1.2-1.07-1.2-2.4.54-2.39,1.2-2.39S359.94,134.35,359.94,135.67Z" style="fill:#263238"></path><path d="M341.18,130.58a.52.52,0,0,1-.21,0,.5.5,0,0,1-.25-.66,4.41,4.41,0,0,1,2.59-2.25,5.49,5.49,0,0,1,4.53,1,.5.5,0,0,1-.55.84,4.49,4.49,0,0,0-3.69-.92,3.47,3.47,0,0,0-2,1.7A.48.48,0,0,1,341.18,130.58Z" style="fill:#263238"></path><path d="M355,130.38a.54.54,0,0,1-.36-.14.5.5,0,0,1,0-.71,3.68,3.68,0,0,1,4.15-.5.51.51,0,0,1,.25.66.5.5,0,0,1-.67.25,2.73,2.73,0,0,0-3,.3A.47.47,0,0,1,355,130.38Z" style="fill:#263238"></path></g><g id="freepik--character-1--inject-203"><path d="M208.81,287.76s2.17,7.6,2.17,10-1.09,8.47-2.82,11.5-4.56,5.43-6.08,5.22-6.73-.22-5.43-2a4.61,4.61,0,0,1,2.61-1.95s-5.65.65-5.65-.87a1.49,1.49,0,0,1,1.52-1.52s-4.56-.22-3.91-1.3,3.26-1.52,3.26-1.52-3.26-1.74-1.52-2.39a29.54,29.54,0,0,1,4.13-1.09s-.87-3.9.43-6.51,5.86-6.73,5.86-6.73Z" style="fill:#fff"></path><path d="M202.28,315l-.27,0c-.28,0-.67-.07-1.13-.11-2.47-.2-4.4-.43-4.85-1.41a1.16,1.16,0,0,1,.22-1.23,7.15,7.15,0,0,1,.92-1c-1.38,0-3-.09-3.67-.69a1.06,1.06,0,0,1-.39-.82,2.05,2.05,0,0,1,.33-1.17c-1.17-.16-2.36-.47-2.68-1.06a.84.84,0,0,1,0-.85,4.4,4.4,0,0,1,2.41-1.47c-.66-.47-1.29-1.09-1.25-1.71,0-.3.18-.69.83-.94a26.13,26.13,0,0,1,3.72-1c-.19-1.18-.52-4.15.57-6.34,1.33-2.66,5.79-6.71,6-6.88a.49.49,0,0,1,.25-.12l5.43-.87a.5.5,0,0,1,.56.35c.09.32,2.19,7.7,2.19,10.13,0,2.27-1,8.48-2.89,11.75C207,312.22,204.26,315,202.28,315Zm-3-4.92a.5.5,0,0,1,.49.43.49.49,0,0,1-.41.56,4.3,4.3,0,0,0-2.29,1.76.45.45,0,0,0-.11.21c.09.35,1.44.63,4,.84.48,0,.9.07,1.19.11,1.17.15,3.86-2,5.57-5s2.76-9,2.76-11.26c0-2-1.58-7.79-2-9.42l-4.84.77c-.69.64-4.51,4.21-5.64,6.48-1.21,2.42-.4,6.15-.4,6.19a.47.47,0,0,1-.07.38.52.52,0,0,1-.33.22,27.53,27.53,0,0,0-4,1.06.5.5,0,0,0-.2.11,5.14,5.14,0,0,0,1.78,1.37.5.5,0,0,1,.25.52.49.49,0,0,1-.41.41,5.61,5.61,0,0,0-2.85,1.2,9.52,9.52,0,0,0,3.45.63.49.49,0,0,1,.47.51.51.51,0,0,1-.5.49,1,1,0,0,0-1,1c.65.61,3.36.57,5.09.37Z" style="fill:#263238"></path><path d="M196.78,161.71s8.5,12.36,9.66,22,5,63.74,5,70.31-1.57,36.55-1.57,36.55l-9,.18s-8.77-27.46-8.38-32.87S196.78,161.71,196.78,161.71Z" style="fill:#FF81AE"></path><path d="M200.91,291.27a.5.5,0,0,1-.48-.35c-.36-1.12-8.79-27.61-8.4-33.05s4.21-95.28,4.25-96.19a.49.49,0,0,1,.36-.45.5.5,0,0,1,.55.19c.35.51,8.58,12.58,9.74,22.25s5,63.72,5,70.37-1.55,36.27-1.57,36.57a.49.49,0,0,1-.49.47l-9,.19Zm-3.7-128c-.51,12-3.83,89.7-4.18,94.66s7.22,29.09,8.24,32.32l8.15-.17c.2-3.82,1.54-30,1.54-36,0-6.64-3.85-60.48-5-70.25C205,176.16,199.38,166.69,197.21,163.28Z" style="fill:#263238"></path><path d="M131.6,250.09s-6.47,17.68-6.9,23.08,8.41,63.19,8.41,63.19-4.1,20.49.21,38.17,8.42,34.3,8.63,35.81-2.59,9.7-1.51,11.43,3,8.19,3,8.19-.86,9.49-.65,11.22,4.53,1.72,6,2.16,18.77,3.45,22,3,11-.87,11.65-3.67-1.94-5.18-3.45-6.47-15.1-14-15.1-14a17.38,17.38,0,0,1-.65-5.18c.22-2.15,0-3.66-.43-7.11s.86-63,.86-63l4.53-56.51L170,306.6l6,36s6.51,36.88,9.32,46.16,4.29,30.56,4.29,30.56-2.56,2.69-1.67,4.12a4.35,4.35,0,0,1,.89,3c-.09.64,0,9.5-.1,12.09s2.39,4,7.85,5.44,7.75-.76,9-.58,8,2.21,10.74,2.6,10.16-1,10.52-3.53,0-3.47-1.69-5-12.1-8.45-14.45-10.31l-2.35-1.85a19.67,19.67,0,0,0,.17-4.33,25.45,25.45,0,0,0-1.59-4.15l-3.79-72.2s3.24-26.32.43-51.12-5.17-39.25-5.17-39.25Z" style="fill:#263238"></path><path d="M170,446.9c-4.75,0-19.77-2.64-21.32-3.08a13.24,13.24,0,0,0-1.59-.28c-2-.29-4.61-.65-4.81-2.3s.54-10.16.63-11.22c-.24-.8-2-6.45-2.93-8-.72-1.15-.14-4,.75-7.88a20.81,20.81,0,0,0,.69-3.74c-.17-1.19-2.91-12.39-6.08-25.36l-2.54-10.4c-4.15-17-.52-36.81-.24-38.3-.51-3.37-8.83-57.89-8.4-63.23s6.66-22.48,6.93-23.2a.5.5,0,0,1,.5-.33l66.86,4.1a.49.49,0,0,1,.46.41c0,.15,2.41,14.75,5.18,39.28s-.4,51-.43,51.24l3.78,72a23.26,23.26,0,0,1,1.59,4.18,17.75,17.75,0,0,1-.13,4.2l2.13,1.68c1,.82,3.66,2.64,6.44,4.57,3.46,2.4,7.05,4.88,8,5.76,1.87,1.67,2.24,2.74,1.85,5.47-.24,1.72-2.7,2.74-4.71,3.29a18.43,18.43,0,0,1-6.37.67c-1.68-.24-4.74-1.06-7.2-1.72-1.64-.44-3.05-.81-3.54-.88a3.51,3.51,0,0,0-1.27.3,12.39,12.39,0,0,1-7.81.26c-5.21-1.35-8.4-2.82-8.23-5.94.09-1.45.08-4.94.07-7.74s0-4.1,0-4.4a3.8,3.8,0,0,0-.82-2.62c-.95-1.54,1-3.89,1.58-4.57-.16-2.25-1.65-21.62-4.25-30.24-2.78-9.19-9.27-45.84-9.33-46.21l-6-36-1.17-10.89L164.23,347c0,.56-1.28,59.5-.86,62.87l.06.51a27.45,27.45,0,0,1,.37,6.72,16.08,16.08,0,0,0,.6,4.86c1.26,1.18,13.56,12.7,15,13.91s4.36,3.73,3.62,7c-.64,2.76-6.58,3.43-10.52,3.87l-1.55.18A7,7,0,0,1,170,446.9Zm-38.1-196.29c-.91,2.51-6.36,17.75-6.74,22.6-.43,5.27,8.31,62.5,8.4,63.07a.54.54,0,0,1,0,.18c0,.2-4,20.58.21,38l2.54,10.39c3.31,13.53,5.92,24.23,6.1,25.46a16.67,16.67,0,0,1-.7,4.1c-.58,2.49-1.44,6.24-.88,7.13,1.1,1.76,3,8.05,3.07,8.32a.62.62,0,0,1,0,.19c-.3,3.26-.82,9.78-.65,11.11.11.89,2.52,1.23,4,1.43a13.32,13.32,0,0,1,1.72.31c1.29.36,18.66,3.43,21.8,3l1.57-.19c3.21-.35,9.17-1,9.65-3.09.54-2.34-1.47-4.43-3.29-6-1.5-1.29-14.56-13.52-15.11-14a.44.44,0,0,1-.14-.22,17.23,17.23,0,0,1-.66-5.37,26.91,26.91,0,0,0-.37-6.49l-.06-.51c-.44-3.45.8-60.62.85-63.05l4.54-56.54a.5.5,0,0,1,1,0l1.73,16.17,6,36c.07.37,6.54,37,9.31,46.09s4.29,30.46,4.31,30.68a.5.5,0,0,1-.14.38c-.75.78-2.12,2.68-1.61,3.51a4.94,4.94,0,0,1,1,3.29c0,.25,0,2.29,0,4.26,0,2.81,0,6.32-.07,7.79-.12,2.14,1.91,3.47,7.48,4.93a11.32,11.32,0,0,0,7.24-.25,3.86,3.86,0,0,1,1.73-.34c.55.08,1.92.44,3.66.91,2.43.65,5.46,1.46,7.08,1.69a17.57,17.57,0,0,0,6-.65c2.38-.64,3.87-1.56,4-2.46.34-2.41.1-3.14-1.52-4.58-.94-.84-4.66-3.42-7.94-5.69-2.79-1.94-5.43-3.76-6.49-4.6l-2.35-1.86a.51.51,0,0,1-.19-.46,19,19,0,0,0,.18-4.17,24.94,24.94,0,0,0-1.55-4,.45.45,0,0,1,0-.19l-3.79-72.21c0-.35,3.2-26.63.44-51.08-2.52-22.28-4.72-36.36-5.11-38.84Z" style="fill:#263238"></path><path d="M153.24,148.21s-34.65,10-35.29,11.69,13.82,86.73,13.82,86.73-3.19,4-1.28,5.53,18.92,8.71,32.74,11,33.16-.42,35.29-2.55,2.55-6.38,2.55-8.29,1.91-32.1,1.91-47,1.28-32.95-2.76-40-24-15.73-24-15.73Z" style="fill:#FF81AE"></path><path d="M175.12,264.59a74.14,74.14,0,0,1-12-.88c-13.66-2.32-30.82-9.49-33-11.16a2,2,0,0,1-.79-1.41c-.21-1.72,1.35-4,1.84-4.64-2.5-14.7-14.41-85-13.76-86.77s25.13-9,35.62-12a.5.5,0,0,1,.17,0l23,1.49a.53.53,0,0,1,.17,0c.82.36,20.18,8.86,24.25,15.94,3.33,5.78,3.12,18.79,2.93,31.38-.05,2.93-.1,6-.1,8.83,0,11-1,30.11-1.58,40.39-.2,3.54-.33,6.1-.33,6.59s-.08,6-2.7,8.65C197.2,262.69,186.26,264.59,175.12,264.59ZM118.43,160.1c-.15,3.31,9.91,63.37,13.83,86.45a.5.5,0,0,1-.1.39c-.55.69-1.93,2.77-1.77,4.08a1.06,1.06,0,0,0,.41.74c1.87,1.46,19,8.67,32.51,11,13.94,2.36,33-.53,34.85-2.41,2.34-2.34,2.41-7.37,2.41-7.94s.13-3,.33-6.65c.55-10.27,1.58-29.39,1.58-40.33,0-2.87.05-5.91.1-8.85.19-12.45.4-25.32-2.8-30.86-3.78-6.57-22.33-14.88-23.7-15.49l-22.79-1.48C140.5,152.41,120,158.69,118.43,160.1Z" style="fill:#263238"></path><path d="M124.54,157.14s-7.23.64-9.35,4S88.83,210.71,90.1,215.6s19.56,37.83,23.17,41.87a125.62,125.62,0,0,0,9.57,9.14l7.65-11.47s-.64-3.19-2.12-4.26-2.34-3.61-3-5.1-.64-1.06-1.91-3-10.84-28.06-10.84-28.06,15.73-17.44,16.79-20.2,1.49-9.78,1.49-9.78" style="fill:#FF81AE"></path><path d="M122.84,267.11a.5.5,0,0,1-.33-.12,128.29,128.29,0,0,1-9.61-9.18c-3.73-4.18-22-37.21-23.28-42.09-1.38-5.28,23.91-52.84,25.14-54.81,2.23-3.57,9.43-4.24,9.74-4.27a.5.5,0,0,1,.54.45.51.51,0,0,1-.46.55c-.07,0-7,.65-9,3.8-2.33,3.73-26.21,49.5-25,54,1.26,4.82,19.36,37.54,23.06,41.67a116.72,116.72,0,0,0,9.09,8.72L130,255c-.22-.95-.88-3-1.88-3.74-1.39-1-2.23-3.07-2.85-4.58-.11-.26-.2-.51-.3-.73a4.69,4.69,0,0,0-.83-1.44c-.22-.3-.53-.7-1-1.46-1.29-1.94-10.5-27.09-10.89-28.16a.5.5,0,0,1,.09-.51c4.36-4.83,15.86-17.84,16.7-20,1-2.66,1.45-9.56,1.46-9.63a.5.5,0,1,1,1,.06c0,.29-.45,7.13-1.52,9.93s-14.77,18-16.69,20.13c3.33,9.1,9.71,26.21,10.68,27.67.49.73.79,1.11,1,1.39a6.11,6.11,0,0,1,.95,1.66c.1.23.2.48.31.75.57,1.4,1.35,3.33,2.5,4.15,1.63,1.16,2.3,4.42,2.32,4.56a.48.48,0,0,1-.07.37l-7.65,11.48a.51.51,0,0,1-.35.22Z" style="fill:#263238"></path><polygon points="130.49 255.13 136.87 257.26 128.79 269.38 123.69 264.91 130.49 255.13" style="fill:#fff"></polygon><path d="M128.79,269.88a.51.51,0,0,1-.33-.13l-5.1-4.46a.49.49,0,0,1-.08-.66l6.8-9.78a.51.51,0,0,1,.57-.19l6.38,2.13a.48.48,0,0,1,.31.31.52.52,0,0,1-.05.44l-8.08,12.12a.5.5,0,0,1-.35.21Zm-4.43-5.05,4.33,3.8,7.4-11.1-5.4-1.8Z" style="fill:#263238"></path><path d="M145.69,247.71c-6.4,0-11.33-.36-11.41-.37l.08-1c.14,0,14.32,1,25.83-.43l.13,1A120.54,120.54,0,0,1,145.69,247.71Z" style="fill:#263238"></path><path d="M138.15,245.22v-1c3.67,0,20.81-4.09,26.44-5.44l2.15-.5.2,1c-.17,0-.94.22-2.11.5C158.56,241.25,141.93,245.22,138.15,245.22Z" style="fill:#263238"></path><polygon points="150.41 131.47 151 148.73 170.62 173.66 177.56 151.09 178.74 137.66 150.41 131.47" style="fill:#fff"></polygon><path d="M170.62,174.16a.49.49,0,0,1-.39-.19L150.61,149a.55.55,0,0,1-.11-.29l-.59-17.26a.52.52,0,0,1,.18-.41.55.55,0,0,1,.43-.1l28.32,6.2a.49.49,0,0,1,.39.53l-1.18,13.42a.43.43,0,0,1,0,.11l-6.93,22.57a.5.5,0,0,1-.39.34ZM151.5,148.55l18.92,24L177.06,151l1.14-12.93-27.27-6Z" style="fill:#263238"></path><polygon points="170.62 173.66 173.63 163.88 163.21 164.24 170.62 173.66" style="fill:#263238"></polygon><path d="M170.62,174.16a.49.49,0,0,1-.39-.19l-7.42-9.42a.54.54,0,0,1-.06-.52.5.5,0,0,1,.44-.29l10.42-.36a.43.43,0,0,1,.41.19.49.49,0,0,1,.08.45l-3,9.79a.5.5,0,0,1-.39.34Zm-6.41-9.46,6.21,7.9,2.52-8.2Z" style="fill:#263238"></path><path d="M146,116.57s-1.92-4.57-4.13-2.8-.45,8,1.77,9.88,3.68,1.48,3.68,1.48,1.77,8.7,2.81,10.47,10,12.1,13.13,12.69,10.47.29,11.94-1.33,4.87-11.36,5.61-14.31a34.48,34.48,0,0,0,1-7.08c0-1.18,2.66-1.48,3.69-6.93s0-7.68-2.36-7.82l-2.36-.15s-.59-8-1.62-9.59-7.23-4.42-7.67-4.72-22.28,1-22.28,1l-4,7.53Z" style="fill:#fff"></path><path d="M167,149.05a23.13,23.13,0,0,1-3.89-.27c-3.38-.65-12.53-11.32-13.46-12.93s-2.39-8.36-2.77-10.18A5.69,5.69,0,0,1,143.3,124c-1.66-1.44-3-4.91-3-7.59a3.85,3.85,0,0,1,1.2-3.06,2.08,2.08,0,0,1,1.85-.46,3.85,3.85,0,0,1,2,1.54l-.6-9.51a.43.43,0,0,1,.06-.27l4-7.52a.49.49,0,0,1,.41-.27c22-1.33,22.41-1.06,22.58-1s.41.22.86.44c3.15,1.57,6.17,3.2,7,4.43,1,1.51,1.52,7.58,1.67,9.39l1.92.12a3,3,0,0,1,2.32,1.15c1,1.3,1.18,3.68.5,7.26a10,10,0,0,1-3.08,6.06c-.38.38-.6.6-.6.78a35.17,35.17,0,0,1-1,7.2c-.7,2.78-4.14,12.78-5.73,14.52C174.39,148.58,170.38,149.05,167,149.05Zm-19.73-24.42a.46.46,0,0,1,.26.07.49.49,0,0,1,.23.33c.49,2.39,1.94,8.92,2.75,10.32,1.16,2,10,11.91,12.79,12.44,3.11.6,10.22.22,11.48-1.17s4.76-11.15,5.5-14.09a33.92,33.92,0,0,0,1-7c0-.61.42-1,.91-1.49a9,9,0,0,0,2.79-5.54c.61-3.23.51-5.41-.31-6.46a2,2,0,0,0-1.59-.76l-2.36-.15a.5.5,0,0,1-.47-.46c-.16-2.19-.75-8.12-1.54-9.36s-5-3.28-6.56-4.07l-.88-.45c-1.2-.13-13.5.54-21.78,1L145.76,105l.73,11.51a.51.51,0,0,1-.39.52.49.49,0,0,1-.57-.3c-.3-.7-1.31-2.6-2.38-2.87a1.07,1.07,0,0,0-1,.27,3,3,0,0,0-.83,2.3c-.05,2.34,1.2,5.59,2.61,6.81,1.94,1.68,3.22,1.38,3.23,1.37Z" style="fill:#263238"></path><path d="M153.07,99s-6.2,5.6-6.49,6.93.73,9,.73,10-1.47,1.18-1.47-.44a33.06,33.06,0,0,0-.3-3.69,8.11,8.11,0,0,0-1.32-4c-.45-.45-4.13-10.62-2.66-13.72s23.31-8.26,23.31-8.26,7.37-6.35,11.95-.74,1.33,10.18.14,11.8A6.31,6.31,0,0,1,174.75,99s-3.24.14-6.34.14S153.07,99,153.07,99Z" style="fill:#263238"></path><path d="M146.64,117.26c-.63,0-1.3-.54-1.3-1.72a14.84,14.84,0,0,0-.14-2.14c0-.4-.1-.85-.15-1.51a7.89,7.89,0,0,0-1.19-3.67c-.54-.55-4.34-11-2.75-14.29,1.51-3.17,20.79-7.85,23.53-8.5.65-.54,4.32-3.41,8.09-3.07a6.38,6.38,0,0,1,4.47,2.47c4.86,6,1.33,10.82.17,12.41A6.71,6.71,0,0,1,175,99.48l-.18,0s-3.29.14-6.36.14c-2.85,0-13.56-.12-15.15-.14-2.95,2.67-6,5.82-6.2,6.54a52.73,52.73,0,0,0,.49,7.1c.16,1.42.26,2.45.26,2.82A1.21,1.21,0,0,1,146.64,117.26Zm25.48-33.92c-3.48,0-6.89,2.89-6.93,2.93a.51.51,0,0,1-.21.1c-8.35,2-22,5.89-23,8-1.32,2.78,2,12.35,2.59,13.18a8.5,8.5,0,0,1,1.44,4.27c.06.64.11,1.08.15,1.47a14.57,14.57,0,0,1,.15,2.26c0,.9.47.89.47.44s-.11-1.43-.25-2.72c-.38-3.53-.67-6.53-.47-7.42.31-1.41,5.59-6.24,6.64-7.19a.47.47,0,0,1,.34-.13c.13,0,12.28.14,15.34.14,2.74,0,5.63-.11,6.21-.14a6.37,6.37,0,0,0,1.94-1.86c1.82-2.51,3.79-6.39-.13-11.2a5.41,5.41,0,0,0-3.79-2.1A4.52,4.52,0,0,0,172.12,83.34Z" style="fill:#263238"></path><path d="M174.75,99s2.51,4.72,3.54,6.78a15.54,15.54,0,0,1,1.18,5.61c.15,1.18.15,6.78.59,6.78s.89-.59.89-1.18.44-4.13.44-4.13l1.77-2.06s2.66-4.72,1.33-8.85S179,97.39,177,97,174.75,99,174.75,99Z" style="fill:#263238"></path><path d="M180.06,118.69c-.69,0-.8-.57-1-5.06,0-.92-.07-1.8-.11-2.16s-.06-.5-.08-.81a13,13,0,0,0-1.05-4.64c-1-2-3.51-6.72-3.54-6.77a.58.58,0,0,1-.06-.26,3.33,3.33,0,0,1,1-2.2,2.13,2.13,0,0,1,1.78-.33l.58.12c2.25.44,6,1.18,7.31,5.23,1.38,4.29-1.25,9-1.36,9.25l-1.73,2c-.18,1.42-.42,3.53-.42,3.92A1.62,1.62,0,0,1,180.06,118.69Zm-4.79-19.77c.41.79,2.54,4.81,3.47,6.66a13.41,13.41,0,0,1,1.15,5c0,.3.05.56.08.77.05.41.08,1.26.12,2.26s.11,3,.23,3.84a.84.84,0,0,0,.13-.43c0-.6.4-3.82.44-4.19a.57.57,0,0,1,.12-.26l1.77-2.07h0s2.47-4.52,1.23-8.37c-1.12-3.49-4.39-4.13-6.56-4.56l-.59-.12a1.12,1.12,0,0,0-1,.15A2.14,2.14,0,0,0,175.27,98.92Z" style="fill:#263238"></path><polygon points="165.89 127.4 161.84 126.8 161.99 125.81 165.91 126.39 169.58 126.01 167.48 115.19 168.46 115 170.77 126.89 165.89 127.4" style="fill:#263238"></polygon><path d="M152.45,114.49l-.53-.85a14.75,14.75,0,0,1,8.43-2.14l-.11,1C156.34,112.08,152.49,114.46,152.45,114.49Z" style="fill:#263238"></path><path d="M175.56,113.07c-2.24-2.51-6.34-.92-6.38-.9l-.37-.93c.2-.08,4.79-1.87,7.49,1.16Z" style="fill:#263238"></path><path d="M159.71,117.82c0,1.19-.63,2.14-1.41,2.14s-1.4-.95-1.4-2.14.63-2.14,1.4-2.14S159.71,116.64,159.71,117.82Z" style="fill:#263238"></path><ellipse cx="172.61" cy="117.16" rx="1.4" ry="2.14" style="fill:#263238"></ellipse><path d="M167.2,134.79a17.75,17.75,0,0,1-8.34-2l.51-.87a17.5,17.5,0,0,0,13.31,1l.31,1A18.58,18.58,0,0,1,167.2,134.79Z" style="fill:#263238"></path><path d="M150.12,135.6c1,1.77,10,12.1,13.13,12.69s10.47.29,11.94-1.33,4.87-11.36,5.61-14.31c.24-1,.43-1.91.58-2.8v-2.07s-.59,1.62-1.33,3.25L178,135.6s-.89-5.46-2.51-7.38-9.59-1.32-9.59-1.32-9.44,1.47-10.62,3.39-.44,6.78-.44,6.78-3.1-1.62-4-4.42a54.18,54.18,0,0,0-3.54-7.52s.08.36.2,1C148,128.39,149.29,134.19,150.12,135.6Zm7.23-4c1.18-1,10.17-3.4,10.62-3.4a19.89,19.89,0,0,1,5.16,1c1,.59,1.18,1.77,1.77,5.9s-2.51,7.08-3.84,7.37-5,1.77-7.22.45-5.9-3.4-6.49-4.87S157.35,131.62,157.35,131.62Z" style="fill:#263238"></path><path d="M167,149.05a23.13,23.13,0,0,1-3.89-.27c-3.38-.65-12.53-11.32-13.46-12.93-.83-1.41-2-6.66-2.66-9.66l-.21-1a.5.5,0,0,1,.93-.35,54.62,54.62,0,0,1,3.58,7.62,7.62,7.62,0,0,0,2.89,3.59c-.15-1.6-.28-4.57.63-6.06,1.24-2,9.36-3.38,11-3.63.89-.07,8.31-.55,10.05,1.5,1.15,1.35,1.92,4.25,2.32,6.06l1.42-3.14c.72-1.59,1.31-3.19,1.31-3.21a.5.5,0,0,1,.56-.32.49.49,0,0,1,.41.49v2.07c-.18,1.09-.38,2.05-.59,2.92-.7,2.78-4.14,12.78-5.73,14.52C174.39,148.58,170.38,149.05,167,149.05Zm-18.45-20.42a35.8,35.8,0,0,0,2,6.72h0c1.16,2,10,11.91,12.79,12.44,3.11.6,10.22.22,11.48-1.17s4.76-11.15,5.5-14.09c.13-.53.25-1.09.37-1.67-.06.12-.12.25-.17.37l-2.07,4.57a.5.5,0,0,1-.95-.12c0-.05-.88-5.34-2.39-7.13-1.06-1.26-6.19-1.38-9.17-1.16-3.52.56-9.46,1.91-10.23,3.16-.89,1.45-.58,5.15-.38,6.45a.49.49,0,0,1-.2.48.51.51,0,0,1-.52,0c-.14-.07-3.3-1.76-4.23-4.72A32.66,32.66,0,0,0,148.59,128.63ZM166.14,144a4.88,4.88,0,0,1-2.56-.62l-.7-.41c-3-1.76-5.45-3.32-6-4.7-.62-1.55-.09-6.21,0-6.73a.44.44,0,0,1,.17-.32c1.32-1.16,10.51-3.52,10.95-3.52s4.24.43,5.41,1.1,1.4,1.93,2,6l0,.27c.62,4.4-2.72,7.6-4.23,7.93l-.85.23A15.57,15.57,0,0,1,166.14,144Zm-8.32-12.13c-.17,1.5-.43,5,0,6s3.54,3,5.58,4.21l.7.42c1.65,1,4.34.21,5.95-.26L171,142c1.1-.24,4-3,3.44-6.81l0-.27c-.56-3.89-.72-4.83-1.49-5.27a19.52,19.52,0,0,0-4.91-1C167.3,128.79,159.32,130.93,157.82,131.89Z" style="fill:#263238"></path></g><g id="freepik--character-2--inject-203"><path d="M319.76,405.43H282.49A15.53,15.53,0,0,1,267,389.91V341.67a15.53,15.53,0,0,1,15.51-15.51h37.27a15.53,15.53,0,0,1,15.51,15.51v48.24A15.53,15.53,0,0,1,319.76,405.43Zm-37.27-73.27a9.53,9.53,0,0,0-9.51,9.51v48.24a9.53,9.53,0,0,0,9.51,9.52h37.27a9.53,9.53,0,0,0,9.51-9.52V341.67a9.53,9.53,0,0,0-9.51-9.51Z" style="fill:#263238"></path><path d="M319.76,405.93H282.49a16,16,0,0,1-16-16V341.67a16,16,0,0,1,16-16h37.27a16,16,0,0,1,16,16v48.24A16,16,0,0,1,319.76,405.93Zm-37.27-79.27a15,15,0,0,0-15,15v48.24a15,15,0,0,0,15,15h37.27a15,15,0,0,0,15-15V341.67a15,15,0,0,0-15-15Zm37.27,73.27H282.49a10,10,0,0,1-10-10V341.67a10,10,0,0,1,10-10h37.27a10,10,0,0,1,10,10v48.24A10,10,0,0,1,319.76,399.93Zm-37.27-67.27a9,9,0,0,0-9,9v48.24a9,9,0,0,0,9,9h37.27a9,9,0,0,0,9-9V341.67a9,9,0,0,0-9-9Z" style="fill:#263238"></path><rect x="312.07" y="433.24" width="41.26" height="4.37" style="fill:#a3a3a3"></rect><path d="M353.33,438.11H312.07a.5.5,0,0,1-.5-.5v-4.37a.5.5,0,0,1,.5-.5h41.26a.5.5,0,0,1,.5.5v4.37A.51.51,0,0,1,353.33,438.11Zm-40.76-1h40.26v-3.37H312.57Z" style="fill:#263238"></path><rect x="285.28" y="435.63" width="41.26" height="4.37" style="fill:#a3a3a3"></rect><path d="M326.54,440.49H285.28a.5.5,0,0,1-.5-.5v-4.36a.5.5,0,0,1,.5-.5h41.26a.5.5,0,0,1,.5.5V440A.5.5,0,0,1,326.54,440.49Zm-40.76-1H326v-3.36H285.78Z" style="fill:#263238"></path><rect x="203.9" y="345.03" width="112.39" height="19.42" style="fill:#263238"></rect><path d="M316.29,365H203.9a.5.5,0,0,1-.5-.5V345a.5.5,0,0,1,.5-.5H316.29a.5.5,0,0,1,.5.5v19.42A.5.5,0,0,1,316.29,365ZM204.4,364H315.79V345.53H204.4Z" style="fill:#263238"></path><polygon points="265.43 357.69 206.99 357.69 201.11 264.87 265.43 264.87 265.43 357.69" style="fill:#263238"></polygon><path d="M265.43,358.19H207a.5.5,0,0,1-.5-.47l-5.88-92.82a.5.5,0,0,1,.13-.37.52.52,0,0,1,.37-.16h64.32a.5.5,0,0,1,.5.5v92.82A.5.5,0,0,1,265.43,358.19Zm-58-1h57.47V265.37H201.64Z" style="fill:#263238"></path><path d="M323.14,378.2h-123a3,3,0,1,1,0-6h123a3,3,0,0,1,0,6Z" style="fill:#fff"></path><path d="M323.14,378.7h-123a3.5,3.5,0,1,1,0-7h123a3.5,3.5,0,0,1,0,7Zm-123-6a2.5,2.5,0,1,0,0,5h123a2.5,2.5,0,0,0,0-5Z" style="fill:#263238"></path><path d="M318.42,401.85s2.13,15.1,2.13,19.75.39,8.13,2.32,9.1a26.2,26.2,0,0,0,7.17,2.71c4.45,1.16,14.9,1.35,18.78.39s4.06-3.3,1.93-7-9.48-8.72-12.39-12.39a41.41,41.41,0,0,1-5.22-9.3c-.2-.58-1.36-3.87-1.36-3.87Z" style="fill:#fff"></path><path d="M341.12,434.92a51.73,51.73,0,0,1-11.21-1,25.47,25.47,0,0,1-6.52-2.37l-.74-.38c-2.16-1.07-2.6-4.59-2.6-9.54,0-4.56-2.1-19.53-2.12-19.68a.5.5,0,0,1,.47-.57l13.36-.58a.5.5,0,0,1,.49.34s1.17,3.29,1.36,3.88a41.36,41.36,0,0,0,5.14,9.14,49.35,49.35,0,0,0,5.56,5.36c2.77,2.44,5.64,5,6.87,7.09,1.36,2.34,1.74,4.05,1.18,5.36-.47,1.12-1.59,1.88-3.42,2.34A37.21,37.21,0,0,1,341.12,434.92ZM319,402.33c.39,2.79,2.06,15.09,2.06,19.27,0,4,.25,7.75,2.05,8.65l.75.38a24.34,24.34,0,0,0,6.31,2.29c4.32,1.13,14.71,1.35,18.54.39,1.5-.38,2.4-.95,2.74-1.76.42-1,.05-2.45-1.12-4.47s-4-4.45-6.67-6.84a48.88,48.88,0,0,1-5.68-5.49,41.74,41.74,0,0,1-5.31-9.45c-.15-.46-.92-2.65-1.23-3.51Z" style="fill:#263238"></path><path d="M338.36,414.44a39.6,39.6,0,0,1-4.3-7.17c-2.2.3-6.08,1-7.7,2.52a21.69,21.69,0,0,0-3.68,4.45L320,414c.34,3.1.6,6,.6,7.64,0,4.65.39,8.13,2.32,9.1a26.2,26.2,0,0,0,7.17,2.71c4.45,1.16,14.9,1.35,18.78.39s4.06-3.3,1.93-7S341.27,418.11,338.36,414.44Z" style="fill:#263238"></path><path d="M341.12,434.92a51.73,51.73,0,0,1-11.21-1,25.47,25.47,0,0,1-6.52-2.37l-.74-.38c-2.16-1.07-2.6-4.59-2.6-9.54,0-1.41-.2-4-.6-7.59a.49.49,0,0,1,.15-.4.45.45,0,0,1,.4-.15l2.42.25a22.7,22.7,0,0,1,3.6-4.29c1.64-1.5,5.24-2.27,8-2.65a.5.5,0,0,1,.52.28,39.91,39.91,0,0,0,4.24,7.08h0a49.35,49.35,0,0,0,5.56,5.36c2.77,2.44,5.64,5,6.87,7.09,1.36,2.34,1.74,4.05,1.18,5.36-.47,1.12-1.59,1.88-3.42,2.34A37.21,37.21,0,0,1,341.12,434.92Zm-20.61-20.4c.36,3.33.54,5.71.54,7.08,0,4,.25,7.75,2.05,8.65l.75.38a24.34,24.34,0,0,0,6.31,2.29c4.32,1.13,14.71,1.35,18.54.39,1.5-.38,2.4-.95,2.74-1.76.42-1,.05-2.45-1.12-4.47s-4-4.45-6.67-6.84a48.07,48.07,0,0,1-5.68-5.49h0a39.46,39.46,0,0,1-4.2-6.94c-3.43.51-6,1.36-7.07,2.35a21.59,21.59,0,0,0-3.59,4.33.49.49,0,0,1-.48.25Z" style="fill:#263238"></path><path d="M282.83,319.43s45.05,8.94,48.82,15.47,9.29,66.1,9.29,66.1-8.54,3-14.82,3.51a68,68,0,0,1-9.55.26l-9.55-53-6,.25-51-7.29S252.65,322.1,282.83,319.43Z" style="fill:#595959"></path><path d="M319,405.33c-1.57,0-2.39-.06-2.46-.07a.48.48,0,0,1-.45-.41l-9.48-52.59-5.59.23L249.9,345.2a.51.51,0,0,1-.43-.56c0-.23,3.08-23,33.31-25.71a.38.38,0,0,1,.15,0c1.84.36,45.31,9.06,49.15,15.71s9.14,63.86,9.36,66.3a.5.5,0,0,1-.33.52c-.35.12-8.68,3-14.95,3.54C323,405.27,320.6,405.33,319,405.33Zm-2-1a78.84,78.84,0,0,0,9.09-.27c5.41-.44,12.63-2.79,14.33-3.37-.49-5.17-5.68-59.41-9.2-65.5-2.88-5-32.88-12.14-48.41-15.22-26.89,2.41-31.63,21.09-32.25,24.35l50.51,7.21,5.94-.25a.51.51,0,0,1,.51.41Z" style="fill:#263238"></path><path d="M285.12,408.43s1.17,24.78,1.36,26.14,4.65,1.35,7.94,2.13,22.45,0,29-1.55c2.27-.54,6.77-3.48,5.61-7s-7.36-3.1-12.39-3.48-10.84-4.65-11.42-5.23-4.65-9.29-4.65-9.29Z" style="fill:#fff"></path><path d="M300,437.51a32.52,32.52,0,0,1-5.68-.32c-1-.25-2.21-.42-3.33-.58-2.68-.38-4.8-.68-5-2s-1.31-25.17-1.36-26.18a.55.55,0,0,1,.16-.39.49.49,0,0,1,.4-.13l15.49,1.74a.5.5,0,0,1,.39.28c1.93,4.13,4.18,8.73,4.56,9.16.67.68,6.38,4.71,11.1,5.08.84.06,1.71.11,2.59.15,4.5.22,9.16.45,10.23,3.67a4.21,4.21,0,0,1-.39,3.51,9.74,9.74,0,0,1-5.58,4.11C318.82,436.75,307.23,437.51,300,437.51ZM285.65,409c.41,8.7,1.18,24.47,1.32,25.5.08.54,2.52.89,4.14,1.12,1.15.17,2.33.34,3.42.59,3,.71,22.08,0,28.81-1.55a8.71,8.71,0,0,0,4.93-3.61,3.25,3.25,0,0,0,.32-2.71c-.85-2.58-5.16-2.79-9.33-3-.88-.05-1.77-.09-2.62-.16-5.3-.4-11.26-4.9-11.74-5.37s-3.54-6.86-4.62-9.18Z" style="fill:#263238"></path><path d="M316.68,424.7c-5-.39-10.84-4.65-11.42-5.23a35.52,35.52,0,0,1-2.11-4,7,7,0,0,0-3.7,2c-1.74,1.94-1.74,5.62-1.74,5.62s-7.91-.51-11.92-1c.29,6,.6,11.8.69,12.44.19,1.35,4.65,1.35,7.94,2.13s22.45,0,29-1.55c2.27-.54,6.77-3.48,5.61-7S321.71,425.08,316.68,424.7Z" style="fill:#263238"></path><path d="M300,437.51a32.52,32.52,0,0,1-5.68-.32c-1-.25-2.21-.42-3.33-.58-2.68-.38-4.8-.68-5-2-.08-.56-.31-4.76-.69-12.48a.5.5,0,0,1,.56-.52c3.36.42,9.56.85,11.38,1,.07-1.13.39-3.79,1.85-5.41a7.44,7.44,0,0,1,4-2.2.5.5,0,0,1,.55.27,28.43,28.43,0,0,0,2,3.85c.67.68,6.38,4.71,11.1,5.08h0c.84.06,1.71.11,2.59.15,4.5.22,9.16.45,10.23,3.67a4.21,4.21,0,0,1-.39,3.51,9.74,9.74,0,0,1-5.58,4.11C318.82,436.75,307.23,437.51,300,437.51ZM286.31,422.7c.48,9.57.62,11.51.66,11.8.08.54,2.52.89,4.14,1.12,1.15.17,2.33.34,3.42.59,3,.71,22.08,0,28.81-1.55a8.71,8.71,0,0,0,4.93-3.61,3.25,3.25,0,0,0,.32-2.71c-.85-2.58-5.16-2.79-9.33-3-.88-.05-1.77-.09-2.62-.16h0c-5.3-.4-11.26-4.9-11.74-5.37-.12-.12-.36-.36-2-3.75a6.31,6.31,0,0,0-3.06,1.8c-1.59,1.77-1.61,5.24-1.61,5.28a.48.48,0,0,1-.16.36.47.47,0,0,1-.37.14C297.6,423.64,290.44,423.18,286.31,422.7Z" style="fill:#263238"></path><path d="M250.24,351.8l26.62.94,5.53,58.56s14.83,1.76,24.88-.25c0,0-2.77-66.85-4.78-72.63s-48.75-7.29-48.75-7.29S242,341.32,250.24,351.8Z" style="fill:#595959"></path><path d="M295.37,412.51a125.82,125.82,0,0,1-13-.71.5.5,0,0,1-.44-.45l-5.49-58.12-26.18-.93a.47.47,0,0,1-.37-.19c-8.47-10.73,3.44-21.25,3.56-21.36a.54.54,0,0,1,.34-.12c4.82.16,47.15,1.69,49.22,7.62s4.69,70.05,4.8,72.78a.5.5,0,0,1-.4.51A64.11,64.11,0,0,1,295.37,412.51Zm-12.52-1.66c2.39.25,15,1.46,23.9-.21-.24-5.75-2.85-66.65-4.73-72.06-1.39-4-29.44-6.33-48.1-6.94-1.35,1.22-10.65,10.25-3.43,19.67l26.39.93a.51.51,0,0,1,.48.46Z" style="fill:#263238"></path><path d="M244.81,251.24s-14.3,5.38-18,7.23S221,264,222.21,273.23s3.84,60.27,3.84,60.27.8,9.94,9.14,13.05c4.92,1.83,15.05,5.25,15.05,5.25s2.77-10.26,4.6-13.92c6.43-12.85,25.78-19.17,29.79-16.65,0,0-2.39-8.35-2.39-11.7s1.2-28.9-.24-38.45-2.15-13.13-5.25-16.24-15.52-5.25-15.52-5.25Z" style="fill:#fff"></path><path d="M250.24,352.3a.44.44,0,0,1-.16,0c-.1,0-10.2-3.45-15.06-5.26-8.55-3.18-9.46-13.37-9.47-13.48,0-.52-2.63-51.14-3.84-60.24-1.11-8.32.4-13,4.89-15.28,3.67-1.83,17.45-7,18-7.24a.31.31,0,0,1,.13,0l16.42-1.66h.13c.52.09,12.61,2.22,15.79,5.4s4,7.21,5.4,16.52c1.16,7.73.61,25.69.35,34.32-.06,2.06-.11,3.55-.11,4.2,0,3.24,2.35,11.48,2.37,11.57a.47.47,0,0,1-.18.53.48.48,0,0,1-.56,0c-1.2-.75-4.13-.6-7.66.39-7.75,2.17-17.38,8-21.43,16.06-1.78,3.56-4.53,13.72-4.56,13.82a.49.49,0,0,1-.24.32A.52.52,0,0,1,250.24,352.3Zm-5.32-100.57c-1,.39-14.37,5.44-17.88,7.19-2.89,1.44-5.67,4.27-4.34,14.24,1.22,9.14,3.82,59.81,3.85,60.32,0,.08.88,9.65,8.82,12.6,4.23,1.57,12.42,4.37,14.53,5.08.59-2.15,2.88-10.27,4.49-13.5,4.18-8.36,14.08-14.35,22.05-16.58,3.16-.88,5.78-1.12,7.44-.69-.63-2.32-2.14-8.13-2.14-10.86,0-.65.05-2.16.11-4.23.26-8.6.81-26.5-.34-34.14-1.45-9.65-2.16-13-5.11-16s-14.21-4.92-15.19-5.1Z" style="fill:#263238"></path><path d="M276.75,254.84c-3.1-3.1-15.52-5.25-15.52-5.25l-16.42,1.65s-14.3,5.38-18,7.23S221,264,222.21,273.23c.59,4.48,1.52,18.79,2.31,32.35,4.82-9.56,17.35-47.07,33.24-48.84,9.93-1.1,17.39,17.73,24.93,26.39a98.51,98.51,0,0,0-.69-12.05C280.57,261.53,279.85,257.94,276.75,254.84Z" style="fill:#FF81AE"></path><path d="M224.52,306.08h-.1a.49.49,0,0,1-.4-.46c-1-17.73-1.81-28.6-2.31-32.31-1.11-8.32.4-13,4.89-15.28,3.67-1.83,17.45-7,18-7.24a.31.31,0,0,1,.13,0l16.42-1.66h.13c.52.09,12.61,2.22,15.79,5.4s4,7.21,5.4,16.52a99.09,99.09,0,0,1,.69,12.11.5.5,0,0,1-.32.47.51.51,0,0,1-.56-.13,88.82,88.82,0,0,1-6.92-9.86c-5.39-8.41-10.95-17.09-17.58-16.36-12.68,1.41-23.57,27.05-29.42,40.83-1.36,3.2-2.53,6-3.43,7.74A.49.49,0,0,1,224.52,306.08Zm20.4-54.35c-1,.39-14.37,5.44-17.88,7.19-2.89,1.44-5.67,4.27-4.34,14.24.48,3.61,1.22,13.84,2.2,30.45.74-1.62,1.61-3.66,2.57-5.93,6.35-14.95,17-40,30.23-41.43,7.26-.81,13,8.15,18.53,16.81a104.85,104.85,0,0,0,5.94,8.66,89.47,89.47,0,0,0-.66-10.56c-1.45-9.65-2.16-13-5.11-16s-14.21-4.92-15.19-5.1Z" style="fill:#263238"></path><ellipse cx="254.23" cy="256.57" rx="15.32" ry="9.09" style="fill:#263238"></ellipse><path d="M254.23,266.16c-8.73,0-15.82-4.3-15.82-9.59s7.09-9.6,15.82-9.6,15.82,4.31,15.82,9.6S263,266.16,254.23,266.16Zm0-18.19c-8.18,0-14.82,3.86-14.82,8.6s6.64,8.59,14.82,8.59,14.82-3.86,14.82-8.59S262.4,248,254.23,248Z" style="fill:#263238"></path><path d="M242.5,244.32v11.54s5.85,4.3,12.61,4.92,12.76-6.31,12.76-6.31L266.18,244s-4.77,4.46-9.84,4.61S242.5,244.32,242.5,244.32Z" style="fill:#fff"></path><path d="M256,261.32c-.3,0-.61,0-.91-.05-6.83-.62-12.62-4.83-12.86-5a.49.49,0,0,1-.21-.4V244.32a.49.49,0,0,1,.24-.42.5.5,0,0,1,.49,0c.09,0,8.75,4.4,13.6,4.25s9.46-4.43,9.51-4.48a.54.54,0,0,1,.5-.11.49.49,0,0,1,.33.4l1.7,10.45a.5.5,0,0,1-.12.41C268,255.08,262.52,261.32,256,261.32Zm-13-5.72c1.08.74,6.31,4.15,12.16,4.68s11.21-4.92,12.18-6L265.83,245c-1.53,1.25-5.36,4-9.47,4.15-4.31.12-11.13-2.93-13.36-4Z" style="fill:#263238"></path><path d="M236.35,228.18s2.31,11.69,2.92,13.68,6.92,9.23,10.92,10.92,8.92,1.54,10.92.15,10.3-10.3,10.3-12.76-.16-16.3-.16-16.3L272,212s-17.06-4.62-23.37-3.54-13.07,9.22-13.07,9.22Z" style="fill:#fff"></path><path d="M256.44,254.51a17,17,0,0,1-6.44-1.27c-4.16-1.75-10.54-9.06-11.2-11.23-.62-2-2.84-13.25-2.94-13.73,0,0,0,0,0-.06l-.77-10.46a.53.53,0,0,1,.12-.35c.28-.34,7-8.31,13.37-9.4s22.88,3.35,23.58,3.54a.51.51,0,0,1,.37.52l-.77,11.84c0,.1.16,13.83.16,16.26,0,2.87-8.74,11.94-10.52,13.18A9.11,9.11,0,0,1,256.44,254.51Zm-19.59-26.4c.13.66,2.32,11.7,2.9,13.61s6.87,9,10.64,10.6c3.92,1.66,8.65,1.44,10.43.2,2-1.39,10.09-10.19,10.09-12.35,0-2.43-.15-16.15-.16-16.29l.75-11.47c-2.59-.67-17.16-4.37-22.76-3.42s-11.69,7.79-12.64,8.9Z" style="fill:#263238"></path><path d="M255,245.42a9.76,9.76,0,0,1-5.65-1.84.5.5,0,0,1-.07-.7.49.49,0,0,1,.7-.07c.21.16,5.09,4,11-.67a.5.5,0,0,1,.7.08.5.5,0,0,1-.08.7A10.54,10.54,0,0,1,255,245.42Z" style="fill:#263238"></path><path d="M242.2,197.58s-5.69,3.23-7.85,5.54-2,10.45-1.69,12.61a14,14,0,0,0,2,4.76c.62,1.23,1.69,7.69,1.69,7.69s.62-2.77.92-5.23,2.93-4.92,3.7-5.53l4.3-3.54L242.35,218s4.77-.31,6.15-.61,9.84-3.69,9.84-3.69l-1.69,3.69s4.46,1.84,7.69.3,6.61-3.53,6.61-3.53.3,8.45.3,9.68.47,4.31.47,4.31a32.4,32.4,0,0,1,1.07-3.84,31.74,31.74,0,0,1,1.85-3.23s-.16-8.31.15-11.53-2.77-8.46-8.92-11.38S246.19,195.58,242.2,197.58Z" style="fill:#263238"></path><path d="M236.35,228.68h0a.5.5,0,0,1-.48-.42,56.31,56.31,0,0,0-1.65-7.54c-.14-.29-.3-.58-.48-.88a11.1,11.1,0,0,1-1.56-4c-.28-2-.54-10.5,1.82-13,2.18-2.34,7.72-5.5,8-5.63h0c4-2,17.67-2.45,24.12.61,6.19,2.94,9.53,8.34,9.2,11.87-.3,3.17-.15,11.4-.15,11.48a.57.57,0,0,1-.08.28,31.23,31.23,0,0,0-1.81,3.15,32.93,32.93,0,0,0-1.05,3.76.47.47,0,0,1-.5.39.51.51,0,0,1-.48-.43c0-.12-.47-3.12-.47-4.37,0-1-.2-6.68-.27-8.84-1.18.67-3.6,2-5.93,3.14-3.39,1.61-7.9-.22-8.09-.3a.48.48,0,0,1-.28-.28.52.52,0,0,1,0-.39l1.18-2.56c-2.38.94-7.66,3-8.76,3.26-1.41.31-6,.61-6.23.62a.52.52,0,0,1-.47-.25.52.52,0,0,1,0-.54l.79-1.12-1.45,1.19c-.88.7-3.24,3-3.51,5.2-.31,2.46-.92,5.25-.93,5.28A.49.49,0,0,1,236.35,228.68Zm34.6-15a.53.53,0,0,1,.24.06.51.51,0,0,1,.26.42c0,.35.3,8.48.3,9.71,0,.39.06,1,.12,1.63.16-.53.32-1,.46-1.37a31.07,31.07,0,0,1,1.8-3.17c0-1.18-.12-8.42.16-11.44.31-3.19-2.84-8.13-8.63-10.88-6.1-2.9-19.48-2.49-23.23-.63-.28.17-5.68,3.26-7.71,5.44s-1.87,10.07-1.56,12.19a9.92,9.92,0,0,0,1.44,3.69c.18.32.36.63.51.93a31.37,31.37,0,0,1,1.27,5.2c.14-.81.29-1.72.4-2.58.38-3,3.84-5.84,3.87-5.86.77-.62,4.3-3.53,4.3-3.53a.5.5,0,0,1,.66,0,.52.52,0,0,1,.07.66l-2.32,3.29c1.48-.11,4.09-.32,5-.53s6.85-2.5,9.76-3.67a.51.51,0,0,1,.55.12.5.5,0,0,1,.09.56l-1.46,3.19c1.21.41,4.41,1.28,6.79.14,3.17-1.51,6.54-3.49,6.57-3.51A.48.48,0,0,1,271,213.69Z" style="fill:#263238"></path><path d="M236,223.57s-2.92-2.92-4,1.69,1.69,6.76,3.23,8.3l2.76,2.77Z" style="fill:#fff"></path><path d="M238,236.83a.49.49,0,0,1-.35-.15l-3.18-3.17c-1.59-1.54-4-3.87-2.95-8.36.39-1.66,1.07-2.65,2-2.92,1.41-.4,2.75.93,2.81,1a.62.62,0,0,1,.14.28l2,12.76a.5.5,0,0,1-.27.52A.46.46,0,0,1,238,236.83Zm-3.9-13.67a1.27,1.27,0,0,0-.28,0c-.57.17-1,.92-1.33,2.18-.92,3.95,1.16,6,2.68,7.42l2.1,2.1-1.73-11.07A2.51,2.51,0,0,0,234.14,223.16Z" style="fill:#263238"></path><path d="M271.1,230.33s.62-9.38,3.54-9.22,2.92,4.61,2.15,7.38-5.38,6.46-5.38,6.46Z" style="fill:#fff"></path><path d="M271.41,235.45a.46.46,0,0,1-.2,0,.49.49,0,0,1-.3-.42l-.31-4.61v-.07c.11-1.63.8-9.69,4-9.69h.1a2.76,2.76,0,0,1,2.17,1.18c1.17,1.62,1.06,4.6.44,6.83-.8,2.89-5.35,6.56-5.55,6.72A.51.51,0,0,1,271.41,235.45Zm.19-5.12.24,3.59c1.31-1.15,3.93-3.64,4.47-5.57s.63-4.69-.29-6a1.76,1.76,0,0,0-1.41-.76h0C272.92,221.61,271.85,226.68,271.6,230.33Z" style="fill:#263238"></path><path d="M255.12,238.38a2.3,2.3,0,0,1-.37,0,7.07,7.07,0,0,1-3.2-1.66.5.5,0,1,1,.67-.74,6.09,6.09,0,0,0,2.64,1.41,5.14,5.14,0,0,0,2.61-.7.49.49,0,0,1,.68.17.5.5,0,0,1-.17.69A6.47,6.47,0,0,1,255.12,238.38Z" style="fill:#263238"></path><ellipse cx="247.27" cy="229.1" rx="1.29" ry="2.2" style="fill:#263238"></ellipse><ellipse cx="261.41" cy="229.1" rx="1.29" ry="2.2" style="fill:#263238"></ellipse><path d="M241.27,225.29a.43.43,0,0,1-.19,0,.49.49,0,0,1-.27-.65c.07-.16,1.79-4,9.49-2.29a.5.5,0,0,1-.22,1c-6.82-1.57-8.29,1.57-8.35,1.7A.5.5,0,0,1,241.27,225.29Z" style="fill:#263238"></path><path d="M267.41,224.53a.54.54,0,0,1-.35-.14c-4-3.85-8.91-1.55-9.12-1.45a.5.5,0,1,1-.43-.9c.05,0,5.74-2.71,10.25,1.63a.5.5,0,0,1-.35.86Z" style="fill:#263238"></path><path d="M231.61,256.75s-11.94,1-13.85,4.3-6.21,50.39-6,54.21.72,6.93,4.54,8.6,29.85,1.91,32,2.39,3.58,1,3.58,1l4.06-9.8-25.79-10.74L235,269.89" style="fill:#FF81AE"></path><path d="M251.91,327.71l-.16,0a34.93,34.93,0,0,0-3.53-.94c-.68-.15-4.28-.29-8.46-.46-8.87-.34-21-.81-23.63-2-4.07-1.78-4.6-5.14-4.84-9-.17-2.67,3.94-50.82,6-54.49,2-3.47,13-4.45,14.24-4.55a.5.5,0,0,1,.08,1c-3.25.26-12,1.49-13.46,4.05-1.74,3-6.15,50-5.9,53.93.24,3.81.68,6.62,4.24,8.17,2.44,1.07,15,1.56,23.27,1.89,5,.19,7.91.31,8.64.47,1.47.33,2.6.65,3.19.83l3.69-8.91L230,307.13a.5.5,0,0,1-.31-.53l4.78-36.78a.5.5,0,1,1,1,.13l-4.73,36.4L256.17,317a.5.5,0,0,1,.26.65l-4.06,9.8A.5.5,0,0,1,251.91,327.71Z" style="fill:#263238"></path><path d="M256,317.41s10.91,5.61,12,6.73,4.68,6.09,4.78,6.81.2,10.16.2,10.77-2,1.93-2,1.93a8.16,8.16,0,0,1-2.64,2.85c-1.53.81-1.32.71-1.93.71s-1.53.71-1.53-.51a26.47,26.47,0,0,0-.4-4.06,49.85,49.85,0,0,0-2.55-7.83c-.71-1.22-2.44-2.75-3.45-5.39a20.91,20.91,0,0,0-1.43-3.25l-4.37-.92Z" style="fill:#fff"></path><path d="M265.3,347.92a.93.93,0,0,1-.56-.18,1.28,1.28,0,0,1-.4-1,24.59,24.59,0,0,0-.4-4,49.76,49.76,0,0,0-2.48-7.67,11.12,11.12,0,0,0-.92-1.26,15.5,15.5,0,0,1-2.57-4.2,29.9,29.9,0,0,0-1.28-3l-4.15-.87a.49.49,0,0,1-.34-.25.5.5,0,0,1,0-.43l3.33-7.84a.53.53,0,0,1,.29-.28.51.51,0,0,1,.4,0c1.12.58,11,5.67,12.15,6.81,1,1,4.78,6.15,4.92,7.1.11.77.2,10.43.2,10.84,0,.71-1.15,1.62-2.15,2.29a8.41,8.41,0,0,1-2.79,2.93l-.09.05c-1.3.69-1.37.73-1.91.72h-.16a1.53,1.53,0,0,0-.41.09A2.76,2.76,0,0,1,265.3,347.92Zm-12-23,3.78.79a.49.49,0,0,1,.31.21,20.29,20.29,0,0,1,1.48,3.35,14.59,14.59,0,0,0,2.41,3.94,11.87,11.87,0,0,1,1,1.38,50.5,50.5,0,0,1,2.6,8,26.64,26.64,0,0,1,.41,4.15.91.91,0,0,0,0,.21,2,2,0,0,0,.33-.08,2.93,2.93,0,0,1,.68-.12h.18c.28,0,.27,0,1.42-.6l.09-.05a7.58,7.58,0,0,0,2.44-2.65.58.58,0,0,1,.17-.18,6.44,6.44,0,0,0,1.81-1.55c0-.74-.11-10-.2-10.66a42.14,42.14,0,0,0-4.64-6.53c-.75-.75-7.06-4.14-11.42-6.39Z" style="fill:#263238"></path><path d="M266.37,347.71a.57.57,0,0,1-.28-.08.51.51,0,0,1-.14-.7,7.41,7.41,0,0,0,1.14-3.58c0-1.55-1.58-6.83-2.42-9.4a.5.5,0,0,1,.95-.31c.1.31,2.47,7.62,2.47,9.71a8.28,8.28,0,0,1-1.31,4.14A.49.49,0,0,1,266.37,347.71Z" style="fill:#263238"></path><path d="M270.94,344.15a.51.51,0,0,1-.5-.44,23.24,23.24,0,0,0-1-4.83c-.62-1.34-2.2-7.35-2.26-7.6a.48.48,0,0,1,.35-.61.49.49,0,0,1,.61.35c0,.06,1.62,6.18,2.21,7.44a25.43,25.43,0,0,1,1.06,5.14.5.5,0,0,1-.44.55Z" style="fill:#263238"></path><path d="M272.77,338.36a.51.51,0,0,1-.5-.44c-.29-2.52-2.76-7.3-2.79-7.35a.5.5,0,1,1,.89-.46c.1.2,2.59,5,2.9,7.69a.51.51,0,0,1-.44.56Z" style="fill:#263238"></path><path d="M276.75,254.84s5.71,3.12,7.32,9,9.3,42.44,9.3,42.44l22.43,9.09a22.32,22.32,0,0,0-.81,5,54.62,54.62,0,0,0,.41,5.46s-12.13-2.23-20.41-3-14.15-1-15.76-4.85-1-21.22-1-26.68.61-20.21,0-25.06S276.75,254.84,276.75,254.84Z" style="fill:#FF81AE"></path><path d="M315.4,326.36h-.09c-.12,0-12.2-2.23-20.37-3l-2.08-.19c-7.26-.68-12.5-1.17-14.1-5-1.37-3.26-1.19-15.61-1.09-23,0-1.57,0-2.91,0-3.88,0-1.58.05-3.91.11-6.6.15-6.68.33-15-.1-18.39-.61-4.85-1.47-11.4-1.47-11.41a.51.51,0,0,1,.74-.5c.24.13,5.91,3.29,7.57,9.29,1.53,5.54,8.55,38.9,9.24,42.2l22.19,9a.49.49,0,0,1,.29.6,21.74,21.74,0,0,0-.79,4.91c0,2.17.4,5.36.4,5.39a.5.5,0,0,1-.49.57Zm-38-70.53c.27,2,.87,6.69,1.33,10.35.44,3.49.26,11.83.11,18.54-.06,2.69-.11,5-.11,6.58,0,1,0,2.31,0,3.89-.09,6.82-.27,19.53,1,22.59,1.36,3.24,6.35,3.7,13.26,4.35l2.09.2c7.1.69,17.13,2.44,19.78,2.92-.12-1.08-.33-3.21-.33-4.85a21.21,21.21,0,0,1,.71-4.75l-22-8.93a.52.52,0,0,1-.3-.36c-.08-.37-7.69-36.63-9.29-42.41C282.43,259.73,279,257,277.38,255.83Z" style="fill:#263238"></path><path d="M315.4,325.86l1.49.22a27.77,27.77,0,0,1,2.08,2,14.41,14.41,0,0,0,5.27,3c1.81.45,1.54-.18.72-1.27a34.94,34.94,0,0,0-2.63-2.72,3.7,3.7,0,0,1-1-3.27c.27-.64,2-1,3.18-.27a34.3,34.3,0,0,1,3.9,3.54,30.3,30.3,0,0,1,2.09,4.44c.36,1.37,1.54,2.46,1.63,1.37s.09-4.72.09-4.72.91-1.09-.09-5.09-3.17-5.71-4.26-6.26-12.07-1.47-12.07-1.47S314,322.19,315.4,325.86Z" style="fill:#fff"></path><path d="M331.84,333.83c-.75,0-1.54-1.1-1.82-2.18a30.29,30.29,0,0,0-2-4.27,34,34,0,0,0-3.76-3.42,2.61,2.61,0,0,0-2-.22.9.9,0,0,0-.46.27,3.26,3.26,0,0,0,.91,2.73c.4.43.76.78,1.11,1.1a12.48,12.48,0,0,1,1.55,1.66c.54.71.95,1.35.61,1.86s-1.08.39-1.85.2a14.75,14.75,0,0,1-5.52-3.15c-.58-.65-1.6-1.56-1.93-1.86l-1.35-.2a.49.49,0,0,1-.39-.32c-1.44-3.77.31-10.52.39-10.81a.5.5,0,0,1,.52-.37c1.85.16,11.13,1,12.25,1.52.77.39,3.38,2,4.53,6.59.85,3.41.36,4.87.1,5.35,0,.69,0,3.63-.09,4.62-.06.78-.57.88-.73.9ZM323,322.64a3.34,3.34,0,0,1,1.77.47,33.94,33.94,0,0,1,4,3.62l.08.1A30.42,30.42,0,0,1,331,331.4a3.12,3.12,0,0,0,.67,1.25c.07-1.23.07-4.45.07-4.48a.53.53,0,0,1,.12-.32h0s.7-1.07-.19-4.64c-1.07-4.29-3.53-5.7-4-5.94s-6.29-.94-11.45-1.39c-.35,1.46-1.4,6.51-.42,9.53l1.19.17a.58.58,0,0,1,.25.12,28.48,28.48,0,0,1,2.14,2,13.88,13.88,0,0,0,5,2.85,5.74,5.74,0,0,0,.62.12,5.8,5.8,0,0,0-.42-.61,12.31,12.31,0,0,0-1.43-1.53c-.37-.34-.75-.7-1.17-1.15a4.13,4.13,0,0,1-1.09-3.81,1.67,1.67,0,0,1,1.07-.82A3.66,3.66,0,0,1,323,322.64Z" style="fill:#263238"></path><path d="M332,328a.49.49,0,0,1-.48-.38,11.42,11.42,0,0,0-3.72-6.07.5.5,0,0,1,.6-.8,12.3,12.3,0,0,1,4.09,6.64.51.51,0,0,1-.37.6Z" style="fill:#263238"></path><path d="M332.13,323.58a.51.51,0,0,1-.48-.36c-.58-2-4-4.52-4.08-4.54a.51.51,0,0,1-.11-.7.5.5,0,0,1,.7-.11c.16.11,3.78,2.76,4.45,5.07a.49.49,0,0,1-.34.62A.32.32,0,0,1,332.13,323.58Z" style="fill:#263238"></path><path d="M190.87,270.09H175.82a4,4,0,0,1,0-8h15.05a4,4,0,0,1,0,8Z" style="fill:#263238"></path><path d="M204.46,332a3,3,0,0,1-3-2.75l-5.1-60.11h-5.5a3,3,0,0,1,0-6h8.25a3,3,0,0,1,3,2.75l5.34,62.86a3,3,0,0,1-2.73,3.24Z" style="fill:#fff"></path><path d="M204.46,332.45a3.53,3.53,0,0,1-3.49-3.2l-5.06-59.66h-5a3.5,3.5,0,0,1,0-7h8.25a3.47,3.47,0,0,1,3.49,3.2L208,328.65a3.51,3.51,0,0,1-3.19,3.79Zm-13.59-68.86a2.5,2.5,0,0,0,0,5h5.5a.49.49,0,0,1,.49.46L202,329.16a2.5,2.5,0,1,0,5-.42l-5.34-62.86a2.48,2.48,0,0,0-2.49-2.29Z" style="fill:#263238"></path><rect x="196.7" y="340.36" width="64.32" height="23.06" style="fill:#fff"></rect><path d="M261,363.91H196.7a.5.5,0,0,1-.5-.5V340.36a.5.5,0,0,1,.5-.5H261a.5.5,0,0,1,.5.5v23.05A.5.5,0,0,1,261,363.91Zm-63.81-1h63.31V340.86H197.2Z" style="fill:#263238"></path><path d="M284.8,440.32H279a3,3,0,0,1-3-3V390a1,1,0,0,0-1.05-1.05H261.25a3,3,0,0,1,0-6h13.67A7.05,7.05,0,0,1,282,390v44.28h2.83a3,3,0,0,1,0,6Z" style="fill:#fff"></path><path d="M284.8,440.82H279a3.5,3.5,0,0,1-3.5-3.5V390a.55.55,0,0,0-.55-.55H261.25a3.5,3.5,0,0,1,0-7h13.67a7.56,7.56,0,0,1,7.55,7.55v43.78h2.33a3.5,3.5,0,0,1,0,7Zm-23.55-57.33a2.5,2.5,0,0,0,0,5h13.67a1.54,1.54,0,0,1,1.55,1.55v47.28a2.5,2.5,0,0,0,2.5,2.5h5.83a2.5,2.5,0,0,0,0-5H282a.5.5,0,0,1-.5-.5V390a6.55,6.55,0,0,0-6.55-6.55Z" style="fill:#263238"></path><path d="M248.58,405.43H211.31a15.53,15.53,0,0,1-15.51-15.52V341.67a15.53,15.53,0,0,1,15.51-15.51h37.27a15.53,15.53,0,0,1,15.51,15.51v48.24A15.53,15.53,0,0,1,248.58,405.43Zm-37.27-73.27a9.53,9.53,0,0,0-9.51,9.51v48.24a9.53,9.53,0,0,0,9.51,9.52h37.27a9.53,9.53,0,0,0,9.51-9.52V341.67a9.53,9.53,0,0,0-9.51-9.51Z" style="fill:#fff"></path><path d="M248.58,405.93H211.31a16,16,0,0,1-16-16V341.67a16,16,0,0,1,16-16h37.27a16,16,0,0,1,16,16v48.24A16,16,0,0,1,248.58,405.93Zm-37.27-79.27a15,15,0,0,0-15,15v48.24a15,15,0,0,0,15,15h37.27a15,15,0,0,0,15-15V341.67a15,15,0,0,0-15-15Zm37.27,73.27H211.31a10,10,0,0,1-10-10V341.67a10,10,0,0,1,10-10h37.27a10,10,0,0,1,10,10v48.24A10,10,0,0,1,248.58,399.93Zm-37.27-67.27a9,9,0,0,0-9,9v48.24a9,9,0,0,0,9,9h37.27a9,9,0,0,0,9-9V341.67a9,9,0,0,0-9-9Z" style="fill:#263238"></path><circle cx="251.55" cy="431.13" r="11.89" transform="translate(-231.18 304.14) rotate(-45)" style="fill:#fff"></circle><path d="M251.55,443.52a12.39,12.39,0,1,1,12.39-12.39A12.41,12.41,0,0,1,251.55,443.52Zm0-23.78a11.39,11.39,0,1,0,11.39,11.39A11.41,11.41,0,0,0,251.55,419.74Z" style="fill:#263238"></path><circle cx="251.55" cy="431.13" r="7.98" transform="translate(-227.33 290.34) rotate(-43.35)" style="fill:#263238"></circle><path d="M251.55,439.6a8.48,8.48,0,1,1,8.47-8.47A8.48,8.48,0,0,1,251.55,439.6Zm0-16a7.48,7.48,0,1,0,7.47,7.48A7.49,7.49,0,0,0,251.55,423.65Z" style="fill:#263238"></path><path d="M260.28,415.6h-9.22l-2,15.44a2.2,2.2,0,0,0,1.49,2.36h0a2.21,2.21,0,0,0,2.72-1.23Z" style="fill:#fff"></path><path d="M251.27,434a2.74,2.74,0,0,1-.84-.14,2.69,2.69,0,0,1-1.82-2.89l1.95-15.45a.51.51,0,0,1,.5-.44h9.22a.5.5,0,0,1,.42.23.49.49,0,0,1,0,.47l-7,16.57A2.72,2.72,0,0,1,251.27,434Zm.23-17.92-1.9,15a1.7,1.7,0,0,0,3.25.87l6.68-15.88Z" style="fill:#263238"></path><path d="M259.56,420.05a3,3,0,0,1-3-3V390.11a3,3,0,0,1,6,0v26.94A3,3,0,0,1,259.56,420.05Z" style="fill:#fff"></path><path d="M259.55,420.55a3.5,3.5,0,0,1-3.5-3.5V390.11a3.5,3.5,0,0,1,7,0v26.94A3.5,3.5,0,0,1,259.55,420.55Zm0-32.94a2.51,2.51,0,0,0-2.5,2.5v26.94a2.5,2.5,0,0,0,5,0V390.11A2.5,2.5,0,0,0,259.55,387.61Z" style="fill:#263238"></path><polygon points="233.07 396.58 201.03 395.15 222.68 371.48 220.44 369.25 196.78 390.9 195.35 358.85 192.19 358.85 190.77 390.81 170.53 371.59 168.3 373.82 186.67 395.18 161.6 396.58 161.6 399.74 186.76 401.14 168.97 422.75 171.2 424.99 190.77 405.6 192.19 437.46 195.35 437.46 196.78 405.41 220.44 427.06 222.68 424.83 201.03 401.16 233.07 399.74 233.07 396.58" style="fill:#263238"></polygon><path d="M195.35,438h-3.16a.5.5,0,0,1-.5-.48l-1.37-30.73-18.76,18.59a.5.5,0,0,1-.71,0l-2.23-2.24a.49.49,0,0,1,0-.67l17.17-20.85-24.18-1.35a.49.49,0,0,1-.47-.49v-3.16a.49.49,0,0,1,.47-.5l24.06-1.34-17.71-20.59a.5.5,0,0,1,0-.68l2.23-2.24a.5.5,0,0,1,.7,0l19.44,18.46,1.37-30.86a.5.5,0,0,1,.5-.48h3.16a.5.5,0,0,1,.5.48l1.38,31,22.88-20.93a.5.5,0,0,1,.69,0l2.23,2.24a.5.5,0,0,1,0,.69L202.12,394.7l31,1.38a.5.5,0,0,1,.48.5v3.16a.5.5,0,0,1-.48.49l-31,1.38,20.93,22.88a.5.5,0,0,1,0,.69l-2.23,2.24a.5.5,0,0,1-.69,0L197.23,406.5l-1.38,31A.5.5,0,0,1,195.35,438Zm-2.68-1h2.2l1.41-31.57a.49.49,0,0,1,.3-.44.51.51,0,0,1,.53.09l23.32,21.33,1.56-1.55L200.66,401.5a.5.5,0,0,1,.34-.84l31.57-1.4v-2.21L201,395.65a.5.5,0,0,1-.34-.84L222,371.5l-1.56-1.56-23.32,21.33a.51.51,0,0,1-.53.09.48.48,0,0,1-.3-.44l-1.41-31.57h-2.2l-1.4,31.48a.53.53,0,0,1-.32.45.5.5,0,0,1-.53-.11l-19.88-18.88L169,373.85l18.07,21a.5.5,0,0,1-.35.83l-24.6,1.37v2.21l24.69,1.38a.48.48,0,0,1,.43.3.49.49,0,0,1-.07.52l-17.51,21.26,1.56,1.56,19.22-19a.5.5,0,0,1,.53-.11.51.51,0,0,1,.32.45Z" style="fill:#263238"></path><path d="M197.6,351.25c-19.42,0-35.17,20.88-35.17,46.63s15.75,46.63,35.17,46.63,35.17-20.88,35.17-46.63S217,351.25,197.6,351.25Zm0,85.71c-16.28,0-29.48-17.5-29.48-39.08s13.2-39.08,29.48-39.08,29.47,17.5,29.47,39.08S213.88,437,197.6,437Z" style="fill:#263238"></path><path d="M197.6,445c-19.67,0-35.67-21.14-35.67-47.13s16-47.13,35.67-47.13,35.67,21.14,35.67,47.13S217.27,445,197.6,445Zm0-93.26c-19.12,0-34.67,20.69-34.67,46.13S178.48,444,197.6,444s34.67-20.69,34.67-46.13S216.71,351.75,197.6,351.75Zm0,85.71c-16.53,0-30-17.75-30-39.58s13.45-39.58,30-39.58,30,17.75,30,39.58S214.13,437.46,197.6,437.46Zm0-78.16c-16,0-29,17.31-29,38.58s13,38.58,29,38.58,29-17.31,29-38.58S213.57,359.3,197.6,359.3Z" style="fill:#263238"></path><path d="M192,356.17c-17.37,0-31.45,18.67-31.45,41.71s14.08,41.71,31.45,41.71,31.46-18.68,31.46-41.71S209.38,356.17,192,356.17ZM192,436c-15.88,0-28.76-17.07-28.76-38.13s12.88-38.13,28.76-38.13,28.76,17.07,28.76,38.13S207.9,436,192,436Z" style="fill:#a3a3a3"></path><path d="M192,440.09c-17.62,0-31.95-18.94-31.95-42.21s14.33-42.21,31.95-42.21,32,18.94,32,42.21S209.63,440.09,192,440.09Zm0-83.42c-17.07,0-30.95,18.49-30.95,41.21s13.88,41.21,30.95,41.21,31-18.49,31-41.21S209.08,356.67,192,356.67Zm0,79.84c-16.13,0-29.26-17.33-29.26-38.63s13.13-38.63,29.26-38.63,29.26,17.33,29.26,38.63S208.15,436.51,192,436.51Zm0-76.26c-15.58,0-28.26,16.88-28.26,37.63s12.68,37.63,28.26,37.63,28.26-16.88,28.26-37.63S207.59,360.25,192,360.25Z" style="fill:#263238"></path></g><g id="freepik--Floor--inject-203"><polyline points="17.34 450.26 38.14 447.18 32.29 445.54 41.2 444.71 39.29 440.56 45.66 443.05 50.43 440 51.7 443.6 55.2 440.56 55.52 444.16 59.66 441.94 60.3 444.99 73.67 440.56 73.35 443.05 76.85 441.66 83.85 444.16 84.17 441.11 89.58 444.16 89.9 441.94 92.13 443.6 94.68 439.72 98.18 444.71 106.45 440.83 106.45 444.43 111.55 442.49 112.18 444.43 116.64 442.49 121.42 444.43 142.74 441.66 141.79 443.88 146.56 442.77 152.61 442.22 155.16 444.43 157.7 442.49 161.52 444.43 161.84 441.39 165.03 444.43 169.48 440.83 170.44 444.43 179.03 441.39 179.35 444.71 196.22 442.22 194.63 444.43 201 443.88 205.45 445.26 210.23 441.39 217.55 444.43 217.87 442.49 221.69 444.16 223.28 440.83 225.82 444.16 230.92 441.94 231.55 443.88 236.01 442.77 238.24 444.71 246.2 443.6 246.83 445.54 258.61 442.77 259.88 445.26 264.66 441.66 267.52 443.88 268.8 440.28 272.94 443.32 277.71 440.28 276.75 443.88 280.89 441.94 282.49 444.16 287.58 442.49 289.17 444.43 291.72 443.6 294.9 444.43 302.22 441.66 305.4 443.88 307.31 441.66 309.54 443.6 311.13 441.11 314 444.71 318.14 442.22 320.05 444.71 324.19 441.11 325.46 444.43 336.92 442.77 343.92 441.39 342.65 444.43 351.24 442.22 355.06 444.16 356.33 440.83 360.79 443.05 363.02 440.83 365.88 442.77 369.39 441.39 372.25 443.88 379.89 441.39 382.12 443.88 386.89 441.66 387.85 443.88 393.58 442.49 393.9 444.71 398.35 442.22 401.86 443.05 405.04 440.83 406.63 443.05 409.18 440.56 410.13 443.6 417.45 441.66 419.68 443.88 424.77 441.66 427.64 444.16 428.91 441.11 435.6 444.43 434.96 440.56 439.74 443.05 439.74 440.56 442.92 443.32 444.83 439.72 446.1 442.77 448.75 441.24 449.92 440.56 449.6 444.43 455.33 442.22 455.33 444.43 462.65 443.6 460.79 447.18 477.61 448.72" style="fill:#FF81AE"></polyline><path d="M17.34,450.76a.51.51,0,0,1-.5-.43.5.5,0,0,1,.42-.56L35.75,447l-3.6-1a.49.49,0,0,1-.36-.52.51.51,0,0,1,.45-.46l8.21-.76-1.61-3.52a.49.49,0,0,1,.09-.55.48.48,0,0,1,.54-.12l6.13,2.4,4.56-2.91a.5.5,0,0,1,.43-.05.49.49,0,0,1,.31.3l1,2.91,3-2.56a.49.49,0,0,1,.82.33l.26,2.85,3.47-1.86a.5.5,0,0,1,.72.34l.52,2.5,12.84-4.26a.52.52,0,0,1,.48.09.48.48,0,0,1,.17.45L74,442.27l2.72-1.07a.47.47,0,0,1,.35,0l6.4,2.28.26-2.41a.46.46,0,0,1,.26-.39.51.51,0,0,1,.48,0l4.77,2.69.22-1.49a.5.5,0,0,1,.79-.33l1.8,1.34,2.26-3.43a.51.51,0,0,1,.41-.23.5.5,0,0,1,.42.22l3.26,4.64,7.89-3.7a.51.51,0,0,1,.48,0,.48.48,0,0,1,.23.42v2.88l4.42-1.68a.49.49,0,0,1,.65.31l.47,1.42,4-1.72a.48.48,0,0,1,.39,0l4.65,1.89,21.2-2.75a.5.5,0,0,1,.52.69l-.56,1.31,3.81-.89,6.12-.56a.5.5,0,0,1,.37.12l2.24,2,2.22-1.69a.49.49,0,0,1,.53-.05l3.17,1.61.25-2.33a.46.46,0,0,1,.32-.41.48.48,0,0,1,.52.11l2.86,2.74,4.12-3.33a.52.52,0,0,1,.47-.08.51.51,0,0,1,.33.34l.81,3.08,8.08-2.86a.49.49,0,0,1,.44,0,.55.55,0,0,1,.23.38l.27,2.8,16.35-2.42a.51.51,0,0,1,.5.24.52.52,0,0,1,0,.55l-1,1.33,5.28-.46a.58.58,0,0,1,.19,0l4.2,1.31,4.57-3.71a.52.52,0,0,1,.51-.08l6.74,2.81.21-1.32a.53.53,0,0,1,.26-.36.49.49,0,0,1,.44,0l3.37,1.46,1.39-2.88a.49.49,0,0,1,.4-.29.48.48,0,0,1,.44.2l2.31,3,4.74-2.06a.55.55,0,0,1,.4,0,.5.5,0,0,1,.27.3l.49,1.5,4-1a.51.51,0,0,1,.45.1l2.06,1.79,7.73-1.07a.5.5,0,0,1,.54.34l.5,1.5,11.33-2.66a.5.5,0,0,1,.56.25l1,2,4.3-3.25a.49.49,0,0,1,.6,0l2.32,1.79,1.05-2.95a.49.49,0,0,1,.32-.31.46.46,0,0,1,.44.08l3.87,2.84,4.48-2.86a.5.5,0,0,1,.75.55l-.68,2.56,3.17-1.48a.5.5,0,0,1,.62.16l1.38,1.92,4.74-1.55a.5.5,0,0,1,.54.16l1.38,1.67,2.22-.72a.45.45,0,0,1,.28,0l3,.79L302,441.2a.52.52,0,0,1,.47.05l2.81,2,1.62-1.87a.5.5,0,0,1,.34-.18.47.47,0,0,1,.36.13l1.79,1.55,1.28-2a.51.51,0,0,1,.4-.23.48.48,0,0,1,.42.19l2.59,3.26,3.76-2.27a.5.5,0,0,1,.65.12l1.59,2.07,3.74-3.25a.55.55,0,0,1,.45-.11.52.52,0,0,1,.34.31l1.13,2.95,11.07-1.6,7-1.38a.51.51,0,0,1,.49.17.52.52,0,0,1,.07.51l-.88,2.12,7.62-2a.53.53,0,0,1,.35,0l3.32,1.69,1.08-2.81a.48.48,0,0,1,.28-.28.53.53,0,0,1,.41,0l4.13,2.06,2-2a.49.49,0,0,1,.63-.06l2.65,1.79,3.25-1.29a.5.5,0,0,1,.51.09l2.66,2.31,7.37-2.41a.51.51,0,0,1,.52.14l2,2.22,4.43-2.06a.48.48,0,0,1,.39,0,.45.45,0,0,1,.28.26l.79,1.83,5.32-1.28a.51.51,0,0,1,.4.07.48.48,0,0,1,.21.34l.22,1.5,3.82-2.14a.5.5,0,0,1,.36,0l3.28.78,3-2.09a.5.5,0,0,1,.69.12l1.26,1.74,2.13-2.08a.5.5,0,0,1,.47-.13.48.48,0,0,1,.35.34l.81,2.59,6.86-1.82a.5.5,0,0,1,.48.13l2,2,4.78-2.09a.51.51,0,0,1,.53.09l2.34,2,1-2.4a.5.5,0,0,1,.29-.28.48.48,0,0,1,.39,0l5.82,2.89-.48-2.91a.5.5,0,0,1,.72-.53l4,2.11v-1.66a.51.51,0,0,1,.3-.46.49.49,0,0,1,.53.08l2.71,2.36,1.62-3.05a.46.46,0,0,1,.46-.26.49.49,0,0,1,.44.3l1,2.52,3.33-1.93a.5.5,0,0,1,.75.48l-.25,3.08,5-1.93a.47.47,0,0,1,.46.06.48.48,0,0,1,.22.41v1.65l6.77-.76a.49.49,0,0,1,.47.21.52.52,0,0,1,0,.51l-1.52,2.92,16.07,1.47a.5.5,0,0,1-.09,1l-16.82-1.54a.51.51,0,0,1-.39-.26.52.52,0,0,1,0-.47l1.44-2.74-6.39.72a.52.52,0,0,1-.39-.12.5.5,0,0,1-.17-.38V443l-5.05,1.95a.49.49,0,0,1-.48-.07.53.53,0,0,1-.2-.44l.24-2.92-3,1.73a.49.49,0,0,1-.41.05.53.53,0,0,1-.3-.29l-.87-2.07-1.41,2.67a.52.52,0,0,1-.35.26.54.54,0,0,1-.42-.12l-2.36-2.05v1.4a.52.52,0,0,1-.24.43.5.5,0,0,1-.49,0l-3.88-2,.47,2.89a.52.52,0,0,1-.2.49.51.51,0,0,1-.52,0l-6.2-3.09-1.07,2.56a.47.47,0,0,1-.35.29.48.48,0,0,1-.44-.11l-2.63-2.28-4.8,2.09a.49.49,0,0,1-.55-.11l-2-2-7,1.87a.5.5,0,0,1-.61-.34l-.71-2.27-2,1.93a.51.51,0,0,1-.39.14.54.54,0,0,1-.37-.21l-1.3-1.82-2.78,1.94a.47.47,0,0,1-.4.07l-3.31-.78-4.29,2.4a.52.52,0,0,1-.47,0,.53.53,0,0,1-.27-.38l-.24-1.67L388,444.37a.52.52,0,0,1-.58-.29l-.75-1.75-4.31,2a.47.47,0,0,1-.58-.12l-2-2.25-7.33,2.39a.51.51,0,0,1-.49-.09l-2.63-2.3-3.22,1.28a.52.52,0,0,1-.47-.05l-2.52-1.71-1.94,1.92a.5.5,0,0,1-.57.1l-4-2-1.08,2.81a.51.51,0,0,1-.7.27l-3.65-1.85-8.41,2.17a.5.5,0,0,1-.5-.16.49.49,0,0,1-.08-.52l.91-2.18-6.09,1.2-11.48,1.67a.51.51,0,0,1-.54-.32L324,442l-3.59,3.13a.54.54,0,0,1-.38.12.52.52,0,0,1-.35-.2L318,442.88l-3.75,2.26a.5.5,0,0,1-.65-.12l-2.43-3-1.22,1.9a.5.5,0,0,1-.35.23.49.49,0,0,1-.4-.12l-1.84-1.61-1.59,1.84a.49.49,0,0,1-.66.08l-3-2.07-7.07,2.68a.55.55,0,0,1-.31,0l-3-.8-2.4.79a.52.52,0,0,1-.55-.16l-1.37-1.67-4.77,1.55a.51.51,0,0,1-.56-.18l-1.35-1.88L277,444.33a.49.49,0,0,1-.53-.07.49.49,0,0,1-.17-.51l.63-2.36-3.7,2.36a.5.5,0,0,1-.56,0l-3.6-2.65-1,3a.53.53,0,0,1-.33.31.52.52,0,0,1-.45-.09l-2.56-2-4.47,3.37a.49.49,0,0,1-.42.09.51.51,0,0,1-.33-.26l-1.1-2.14L247,446a.51.51,0,0,1-.59-.33l-.51-1.54-7.54,1a.56.56,0,0,1-.4-.12l-2-1.77-4.21,1a.5.5,0,0,1-.59-.32l-.47-1.42-4.59,2a.5.5,0,0,1-.59-.16l-2.05-2.68-1.24,2.59a.51.51,0,0,1-.65.25l-3.23-1.41-.22,1.3a.48.48,0,0,1-.25.36.54.54,0,0,1-.43,0L210.31,442l-4.54,3.69a.5.5,0,0,1-.47.09l-4.36-1.35-6.27.54a.5.5,0,0,1-.45-.79l.91-1.26-15.71,2.32a.45.45,0,0,1-.38-.1.47.47,0,0,1-.19-.34l-.25-2.69-8,2.84a.56.56,0,0,1-.4,0,.54.54,0,0,1-.25-.32l-.75-2.85-3.86,3.11a.49.49,0,0,1-.66,0l-2.45-2.34-.21,2a.49.49,0,0,1-.26.38.47.47,0,0,1-.46,0l-3.54-1.8-2.3,1.75a.5.5,0,0,1-.63,0l-2.39-2.07-5.83.53-4.71,1.1a.53.53,0,0,1-.5-.17.49.49,0,0,1-.07-.52l.61-1.41-20.46,2.66a.52.52,0,0,1-.25,0L116.65,443l-4.27,1.85a.47.47,0,0,1-.4,0,.5.5,0,0,1-.27-.3l-.47-1.44-4.61,1.75a.5.5,0,0,1-.46,0,.54.54,0,0,1-.22-.42v-2.81l-7.56,3.54a.5.5,0,0,1-.62-.16l-3.08-4.39-2.14,3.27a.52.52,0,0,1-.33.21.45.45,0,0,1-.39-.09l-1.55-1.16-.2,1.39a.48.48,0,0,1-.28.37.47.47,0,0,1-.46,0l-4.75-2.67-.24,2.29a.48.48,0,0,1-.23.37.5.5,0,0,1-.43.05l-6.83-2.43-3.33,1.31a.49.49,0,0,1-.49-.07.51.51,0,0,1-.19-.46l.22-1.7-12.61,4.18a.49.49,0,0,1-.41,0,.51.51,0,0,1-.24-.33l-.5-2.39-3.55,1.9a.52.52,0,0,1-.47,0,.49.49,0,0,1-.26-.4l-.24-2.62L52,444a.52.52,0,0,1-.45.11.56.56,0,0,1-.35-.32l-1.06-3-4.25,2.71a.48.48,0,0,1-.45,0l-5.21-2,1.39,3a.5.5,0,0,1,0,.46.51.51,0,0,1-.38.25l-6.23.58,3.25.91a.49.49,0,0,1-.06,1l-20.8,3.09Z" style="fill:#263238"></path></g></svg>
